<svg width="424" height="424" viewBox="0 0 424 424" fill="none" xmlns="http://www.w3.org/2000/svg">
<path d="M424 324.274H0V324.486H424V324.274Z" fill="#EBEBEB"/>
<path d="M200.976 286.454H37.2357C35.953 286.452 34.7235 285.941 33.8173 285.033C32.9111 284.125 32.4021 282.895 32.4021 281.612V51.4393C32.4133 50.164 32.9272 48.9445 33.8322 48.0458C34.7372 47.1471 35.9603 46.6418 37.2357 46.6396H200.976C202.26 46.6396 203.492 47.1498 204.4 48.0579C205.308 48.9659 205.818 50.1975 205.818 51.4817V281.612C205.818 282.896 205.308 284.128 204.4 285.036C203.492 285.944 202.26 286.454 200.976 286.454ZM37.2357 46.8092C36.0092 46.8115 34.8337 47.3003 33.9672 48.1684C33.1007 49.0364 32.6141 50.2128 32.6141 51.4393V281.612C32.6141 282.838 33.1007 284.015 33.9672 284.883C34.8337 285.751 36.0092 286.24 37.2357 286.242H200.976C202.203 286.24 203.38 285.751 204.247 284.883C205.115 284.016 205.604 282.839 205.606 281.612V51.4393C205.604 50.212 205.115 49.0357 204.247 48.1678C203.38 47.3 202.203 46.8115 200.976 46.8092H37.2357Z" fill="#EBEBEB"/>
<path d="M384.407 286.454H220.658C219.375 286.452 218.144 285.941 217.237 285.033C216.329 284.126 215.818 282.895 215.816 281.612V51.4393C215.829 50.1632 216.345 48.9437 217.252 48.0453C218.158 47.1468 219.382 46.6418 220.658 46.6396H384.407C385.681 46.6441 386.902 47.1504 387.805 48.0488C388.708 48.9472 389.221 50.1654 389.232 51.4393V281.612C389.232 282.893 388.724 284.122 387.82 285.03C386.915 285.937 385.688 286.45 384.407 286.454ZM220.658 46.8092C219.431 46.8115 218.254 47.3 217.387 48.1678C216.519 49.0357 216.03 50.212 216.028 51.4393V281.612C216.03 282.839 216.519 284.016 217.387 284.883C218.254 285.751 219.431 286.24 220.658 286.242H384.407C385.634 286.24 386.811 285.751 387.678 284.883C388.546 284.016 389.035 282.839 389.037 281.612V51.4393C389.035 50.212 388.546 49.0357 387.678 48.1678C386.811 47.3 385.634 46.8115 384.407 46.8092H220.658Z" fill="#EBEBEB"/>
<path d="M381.515 332.348H354.744V332.56H381.515V332.348Z" fill="#EBEBEB"/>
<path d="M284.368 330.05H256.037V330.262H284.368V330.05Z" fill="#EBEBEB"/>
<path d="M389.249 340.226H336.308V340.438H389.249V340.226Z" fill="#EBEBEB"/>
<path d="M60.7931 338.801H44.4861V339.013H60.7931V338.801Z" fill="#EBEBEB"/>
<path d="M94.0347 338.801H68.3488V339.013H94.0347V338.801Z" fill="#EBEBEB"/>
<path d="M207.031 335.223H160.764V335.435H207.031V335.223Z" fill="#EBEBEB"/>
<path d="M230.877 100.174L182.557 148.501V309.443H352.149V100.174H230.877Z" fill="white"/>
<path d="M352.149 309.901H182.549C182.428 309.901 182.311 309.853 182.225 309.767C182.139 309.681 182.091 309.564 182.091 309.443V148.501C182.091 148.441 182.103 148.381 182.126 148.326C182.15 148.271 182.184 148.221 182.227 148.179L230.563 99.8427C230.649 99.7589 230.764 99.7105 230.885 99.707H352.149C352.209 99.707 352.269 99.7189 352.324 99.7419C352.38 99.7649 352.43 99.7986 352.473 99.8411C352.515 99.8837 352.549 99.9342 352.572 99.9897C352.595 100.045 352.607 100.105 352.607 100.165V309.443C352.607 309.503 352.595 309.563 352.572 309.618C352.549 309.674 352.515 309.724 352.473 309.767C352.43 309.809 352.38 309.843 352.324 309.866C352.269 309.889 352.209 309.901 352.149 309.901ZM183.015 308.993H351.691V100.631H231.072L183.015 148.688V308.993Z" fill="#E0E0E0"/>
<path d="M182.557 148.501L233.259 155.039L230.877 100.174L182.557 148.501Z" fill="#E6E6E6"/>
<path d="M182.557 148.501H230.877V100.174L182.557 148.501Z" fill="white"/>
<path d="M230.876 148.951H182.54C182.45 148.951 182.362 148.925 182.286 148.875C182.211 148.825 182.152 148.754 182.116 148.671C182.081 148.589 182.072 148.497 182.09 148.409C182.109 148.321 182.153 148.241 182.218 148.179L230.554 99.8433C230.619 99.7805 230.701 99.7375 230.79 99.7195C230.878 99.7015 230.97 99.7091 231.055 99.7416C231.137 99.7776 231.208 99.8369 231.257 99.9121C231.307 99.9874 231.334 100.075 231.334 100.166V148.502C231.332 148.622 231.283 148.736 231.197 148.82C231.112 148.904 230.996 148.951 230.876 148.951ZM183.66 148.044H230.427V101.276L183.66 148.044Z" fill="#E0E0E0"/>
<path d="M277.16 218.097L305.992 189.265C306.637 188.621 307.148 187.856 307.496 187.014C307.845 186.173 308.024 185.271 308.024 184.36C308.024 183.448 307.845 182.546 307.496 181.705C307.148 180.863 306.637 180.098 305.992 179.454C305.348 178.81 304.583 178.299 303.742 177.95C302.9 177.601 301.998 177.422 301.087 177.422C300.176 177.422 299.273 177.601 298.432 177.95C297.59 178.299 296.825 178.81 296.181 179.454L267.349 208.286L238.517 179.454C237.216 178.153 235.451 177.422 233.611 177.422C231.771 177.422 230.007 178.153 228.706 179.454C227.405 180.755 226.674 182.52 226.674 184.36C226.674 186.2 227.405 187.964 228.706 189.265L257.538 218.097L228.706 246.929C227.405 248.23 226.674 249.995 226.674 251.835C226.674 253.675 227.405 255.44 228.706 256.741C230.007 258.042 231.771 258.773 233.611 258.773C235.451 258.773 237.216 258.042 238.517 256.741L267.349 227.909L296.181 256.741C297.482 258.042 299.247 258.773 301.087 258.773C302.927 258.773 304.691 258.042 305.992 256.741C307.293 255.44 308.024 253.675 308.024 251.835C308.024 249.995 307.293 248.23 305.992 246.929L277.16 218.097Z" fill="#F0F0F0"/>
<path d="M189.104 194.192C187.477 195.817 185.272 196.73 182.973 196.73C180.674 196.73 178.469 195.817 176.842 194.192L149.019 166.361L161.281 154.099L189.104 181.964C190.719 183.589 191.625 185.787 191.625 188.078C191.625 190.369 190.719 192.567 189.104 194.192Z" fill="#F0F0F0"/>
<path d="M149.015 166.414L161.277 154.152L162.411 155.285C163.586 156.46 164.246 158.054 164.246 159.716C164.246 161.378 163.586 162.972 162.411 164.147L159.011 167.547C157.836 168.723 156.242 169.383 154.58 169.383C152.918 169.383 151.324 168.723 150.148 167.547L149.015 166.414Z" fill="#E0E0E0"/>
<path d="M71.8341 76.9217C63.4199 85.3444 57.6917 96.0725 55.3735 107.75C53.0553 119.428 54.2512 131.53 58.81 142.528C63.3688 153.526 71.0858 162.926 80.9857 169.539C90.8855 176.152 102.524 179.682 114.429 179.682C126.335 179.682 137.973 176.152 147.873 169.539C157.772 162.926 165.489 153.526 170.048 142.528C174.607 131.53 175.803 119.428 173.485 107.75C171.166 96.0725 165.438 85.3444 157.024 76.9217C151.433 71.3244 144.793 66.8841 137.484 63.8545C130.175 60.825 122.341 59.2656 114.429 59.2656C106.517 59.2656 98.6832 60.825 91.3744 63.8545C84.0657 66.8841 77.4257 71.3244 71.8341 76.9217ZM153.547 158.635C145.811 166.371 135.955 171.639 125.225 173.773C114.495 175.907 103.373 174.812 93.2657 170.625C83.1582 166.439 74.5193 159.349 68.4412 150.252C62.3632 141.156 59.119 130.461 59.119 119.521C59.119 108.581 62.3632 97.8862 68.4412 88.7897C74.5193 79.6932 83.1582 72.6033 93.2657 68.4166C103.373 64.23 114.495 63.1345 125.225 65.2687C135.955 67.403 145.811 72.6711 153.547 80.407C158.684 85.5435 162.758 91.6414 165.538 98.3526C168.318 105.064 169.749 112.257 169.749 119.521C169.749 126.785 168.318 133.978 165.538 140.689C162.758 147.401 158.684 153.498 153.547 158.635Z" fill="#E0E0E0"/>
<path d="M146.076 153.191C145.678 153.19 145.289 153.071 144.958 152.85C144.627 152.628 144.369 152.313 144.216 151.945C144.064 151.576 144.024 151.171 144.102 150.781C144.179 150.39 144.371 150.031 144.652 149.748C152.654 141.724 157.148 130.854 157.148 119.521C157.148 108.189 152.654 97.3188 144.652 89.2944C144.446 89.1117 144.28 88.8889 144.164 88.6397C144.047 88.3905 143.983 88.1201 143.975 87.8452C143.967 87.5703 144.015 87.2966 144.117 87.041C144.218 86.7854 144.371 86.5532 144.565 86.3587C144.76 86.1642 144.992 86.0115 145.248 85.91C145.503 85.8085 145.777 85.7604 146.052 85.7685C146.327 85.7765 146.597 85.8407 146.846 85.9571C147.096 86.0735 147.318 86.2395 147.501 86.4451C156.259 95.2236 161.177 107.117 161.177 119.517C161.177 131.917 156.259 143.811 147.501 152.589C147.315 152.778 147.093 152.929 146.849 153.032C146.604 153.135 146.342 153.189 146.076 153.191Z" fill="#E0E0E0"/>
<path d="M70.8758 131.889C70.422 131.889 69.9815 131.736 69.6258 131.455C69.2701 131.173 69.0203 130.779 68.9169 130.337C67.4501 124.125 67.2651 117.68 68.3732 111.395C69.4813 105.109 71.8592 99.1154 75.3617 93.7798C75.6563 93.33 76.1176 93.0157 76.644 92.906C77.1704 92.7962 77.7188 92.9001 78.1686 93.1947C78.6184 93.4893 78.9327 93.9506 79.0425 94.477C79.1522 95.0034 79.0483 95.5518 78.7537 96.0016C75.5469 100.876 73.3668 106.352 72.3462 112.096C71.3256 117.84 71.4861 123.733 72.8177 129.413C72.8807 129.67 72.8919 129.937 72.8508 130.199C72.8097 130.461 72.717 130.712 72.5782 130.937C72.4393 131.163 72.2571 131.359 72.042 131.513C71.8269 131.668 71.5833 131.778 71.3252 131.838C71.1775 131.87 71.0269 131.887 70.8758 131.889Z" fill="#E0E0E0"/>
<path d="M82.7818 153.191C82.247 153.19 81.7346 152.976 81.3572 152.597C77.7246 148.979 74.7159 144.784 72.4532 140.182C72.3362 139.945 72.2672 139.687 72.2499 139.424C72.2326 139.16 72.2675 138.895 72.3526 138.645C72.4376 138.394 72.5712 138.163 72.7455 137.964C72.9199 137.765 73.1318 137.603 73.369 137.486C73.6062 137.369 73.8641 137.3 74.128 137.283C74.3919 137.265 74.6566 137.3 74.907 137.385C75.1574 137.47 75.3886 137.604 75.5874 137.778C75.7862 137.953 75.9487 138.165 76.0656 138.402C78.1403 142.604 80.8904 146.437 84.2064 149.748C84.5834 150.126 84.7951 150.639 84.7951 151.173C84.7951 151.707 84.5834 152.219 84.2064 152.597C83.8274 152.974 83.316 153.187 82.7818 153.191Z" fill="#E0E0E0"/>
<path d="M178.956 271.703L186.883 279.63L168.474 298.039C167.533 298.98 166.256 299.509 164.925 299.509C163.593 299.509 162.316 298.98 161.375 298.039L160.541 297.205C159.6 296.264 159.071 294.987 159.071 293.656C159.071 292.324 159.6 291.047 160.541 290.106L178.95 271.697L178.956 271.703Z" fill="#F0F0F0"/>
<path d="M178.968 271.72L186.883 279.635L186.505 280.013C185.651 280.867 184.493 281.347 183.285 281.347C182.078 281.347 180.919 280.867 180.065 280.013L178.578 278.526C177.724 277.672 177.244 276.513 177.244 275.306C177.244 274.098 177.724 272.94 178.578 272.086L178.956 271.708L178.968 271.72Z" fill="#E0E0E0"/>
<path d="M241.129 228.705L222.558 247.268C220.496 249.477 219.374 252.4 219.427 255.421C219.48 258.442 220.704 261.324 222.842 263.46C224.98 265.595 227.863 266.817 230.884 266.867C233.905 266.917 236.827 265.791 239.034 263.727L246.547 256.223C248.129 246.697 246.204 236.92 241.129 228.705Z" fill="#F0F0F0"/>
<path d="M248.125 246.615C247.593 238.928 244.793 231.571 240.08 225.475C235.366 219.379 228.951 214.817 221.645 212.368C214.339 209.918 206.471 209.69 199.035 211.713C191.6 213.735 184.931 217.917 179.873 223.73C174.814 229.543 171.593 236.726 170.617 244.369C169.641 252.013 170.954 259.774 174.389 266.672C177.825 273.569 183.228 279.293 189.917 283.119C196.606 286.945 204.279 288.702 211.966 288.167C222.27 287.45 231.868 282.669 238.649 274.877C245.429 267.085 248.838 256.919 248.125 246.615ZM173.577 251.805C173.086 244.747 174.699 237.702 178.211 231.561C181.724 225.42 186.979 220.459 193.311 217.305C199.644 214.15 206.769 212.945 213.787 213.84C220.805 214.736 227.399 217.692 232.737 222.336C238.074 226.979 241.915 233.101 243.773 239.928C245.631 246.754 245.422 253.978 243.175 260.686C240.927 267.394 236.74 273.285 231.144 277.613C225.549 281.942 218.795 284.514 211.737 285.004C202.275 285.661 192.938 282.532 185.782 276.307C178.626 270.081 174.236 261.267 173.577 251.805Z" fill="#E0E0E0"/>
<path d="M189.426 272.132C186.425 269.53 183.967 266.362 182.193 262.808C180.419 259.255 179.364 255.386 179.089 251.423C179.07 251.248 179.086 251.071 179.136 250.902C179.187 250.734 179.272 250.577 179.385 250.442C179.497 250.306 179.637 250.195 179.794 250.115C179.951 250.035 180.122 249.988 180.298 249.976C180.474 249.964 180.65 249.987 180.816 250.045C180.983 250.103 181.136 250.194 181.266 250.313C181.396 250.432 181.501 250.575 181.575 250.736C181.648 250.896 181.688 251.069 181.692 251.245C182.212 258.548 185.604 265.347 191.125 270.155C196.646 274.962 203.847 277.387 211.152 276.897C211.496 276.874 211.835 276.988 212.095 277.214C212.356 277.441 212.515 277.762 212.538 278.106C212.562 278.45 212.448 278.789 212.221 279.049C211.995 279.309 211.674 279.469 211.33 279.492C207.374 279.767 203.403 279.258 199.644 277.995C195.886 276.732 192.413 274.739 189.426 272.132Z" fill="#E0E0E0"/>
<path d="M236.287 242.528C236.093 242.36 235.954 242.139 235.888 241.892C234.867 238.262 233.117 234.879 230.745 231.949C228.373 229.018 225.428 226.602 222.091 224.847C221.799 224.679 221.584 224.405 221.489 224.082C221.394 223.758 221.429 223.411 221.584 223.112C221.739 222.814 222.004 222.587 222.323 222.478C222.642 222.37 222.99 222.389 223.295 222.532C226.948 224.453 230.171 227.097 232.768 230.305C235.364 233.512 237.28 237.215 238.398 241.188C238.445 241.353 238.458 241.525 238.437 241.695C238.417 241.865 238.363 242.029 238.278 242.178C238.194 242.327 238.081 242.458 237.946 242.563C237.811 242.668 237.656 242.746 237.491 242.791C237.284 242.848 237.066 242.854 236.856 242.808C236.647 242.762 236.451 242.666 236.287 242.528Z" fill="#E0E0E0"/>
<path d="M206.395 221.438C206.136 221.208 205.977 220.885 205.954 220.539C205.93 220.195 206.044 219.856 206.269 219.596C206.495 219.335 206.814 219.174 207.158 219.148C210.465 218.919 213.788 219.231 216.995 220.073C217.162 220.117 217.319 220.193 217.456 220.298C217.594 220.402 217.709 220.533 217.796 220.682C217.883 220.831 217.94 220.996 217.963 221.167C217.986 221.339 217.976 221.513 217.932 221.68C217.888 221.847 217.811 222.003 217.707 222.141C217.602 222.278 217.472 222.394 217.322 222.481C217.173 222.568 217.008 222.625 216.837 222.648C216.666 222.671 216.492 222.661 216.325 222.617C213.398 221.842 210.364 221.556 207.345 221.769C206.997 221.786 206.656 221.667 206.395 221.438Z" fill="#E0E0E0"/>
<path d="M212 362.571C302.806 362.571 376.419 358.273 376.419 352.971C376.419 347.67 302.806 343.372 212 343.372C121.194 343.372 47.5813 347.67 47.5813 352.971C47.5813 358.273 121.194 362.571 212 362.571Z" fill="#F5F5F5"/>
<path d="M116.871 123.707C110.037 130.584 121.654 141.26 113.98 146.162C120.246 149.308 142.21 153.302 147.9 140.929C143.753 137.707 146.636 129.787 142.812 122.18C137.088 110.902 110.037 115.896 116.871 123.707Z" fill="#263238"/>
<path d="M117.49 123.529C115.362 123.173 108.162 126.751 113.522 136.359C117.838 144.127 114.243 144.678 114.243 144.678C114.243 144.678 118.483 144.797 115.939 139.022C113.242 132.857 111.978 126.463 117.49 123.529Z" fill="#263238"/>
<path d="M167.904 184.534C167.642 184.054 167.202 183.696 166.678 183.537C166.155 183.379 165.59 183.432 165.106 183.686L164.605 183.949C164.444 184.034 164.139 184.237 163.893 184.381C163.647 184.525 163.359 184.686 163.087 184.822C162.553 185.091 162 185.324 161.434 185.518C160.386 185.897 159.283 186.106 158.169 186.137C157.145 186.149 156.127 185.985 155.159 185.653C154.543 185.425 153.95 185.141 153.386 184.805C152.657 183.194 151.962 181.566 151.368 179.887C150.647 177.928 150.011 175.927 149.452 173.9C148.892 171.873 148.4 169.821 147.993 167.76C147.781 166.734 147.594 165.7 147.425 164.674L147.196 163.139C147.12 162.647 147.052 162.087 147.009 161.697V161.528C146.897 160.403 146.342 159.369 145.468 158.654C144.593 157.938 143.47 157.599 142.345 157.712C141.221 157.824 140.187 158.379 139.471 159.253C138.756 160.128 138.417 161.251 138.529 162.376C138.589 163.096 138.64 163.648 138.716 164.25C138.792 164.852 138.877 165.428 138.962 166.014C139.148 167.184 139.36 168.337 139.598 169.49C140.069 171.782 140.664 174.047 141.379 176.274C141.709 177.394 142.116 178.496 142.498 179.607C142.88 180.718 143.346 181.803 143.829 182.88C144.755 185.056 145.805 187.177 146.975 189.232L147.077 189.418C147.382 189.97 147.838 190.423 148.392 190.724C149.994 191.598 151.726 192.21 153.522 192.539C155.366 192.865 157.256 192.824 159.085 192.42C161.666 191.822 164.037 190.535 165.945 188.698C166.259 188.409 166.556 188.112 166.793 187.799C167.031 187.485 167.319 187.188 167.641 186.747C167.89 186.441 168.046 186.07 168.093 185.679C168.14 185.287 168.074 184.89 167.904 184.534Z" fill="#FF8B7B"/>
<path d="M173.543 176.596H173.297C172.486 176.579 171.681 176.749 170.945 177.093C170.21 177.437 169.564 177.946 169.057 178.58L164.961 183.719V187.23C168.252 188.536 172.424 185.017 172.424 185.017L174.535 184.482C175.246 184.305 175.866 183.87 176.275 183.263C176.683 182.655 176.852 181.917 176.749 181.192L176.443 179.131C176.344 178.431 175.996 177.791 175.464 177.325C174.932 176.86 174.25 176.601 173.543 176.596Z" fill="#FF8B7B"/>
<path d="M146.899 156.778C149.638 159.594 149.808 167.997 149.808 167.997L138.852 176.817C138.852 176.817 134.349 164.351 136.842 159.95C138.953 156.219 143.405 153.191 146.899 156.778Z" fill="#1769E9"/>
<g opacity="0.2">
<path d="M146.899 156.778C149.638 159.594 149.808 167.997 149.808 167.997L138.852 176.817C138.852 176.817 134.349 164.351 136.842 159.95C138.953 156.219 143.405 153.191 146.899 156.778Z" fill="white"/>
</g>
<path d="M128.769 345.705L134.824 346.366L135.655 329.915L129.6 329.245L128.769 345.705Z" fill="#FF8B7B"/>
<path d="M135.816 342.414H128.701C128.558 342.41 128.418 342.461 128.312 342.558C128.206 342.654 128.142 342.788 128.133 342.932L127.658 349.656C127.658 350.008 127.795 350.346 128.041 350.598C128.286 350.85 128.621 350.996 128.972 351.005C131.974 351.005 132.008 351.005 135.756 351.005H145.856C148.96 351.005 148.968 347.859 147.628 347.57C141.599 346.298 139.25 344.534 137.122 342.855C136.748 342.567 136.288 342.412 135.816 342.414Z" fill="#263238"/>
<path opacity="0.2" d="M135.655 329.923L135.222 338.403H129.133L129.6 329.253L135.655 329.923Z" fill="black"/>
<path d="M138.919 198.661C138.919 198.661 144.16 242.528 144.16 262.032C140.03 289.168 136.528 336.792 136.528 336.792L128.15 336.571C128.15 336.571 124.342 284.707 127.87 262.312C123.35 242.248 117.77 195.947 117.77 195.947L138.919 198.661Z" fill="#263238"/>
<path opacity="0.2" d="M122.765 210.872C121.766 211.311 120.798 211.816 119.865 212.382C121.018 221.04 122.536 231.936 124.147 241.994C126.895 233.717 125.411 215.519 122.765 210.872Z" fill="black"/>
<path d="M63.2014 330.432L68.1961 333.917L76.8118 319.874L71.8171 316.389L63.2014 330.432Z" fill="#FF8B7B"/>
<path d="M69.4597 332.077L65.2197 326.37C65.139 326.253 65.0156 326.173 64.876 326.146C64.7365 326.119 64.592 326.147 64.4735 326.226L58.7919 329.872C58.5084 330.081 58.3184 330.393 58.2629 330.74C58.2074 331.088 58.2908 331.443 58.4951 331.729C60.2674 334.146 60.3013 334.163 62.5316 337.165C63.9138 339.005 66.6698 342.711 68.5693 345.264C70.4688 347.816 72.9535 345.883 72.3768 344.628C69.8328 339.039 69.8328 336.148 69.8837 333.4C69.8924 332.924 69.7433 332.459 69.4597 332.077Z" fill="#263238"/>
<path opacity="0.2" d="M76.8034 319.874L72.3683 327.116L67.0175 324.199L71.8171 316.389L76.8034 319.874Z" fill="black"/>
<path d="M93.8397 336.317C89.5064 336.317 80.4837 336.317 80.331 329.94C80.2123 324.937 86.4027 322.859 91.7451 322.605C92.337 322.576 92.9287 322.665 93.4865 322.865C94.0442 323.065 94.5571 323.373 94.9957 323.772C95.4343 324.17 95.7902 324.651 96.0429 325.187C96.2956 325.723 96.4402 326.304 96.4685 326.896V327.235C102.523 326.946 106.441 325.624 107.874 323.368C111.105 318.28 104.915 305.144 98.9361 292.45C91.8977 277.516 83.9265 260.599 83.7739 244.394C83.7683 243.801 83.8795 243.213 84.101 242.664C84.3226 242.114 84.6502 241.614 85.0652 241.191C85.4802 240.768 85.9744 240.431 86.5196 240.199C87.0649 239.968 87.6504 239.845 88.2429 239.84C89.4314 239.842 90.5712 240.312 91.4156 241.149C92.2599 241.985 92.7408 243.12 92.7542 244.309C92.8899 258.538 100.386 274.506 107.052 288.6C114.684 304.864 121.34 318.916 115.447 328.201C112.029 333.663 104.948 336.317 93.8397 336.317Z" fill="#1769E9"/>
<path d="M132.212 197.796C132.212 197.796 117.745 247.93 110.681 266.111C96.9943 289.906 74.2848 326.319 74.2848 326.319L67.0344 322.079C67.0344 322.079 83.9944 280.018 95.4 260.43C98.4613 240.078 110.036 194.913 110.036 194.913L132.212 197.796Z" fill="#263238"/>
<path d="M70.7657 336.173C71.0534 336.649 71.4967 337.012 72.0207 337.199C72.1741 337.236 72.3347 337.229 72.4845 337.18C72.6343 337.13 72.7674 337.04 72.8687 336.919C72.9392 336.854 72.993 336.773 73.0255 336.683C73.058 336.593 73.0682 336.497 73.0553 336.402C72.9535 335.384 70.3247 334.061 69.7989 333.807C69.7683 333.794 69.7341 333.794 69.7029 333.804C69.6717 333.815 69.6455 333.837 69.6293 333.866C69.6089 333.898 69.598 333.935 69.598 333.972C69.598 334.01 69.6089 334.047 69.6293 334.078C69.9407 334.811 70.3212 335.512 70.7657 336.173ZM72.5719 336.173C72.6466 336.266 72.6962 336.377 72.7161 336.495C72.7201 336.528 72.7161 336.561 72.7043 336.593C72.6924 336.624 72.6732 336.651 72.6482 336.673C72.5798 336.751 72.492 336.809 72.3936 336.842C72.2953 336.875 72.19 336.881 72.0885 336.86C71.5289 336.749 70.7911 335.842 70.0788 334.409C71.0023 334.839 71.8455 335.424 72.5719 336.139V336.173Z" fill="#1769E9"/>
<path d="M69.5869 334.112L69.6378 334.155C70.4858 334.621 72.6906 335.003 73.1739 334.299C73.255 334.17 73.2945 334.02 73.2869 333.868C73.2793 333.716 73.2251 333.571 73.1315 333.451C72.2835 331.95 69.7395 333.714 69.6293 333.79C69.604 333.81 69.5839 333.836 69.5706 333.866C69.5573 333.895 69.5513 333.927 69.5529 333.96C69.5495 334.013 69.5613 334.066 69.5869 334.112ZM72.8093 333.62C72.834 333.65 72.8566 333.681 72.8771 333.714C72.9704 333.875 72.9874 333.994 72.9365 334.061C72.6566 334.468 71.0285 334.324 70.0787 333.951C70.7147 333.57 72.1987 332.798 72.8093 333.62Z" fill="#1769E9"/>
<path d="M139.92 343.814C140.476 343.864 141.032 343.724 141.497 343.415C141.615 343.312 141.702 343.178 141.749 343.028C141.795 342.879 141.799 342.719 141.76 342.567C141.748 342.471 141.714 342.38 141.661 342.299C141.608 342.218 141.538 342.15 141.455 342.101C140.607 341.584 137.953 342.898 137.435 343.169C137.406 343.185 137.384 343.211 137.371 343.242C137.359 343.273 137.358 343.307 137.368 343.339C137.38 343.374 137.402 343.406 137.43 343.431C137.458 343.456 137.492 343.474 137.529 343.483C138.312 343.675 139.114 343.786 139.92 343.814ZM140.972 342.347C141.092 342.339 141.213 342.365 141.319 342.423C141.362 342.423 141.404 342.482 141.421 342.584C141.443 342.686 141.438 342.791 141.405 342.89C141.372 342.988 141.313 343.076 141.234 343.144C140.819 343.525 139.649 343.576 138.071 343.297C138.963 342.819 139.929 342.497 140.929 342.347H140.972Z" fill="#1769E9"/>
<path d="M137.529 343.525H137.588C138.436 343.135 140.09 341.583 139.818 340.778C139.762 340.645 139.667 340.531 139.547 340.451C139.426 340.371 139.285 340.328 139.14 340.328C137.444 340.133 137.325 343.203 137.317 343.33C137.317 343.364 137.326 343.397 137.342 343.427C137.358 343.456 137.382 343.481 137.41 343.5C137.446 343.52 137.487 343.529 137.529 343.525ZM139.055 340.642H139.174C139.352 340.642 139.462 340.718 139.488 340.803C139.649 341.27 138.563 342.499 137.69 343.033C137.766 342.296 138.037 340.642 139.072 340.642H139.055Z" fill="#1769E9"/>
<path d="M110.036 194.956L138.919 198.653C145.432 176.724 147.577 166.132 148.154 161.036C148.307 159.755 148.007 158.461 147.307 157.377C146.608 156.293 145.551 155.488 144.321 155.1C142.625 154.557 140.437 153.913 138.266 153.404C137.529 153.209 136.774 153.031 136.036 152.861C131.712 151.984 127.331 151.417 122.926 151.165C122.273 151.106 121.629 151.072 120.976 151.038C119.695 150.97 118.432 150.953 117.278 150.953C116.413 150.952 115.556 151.131 114.764 151.48C113.972 151.828 113.26 152.337 112.675 152.975C112.091 153.614 111.645 154.367 111.368 155.186C111.09 156.006 110.986 156.875 111.063 157.737C111.292 160.281 111.47 162.647 111.605 164.818C111.928 169.906 112.029 173.976 111.953 177.538C111.78 183.386 111.139 189.21 110.036 194.956Z" fill="#1769E9"/>
<g opacity="0.3">
<path d="M110.036 194.956L138.919 198.653C145.432 176.724 147.577 166.132 148.154 161.036C148.307 159.755 148.007 158.461 147.307 157.377C146.608 156.293 145.551 155.488 144.321 155.1C142.625 154.557 140.437 153.913 138.266 153.404C137.529 153.209 136.774 153.031 136.036 152.861C131.712 151.984 127.331 151.417 122.926 151.165C122.273 151.106 121.629 151.072 120.976 151.038C119.695 150.97 118.432 150.953 117.278 150.953C116.413 150.952 115.556 151.131 114.764 151.48C113.972 151.828 113.26 152.337 112.675 152.975C112.091 153.614 111.645 154.367 111.368 155.186C111.09 156.006 110.986 156.875 111.063 157.737C111.292 160.281 111.47 162.647 111.605 164.818C111.928 169.906 112.029 173.976 111.953 177.538C111.78 183.386 111.139 189.21 110.036 194.956Z" fill="white"/>
</g>
<path opacity="0.3" d="M111.936 177.504C115.752 172.568 117.134 166.921 115.896 163.809L111.588 164.775C111.936 169.846 112.029 173.934 111.936 177.504Z" fill="#1769E9"/>
<path d="M138.266 153.353C137.52 153.158 136.774 152.98 136.036 152.81C131.709 151.937 127.325 151.37 122.918 151.114C122.265 151.063 121.62 151.029 120.976 150.995L119.848 150.944L120.696 152.428C120.815 152.632 123.698 157.347 130.872 162.418L132.407 163.486L133.882 162.358C135.303 161.339 136.464 160 137.272 158.448C138.079 156.897 138.51 155.178 138.529 153.429L138.266 153.353Z" fill="white"/>
<path d="M126.106 142.396C125.835 145.966 124.995 149.604 122.918 151.131C122.918 151.131 125.563 155.532 132.415 160.34C136.706 157.058 136.036 152.81 136.036 152.81C131.474 151.114 131.796 147.951 133.721 142.905L130.16 140.988C129.852 140.65 129.452 140.409 129.009 140.296C128.566 140.183 128.1 140.203 127.668 140.353C127.236 140.503 126.857 140.776 126.58 141.14C126.302 141.503 126.137 141.94 126.106 142.396Z" fill="#FF8B7B"/>
<path opacity="0.2" d="M130.16 140.989C129.871 140.67 129.5 140.437 129.087 140.316C128.675 140.195 128.237 140.19 127.822 140.303C127.406 140.415 127.031 140.64 126.735 140.953C126.44 141.265 126.237 141.653 126.149 142.074C127.501 144.802 129.683 147.031 132.381 148.443C132.478 146.53 132.929 144.652 133.713 142.905L130.16 140.989Z" fill="black"/>
<path d="M120.56 131.203C122.333 138.097 122.935 141.049 127.149 143.923C133.484 148.282 141.565 144.602 141.879 137.326C142.176 130.771 139.233 120.595 131.873 119.136C130.248 118.804 128.565 118.894 126.984 119.396C125.404 119.899 123.978 120.798 122.844 122.008C121.71 123.218 120.904 124.699 120.505 126.308C120.105 127.918 120.124 129.603 120.56 131.203Z" fill="#FF8B7B"/>
<path d="M138.105 120.56C133.953 124.251 129.027 126.966 123.689 128.506C123.689 128.506 128.955 139.708 119.102 136.884C116.244 127.344 119.102 122.392 121.646 120.06C129.481 117.516 134.993 116.668 138.105 120.56Z" fill="#263238"/>
<path d="M120.229 137.995C120.807 139.244 121.856 140.214 123.147 140.692C124.843 141.302 125.852 139.844 125.487 138.148C125.156 136.63 123.867 134.476 122.095 134.586C121.712 134.619 121.342 134.746 121.02 134.956C120.698 135.166 120.432 135.453 120.248 135.79C120.063 136.128 119.965 136.506 119.962 136.89C119.958 137.275 120.05 137.655 120.229 137.995Z" fill="#FF8B7B"/>
<path d="M109.825 193.209L108.188 195.626C108.061 195.812 108.273 196.05 108.603 196.092L138.894 199.976C139.157 199.976 139.386 199.908 139.428 199.747L140.022 197.203C140.022 197.025 139.852 196.847 139.572 196.804L110.316 193.056C110.228 193.036 110.136 193.039 110.05 193.066C109.963 193.093 109.886 193.142 109.825 193.209Z" fill="#1769E9"/>
<path d="M113.327 196.982L112.547 196.88C112.394 196.88 112.284 196.761 112.309 196.668L113.106 193.352C113.137 193.296 113.185 193.253 113.244 193.228C113.302 193.203 113.367 193.199 113.429 193.217L114.217 193.318C114.37 193.318 114.48 193.429 114.455 193.53L113.658 196.838C113.632 196.939 113.488 196.999 113.327 196.982Z" fill="#263238"/>
<path d="M136.655 199.967L135.875 199.874C135.722 199.874 135.612 199.755 135.638 199.653L136.435 196.346C136.435 196.253 136.604 196.185 136.757 196.202L137.546 196.304C137.698 196.304 137.809 196.422 137.783 196.516L136.986 199.831C136.961 199.925 136.816 199.992 136.655 199.967Z" fill="#263238"/>
<path d="M124.995 198.475L124.215 198.373C124.054 198.373 123.944 198.263 123.969 198.161L124.766 194.854C124.766 194.752 124.936 194.693 125.097 194.71L125.877 194.812C126.03 194.812 126.14 194.93 126.123 195.024L125.318 198.339C125.301 198.433 125.148 198.492 124.995 198.475Z" fill="#263238"/>
<path d="M132.373 130.906C132.475 131.474 132.865 131.881 133.221 131.805C133.577 131.728 133.806 131.219 133.696 130.651C133.585 130.083 133.195 129.676 132.848 129.752C132.5 129.829 132.288 130.337 132.373 130.906Z" fill="#263238"/>
<path d="M138.784 129.676C138.894 130.244 139.284 130.643 139.632 130.575C139.979 130.507 140.217 129.981 140.107 129.413C139.996 128.845 139.606 128.447 139.259 128.514C138.911 128.582 138.682 129.108 138.784 129.676Z" fill="#263238"/>
<path d="M139.072 128.582L140.361 127.921C140.361 127.921 139.92 129.125 139.072 128.582Z" fill="#263238"/>
<path d="M137.088 130.948C137.846 132.143 138.761 133.23 139.81 134.179C139.561 134.443 139.258 134.649 138.921 134.783C138.584 134.916 138.221 134.973 137.859 134.951L137.088 130.948Z" fill="#FF5652"/>
<path d="M133.085 137.241C133.06 137.27 133.045 137.308 133.044 137.347C133.043 137.386 133.055 137.425 133.079 137.456C133.103 137.486 133.137 137.508 133.175 137.517C133.214 137.526 133.254 137.521 133.289 137.504C133.929 137.177 134.639 137.007 135.358 137.007C136.077 137.007 136.786 137.177 137.427 137.504C137.465 137.526 137.511 137.532 137.553 137.521C137.596 137.509 137.633 137.482 137.656 137.444C137.679 137.406 137.687 137.36 137.677 137.316C137.668 137.272 137.642 137.233 137.605 137.207C136.913 136.853 136.148 136.668 135.371 136.668C134.594 136.668 133.828 136.853 133.136 137.207C133.136 137.207 133.136 137.224 133.085 137.241Z" fill="#263238"/>
<path d="M130.16 129.159C130.212 129.127 130.253 129.08 130.278 129.023C130.455 128.637 130.721 128.298 131.054 128.034C131.387 127.77 131.778 127.589 132.195 127.506C132.239 127.5 132.283 127.486 132.322 127.464C132.361 127.442 132.395 127.412 132.423 127.377C132.451 127.341 132.471 127.301 132.483 127.257C132.494 127.214 132.497 127.169 132.492 127.124C132.487 127.08 132.474 127.037 132.453 126.997C132.432 126.958 132.403 126.924 132.368 126.896C132.333 126.868 132.293 126.848 132.25 126.836C132.207 126.824 132.163 126.821 132.118 126.827C131.588 126.926 131.09 127.15 130.663 127.48C130.237 127.811 129.896 128.238 129.668 128.727C129.635 128.794 129.625 128.869 129.639 128.943C129.654 129.016 129.692 129.082 129.748 129.131C129.804 129.18 129.875 129.21 129.949 129.215C130.023 129.22 130.097 129.2 130.16 129.159Z" fill="#263238"/>
<path d="M140.692 124.86L140.734 124.818C140.76 124.781 140.778 124.74 140.788 124.696C140.798 124.652 140.799 124.607 140.791 124.563C140.783 124.518 140.766 124.476 140.742 124.439C140.718 124.401 140.686 124.368 140.649 124.343C140.211 124.028 139.704 123.822 139.17 123.742C138.636 123.663 138.091 123.711 137.58 123.885C137.498 123.921 137.433 123.986 137.398 124.068C137.364 124.15 137.362 124.242 137.393 124.326C137.427 124.409 137.492 124.475 137.575 124.51C137.658 124.545 137.751 124.546 137.834 124.512C138.24 124.379 138.672 124.345 139.094 124.413C139.516 124.481 139.915 124.649 140.259 124.903C140.324 124.949 140.404 124.97 140.483 124.962C140.563 124.955 140.637 124.918 140.692 124.86Z" fill="#263238"/>
<path d="M132.687 129.812L133.976 129.159C133.976 129.159 133.475 130.355 132.687 129.812Z" fill="#263238"/>
<path d="M88.2853 248.863C87.0961 248.863 85.955 248.393 85.1102 247.556C84.2653 246.719 83.7851 245.583 83.7739 244.394C83.6552 232.352 87.6662 222.184 95.3746 214.993C104.864 206.14 119.661 202.028 137.062 203.401C149.265 204.368 157.092 201.4 166.149 197.949C167.641 197.389 169.142 196.812 170.685 196.253C171.81 195.843 173.051 195.897 174.136 196.403C175.22 196.909 176.059 197.825 176.469 198.949C176.878 200.074 176.824 201.315 176.318 202.399C175.813 203.484 174.897 204.323 173.772 204.733C172.271 205.275 170.813 205.835 169.363 206.386C160.128 209.897 150.588 213.518 136.35 212.399C121.51 211.22 109.146 214.485 101.531 221.591C95.595 227.086 92.7034 234.726 92.7966 244.309C92.8022 244.901 92.6911 245.489 92.4695 246.038C92.2479 246.588 91.9203 247.088 91.5053 247.511C91.0904 247.934 90.5961 248.271 90.0509 248.503C89.5057 248.735 88.9201 248.857 88.3277 248.863H88.2853Z" fill="#1769E9"/>
<path d="M192.619 211.103L174.473 217.75C172.958 218.305 171.286 218.236 169.823 217.557C168.36 216.879 167.227 215.647 166.672 214.133L159.178 193.677C158.623 192.163 158.693 190.49 159.371 189.028C160.05 187.565 161.282 186.431 162.796 185.877L180.942 179.229L192.61 211.079L192.619 211.103Z" fill="#1769E9"/>
<path opacity="0.7" d="M192.619 211.103L174.473 217.75C172.958 218.305 171.286 218.236 169.823 217.557C168.36 216.879 167.227 215.647 166.672 214.133L159.178 193.677C158.623 192.163 158.693 190.49 159.371 189.028C160.05 187.565 161.282 186.431 162.796 185.877L180.942 179.229L192.61 211.079L192.619 211.103Z" fill="white"/>
<path opacity="0.2" d="M172.856 182.184L180.955 179.225L192.623 211.092L184.525 214.06C183.986 213.539 183.574 212.901 183.321 212.195L173.145 184.389C172.879 183.686 172.78 182.931 172.856 182.184Z" fill="#1769E9"/>
<path d="M199.141 187.162L198.345 187.454L200.287 192.757L201.084 192.465L199.141 187.162Z" fill="#1769E9"/>
<path d="M197.118 184.152L194.26 176.334C193.77 175.008 192.885 173.864 191.725 173.056C190.566 172.248 189.186 171.814 187.773 171.814C186.968 171.812 186.17 171.952 185.415 172.229L180.259 174.12L179.963 173.323L185.127 171.432C185.974 171.122 186.87 170.964 187.773 170.966C189.361 170.97 190.91 171.459 192.212 172.369C193.514 173.278 194.507 174.564 195.057 176.054L197.915 183.872L197.118 184.152Z" fill="#1769E9"/>
<path d="M192.76 213.387L200.333 210.648C202.807 209.753 204.087 207.022 203.192 204.548L192.913 176.13C192.019 173.656 189.287 172.376 186.813 173.271L179.241 176.01C176.766 176.905 175.486 179.636 176.381 182.11L186.66 210.527C187.555 213.001 190.286 214.282 192.76 213.387Z" fill="#1769E9"/>
<path d="M188.426 184.754C188.599 185.227 188.627 185.741 188.508 186.23C188.389 186.719 188.128 187.162 187.757 187.502C187.386 187.843 186.922 188.065 186.425 188.142C185.927 188.219 185.418 188.146 184.962 187.934C184.505 187.721 184.122 187.378 183.861 186.947C183.6 186.517 183.473 186.019 183.495 185.516C183.517 185.013 183.688 184.528 183.986 184.122C184.284 183.716 184.696 183.408 185.169 183.236C185.803 183.007 186.501 183.038 187.111 183.322C187.722 183.607 188.194 184.122 188.426 184.754Z" fill="#263238"/>
<path d="M194.76 202.045C194.932 202.518 194.961 203.031 194.841 203.519C194.722 204.008 194.461 204.45 194.09 204.79C193.719 205.13 193.256 205.353 192.759 205.43C192.262 205.507 191.753 205.435 191.297 205.223C190.841 205.011 190.458 204.668 190.197 204.239C189.935 203.809 189.807 203.311 189.828 202.809C189.849 202.306 190.019 201.821 190.316 201.415C190.613 201.009 191.023 200.7 191.495 200.527C191.809 200.412 192.143 200.36 192.477 200.374C192.811 200.388 193.139 200.468 193.442 200.609C193.746 200.75 194.018 200.95 194.244 201.196C194.47 201.442 194.646 201.731 194.76 202.045Z" fill="#263238"/>
<path d="M120.416 200.002L120.348 199.925C119.025 198.602 117.626 197.161 116.363 195.685C115.099 194.21 113.861 192.734 112.733 191.208C111.627 189.719 110.622 188.158 109.723 186.535C109.079 185.375 108.532 184.164 108.086 182.914C108.595 181.218 109.138 179.522 109.782 177.894C110.52 175.935 111.351 174.01 112.258 172.111C113.166 170.211 114.132 168.346 115.175 166.523C115.684 165.607 116.218 164.699 116.77 163.809L117.618 162.503C117.881 162.079 118.194 161.655 118.415 161.29L118.508 161.155C119.111 160.236 119.333 159.119 119.129 158.039C118.924 156.959 118.308 156.001 117.411 155.367C116.514 154.732 115.405 154.471 114.319 154.638C113.233 154.805 112.254 155.387 111.588 156.262C111.164 156.838 110.842 157.296 110.503 157.797C110.164 158.297 109.858 158.797 109.536 159.298C108.917 160.298 108.315 161.307 107.738 162.333C106.591 164.38 105.552 166.486 104.626 168.643C104.151 169.711 103.778 170.805 103.295 171.899C102.812 172.993 102.489 174.104 102.15 175.24C101.43 177.491 100.839 179.782 100.378 182.1V182.295C100.246 182.914 100.29 183.557 100.505 184.152C101.327 186.327 102.418 188.389 103.753 190.292C105.01 192.098 106.411 193.799 107.942 195.38C109.433 196.903 111.016 198.333 112.682 199.662C114.347 200.99 116.095 202.211 117.914 203.317C118.356 203.576 118.877 203.664 119.379 203.566C119.882 203.468 120.331 203.19 120.643 202.784C120.955 202.378 121.109 201.873 121.075 201.362C121.041 200.852 120.822 200.371 120.458 200.01L120.416 200.002Z" fill="#FF8B7B"/>
<path d="M130.27 204.215L130.16 203.995C129.808 203.26 129.29 202.617 128.646 202.117C128.003 201.616 127.253 201.272 126.454 201.112L120.018 199.806L116.871 201.374C117.211 204.902 122.248 207.014 122.248 207.014L123.681 208.65C124.164 209.199 124.833 209.55 125.559 209.636C126.285 209.722 127.017 209.537 127.616 209.117L129.312 207.904C129.882 207.502 130.291 206.91 130.466 206.235C130.641 205.56 130.572 204.844 130.27 204.215Z" fill="#FF8B7B"/>
<path d="M114.641 151.496C111.071 153.132 107.272 158.797 107.272 158.797L114.904 173.086C114.904 173.086 123.579 163.088 122.85 158.085C122.256 153.836 119.186 149.41 114.641 151.496Z" fill="#1769E9"/>
<g opacity="0.3">
<path d="M114.641 151.496C111.071 153.132 107.272 158.797 107.272 158.797L114.904 173.086C114.904 173.086 123.579 163.088 122.85 158.085C122.256 153.836 119.186 149.41 114.641 151.496Z" fill="white"/>
</g>
<path d="M358.95 338.716C351.479 338.716 344.136 337.181 340.574 332.534C323.716 310.486 323.868 266.136 324.013 223.219C324.097 200.111 325.921 178.275 323.351 161.315C321.842 151.317 316.567 144.457 311.242 140.912C303.338 135.688 292.484 138.495 287.845 139.691C287.268 139.852 286.663 139.897 286.068 139.822C285.473 139.747 284.899 139.554 284.379 139.255C283.859 138.955 283.404 138.555 283.041 138.077C282.678 137.6 282.413 137.055 282.263 136.474C282.113 135.893 282.081 135.288 282.167 134.694C282.254 134.101 282.458 133.53 282.768 133.017C283.078 132.503 283.487 132.056 283.971 131.702C284.456 131.348 285.006 131.095 285.59 130.956C291.382 129.455 304.967 125.953 316.211 133.382C323.801 138.393 330.364 147.34 332.272 159.966C334.943 177.605 333.12 199.763 333.035 223.219C332.891 264.627 332.747 307.442 347.74 327.022C348.952 328.6 353.676 330.016 361.52 329.609C362.215 329.609 362.893 329.533 363.563 329.473C363.26 328.859 363.103 328.182 363.105 327.497C363.105 326.301 363.581 325.153 364.427 324.307C365.273 323.461 366.42 322.986 367.617 322.986C377.479 322.986 382.669 323.834 383.669 328.345C383.958 329.643 384.11 332.899 379.345 335.129C375.783 336.8 367.286 338.716 358.95 338.716Z" fill="#1769E9"/>
<path d="M260.226 342.609L251.025 338.988L255.876 323.037L265.085 326.65L260.226 342.609Z" fill="#FFC3BD"/>
<path d="M250.805 338.013L261.184 342.083C261.316 342.137 261.425 342.232 261.496 342.355C261.567 342.478 261.594 342.621 261.574 342.762L260.557 349.223C260.53 349.38 260.469 349.528 260.378 349.657C260.286 349.787 260.167 349.894 260.029 349.971C259.89 350.049 259.737 350.094 259.578 350.104C259.42 350.114 259.262 350.088 259.115 350.029C256.512 348.952 252.433 347.171 249.134 345.874C247.107 345.077 243.249 343.805 240.442 342.702C237.635 341.6 238.365 338.683 239.594 338.886C245.182 339.785 247.319 338.827 249.55 337.996C249.955 337.841 250.404 337.847 250.805 338.013Z" fill="#263238"/>
<path opacity="0.2" d="M265.085 326.658L255.876 323.037L253.374 331.263L262.583 334.884L265.085 326.658Z" fill="black"/>
<path d="M276.592 203.189C276.592 203.189 268.265 244.351 265.085 264.652C261.506 287.404 252.051 328.965 252.051 328.965L264.288 333.773C264.288 333.773 281.765 291.22 284.199 270.614C291.534 253.866 306.12 204.58 306.12 204.58L276.592 203.189Z" fill="#1769E9"/>
<path d="M251.458 329.032L264.89 334.315L267.188 330.245L252.17 324.021L251.458 329.032Z" fill="#263238"/>
<path d="M248.167 338.191C247.699 338.045 247.293 337.747 247.014 337.343C246.937 337.194 246.896 337.028 246.896 336.86C246.896 336.691 246.937 336.526 247.014 336.376C247.049 336.284 247.108 336.204 247.186 336.144C247.264 336.084 247.357 336.047 247.455 336.037C248.346 335.944 249.999 338.115 250.16 338.369C250.178 338.397 250.188 338.429 250.188 338.462C250.188 338.496 250.178 338.528 250.16 338.556C250.142 338.584 250.117 338.606 250.087 338.619C250.057 338.633 250.023 338.637 249.991 338.632C249.369 338.552 248.757 338.404 248.167 338.191ZM247.718 336.419C247.65 336.385 247.573 336.37 247.498 336.376C247.447 336.376 247.387 336.376 247.328 336.52C247.271 336.622 247.242 336.735 247.242 336.851C247.242 336.967 247.271 337.081 247.328 337.182C247.574 337.631 248.422 338.03 249.651 338.233C249.135 337.505 248.478 336.888 247.718 336.419Z" fill="#1769E9"/>
<path d="M249.974 338.623C249.946 338.614 249.922 338.596 249.906 338.573C249.363 337.928 248.6 335.935 249.058 335.248C249.128 335.142 249.233 335.063 249.355 335.024C249.477 334.986 249.609 334.99 249.728 335.036C249.854 335.068 249.972 335.127 250.074 335.207C250.176 335.287 250.26 335.388 250.321 335.503C250.847 336.444 250.253 338.428 250.228 338.513C250.218 338.543 250.2 338.57 250.176 338.591C250.152 338.612 250.124 338.626 250.092 338.632C250.074 338.641 250.053 338.645 250.032 338.644C250.011 338.642 249.991 338.635 249.974 338.623ZM249.685 335.384H249.617C249.397 335.333 249.346 335.384 249.321 335.46C249.066 335.867 249.482 337.309 249.965 338.098C250.207 337.313 250.207 336.474 249.965 335.689C249.912 335.557 249.812 335.449 249.685 335.384Z" fill="#1769E9"/>
<path opacity="0.2" d="M294.545 228.112C289.931 233.828 288.108 248.396 288.125 260.54C291.237 251.967 294.807 241.078 297.945 231.191L294.545 228.112Z" fill="black"/>
<path d="M315.6 344.143H305.713L304.398 327.522H314.286L315.6 344.143Z" fill="#FFC3BD"/>
<path d="M305.153 343.313H316.304C316.447 343.311 316.586 343.36 316.697 343.449C316.809 343.539 316.885 343.664 316.915 343.804L318.331 350.181C318.364 350.337 318.362 350.498 318.324 350.653C318.286 350.807 318.214 350.952 318.113 351.075C318.012 351.198 317.885 351.296 317.741 351.363C317.596 351.43 317.439 351.464 317.279 351.462C314.464 351.411 310.029 351.241 306.484 351.241C304.297 351.241 300.243 351.47 297.233 351.47C294.222 351.47 293.841 348.494 295.053 348.222C300.591 347.01 302.236 345.348 304 343.753C304.318 343.471 304.728 343.314 305.153 343.313Z" fill="#263238"/>
<path opacity="0.2" d="M314.286 327.522H304.39L305.077 336.096H314.973L314.286 327.522Z" fill="black"/>
<path d="M288.566 203.706C288.566 203.706 294.044 249.574 295.198 266.085C296.8 289.066 302.999 334.434 302.999 334.434H316.143C316.143 334.434 317.551 288.099 315.176 267.484C318.45 249.498 317.415 205.088 317.415 205.088L288.566 203.706Z" fill="#1769E9"/>
<path d="M302.473 334.714H316.906L317.559 330.092L301.303 329.787L302.473 334.714Z" fill="#263238"/>
<path d="M302.736 344.441C302.248 344.477 301.761 344.349 301.354 344.076C301.228 343.965 301.129 343.826 301.067 343.67C301.006 343.513 300.982 343.345 300.998 343.177C300.998 343.077 301.026 342.979 301.078 342.894C301.13 342.808 301.205 342.739 301.295 342.694C302.092 342.287 304.407 343.712 304.687 343.873C304.716 343.889 304.74 343.914 304.755 343.944C304.77 343.975 304.776 344.009 304.771 344.042C304.764 344.076 304.747 344.107 304.723 344.133C304.699 344.158 304.669 344.177 304.636 344.186C304.014 344.343 303.377 344.428 302.736 344.441ZM301.668 342.957C301.592 342.952 301.516 342.967 301.447 342.999C301.405 342.999 301.354 343.067 301.345 343.194C301.328 343.308 301.34 343.425 301.38 343.533C301.42 343.642 301.487 343.738 301.574 343.813C301.965 344.144 302.906 344.186 304.118 343.94C303.381 343.46 302.557 343.126 301.693 342.957H301.668Z" fill="#1769E9"/>
<path d="M304.602 344.186H304.517C303.779 343.779 302.338 342.211 302.49 341.405C302.516 341.28 302.584 341.168 302.683 341.087C302.782 341.007 302.906 340.963 303.033 340.964C303.161 340.946 303.292 340.955 303.416 340.992C303.541 341.029 303.656 341.091 303.754 341.176C304.602 341.863 304.763 343.932 304.771 344.017C304.773 344.048 304.767 344.079 304.754 344.107C304.74 344.135 304.72 344.16 304.695 344.178C304.665 344.188 304.633 344.191 304.602 344.186ZM303.152 341.278H303.075C302.855 341.278 302.838 341.414 302.83 341.456C302.736 341.922 303.678 343.152 304.39 343.678C304.338 342.858 304.043 342.073 303.542 341.422C303.432 341.332 303.294 341.281 303.152 341.278Z" fill="#1769E9"/>
<path d="M293.103 140.454L285.183 140.352C282.52 140.352 279.874 140.267 277.254 140.225C276.457 140.225 275.677 140.174 274.888 140.14C274.939 140.14 274.973 140.047 275.015 140.004C275.575 139.411 276.135 138.8 276.711 138.215C276.999 137.91 277.282 137.613 277.559 137.325C277.822 137.036 278.161 136.714 278.339 136.477L279.06 135.561C279.628 134.836 279.954 133.951 279.991 133.031C280.027 132.11 279.773 131.202 279.265 130.434C278.756 129.667 278.018 129.079 277.157 128.754C276.295 128.429 275.353 128.383 274.464 128.624L272.895 129.048C272.412 129.192 271.928 129.353 271.445 129.514C270.495 129.845 269.563 130.21 268.638 130.608C266.776 131.431 264.976 132.389 263.253 133.475C261.469 134.615 259.782 135.9 258.208 137.316C256.542 138.831 255.033 140.51 253.705 142.328C253.37 142.781 253.085 143.271 252.857 143.786C252.069 145.591 252.031 147.635 252.749 149.468C253.468 151.302 254.885 152.775 256.69 153.564L257.462 153.903C259.204 154.653 261.009 155.249 262.855 155.684C264.466 156.099 265.992 156.371 267.493 156.625C268.994 156.879 270.461 157.083 271.92 157.261C273.379 157.439 274.82 157.575 276.262 157.694C279.136 157.948 281.986 158.075 284.827 158.16C287.667 158.245 290.449 158.245 293.4 158.109C295.701 158.011 297.873 157.018 299.453 155.342C301.032 153.666 301.896 151.44 301.858 149.137C301.82 146.834 300.885 144.637 299.251 143.013C297.618 141.39 295.415 140.468 293.111 140.445L293.103 140.454Z" fill="#FFC3BD"/>
<path d="M297.716 155.93C290.873 163.732 274.405 160.815 274.405 160.815L275.312 141.379C280.957 140.136 286.713 139.469 292.492 139.386C302.16 139.369 303.194 149.672 297.716 155.93Z" fill="#263238"/>
<path d="M279.45 149.951C279.043 153.089 278.602 157.312 278.339 162.993C274.769 181.056 273.438 193.852 276.592 203.189C279.086 206.267 311.572 205.673 317.415 205.08C320.807 196.684 321.163 172.584 321.562 152.326C321.612 149.534 320.66 146.817 318.879 144.667C317.097 142.517 314.604 141.076 311.852 140.606C304.542 139.31 297.084 139.059 289.702 139.86C287.112 140.155 284.694 141.309 282.836 143.138C280.978 144.967 279.786 147.366 279.45 149.951Z" fill="#263238"/>
<path opacity="0.2" d="M310.97 162.281C311.081 168.455 315.558 178.317 320.595 183.32C320.9 178.105 321.095 172.449 321.248 166.742L310.97 162.281Z" fill="black"/>
<path d="M339.277 174.281L338.988 173.602C337.803 170.774 336.417 168.033 334.842 165.402C333.332 162.858 331.704 160.458 330.016 158.143C328.329 155.828 326.54 153.615 324.708 151.461C323.775 150.392 322.851 149.324 321.876 148.289L320.409 146.746L318.848 145.169C317.214 143.555 315.015 142.641 312.718 142.62C310.422 142.6 308.207 143.475 306.544 145.059C304.881 146.644 303.901 148.814 303.811 151.109C303.72 153.404 304.527 155.644 306.06 157.354L306.315 157.634L311.293 163.172C312.989 165.054 314.608 166.971 316.219 168.879C317 169.837 317.805 170.795 318.535 171.77C319.264 172.746 320.035 173.687 320.765 174.654C321.816 176.121 322.834 177.579 323.741 179.012C323.602 179.736 323.427 180.452 323.215 181.158C322.606 183.212 321.89 185.233 321.07 187.213C320.222 189.307 319.323 191.453 318.39 193.564C317.458 195.676 316.457 197.88 315.567 200L315.482 200.187C315.091 201.124 315.032 202.166 315.314 203.142C315.595 204.117 316.202 204.967 317.032 205.551C317.862 206.136 318.867 206.419 319.881 206.355C320.894 206.291 321.855 205.883 322.605 205.199C324.475 203.465 326.25 201.63 327.922 199.704C329.618 197.798 331.209 195.791 332.696 193.683C333.451 192.623 334.172 191.52 334.884 190.376C335.624 189.212 336.3 188.009 336.911 186.772C337.597 185.422 338.192 184.029 338.691 182.599C339.342 180.769 339.708 178.85 339.777 176.909C339.799 176.007 339.628 175.111 339.277 174.281Z" fill="#FFC3BD"/>
<path d="M312.429 140.717C323.868 142.676 331.322 158.161 331.322 158.161L317.534 172.992C317.534 172.992 309.588 164.902 304.814 157.406C299.667 149.248 304.237 139.327 312.429 140.717Z" fill="#263238"/>
<path d="M291.534 116.303C289.618 113.089 288.99 108.671 292.501 104.168C291.817 104.254 291.123 104.139 290.503 103.838C289.882 103.537 289.363 103.063 289.007 102.472C292.851 99.327 297.685 97.6447 302.652 97.7233C312.912 97.7233 313.676 101.684 313.328 104.389C320.349 104.838 325.471 123.096 307.672 126.326C297.487 115.599 291.534 116.303 291.534 116.303Z" fill="#263238"/>
<path d="M312.683 104.719C312.683 104.719 315.541 101.802 311.988 98.2744C312.784 98.4928 313.511 98.9138 314.096 99.4964C314.682 100.079 315.107 100.803 315.329 101.599C315.829 103.651 314.447 105.296 312.683 104.719Z" fill="#263238"/>
<path d="M308.749 124.096C308.477 129.718 307.968 136.112 308.91 140.598C307.451 142.896 303.72 145.542 297.038 146.135C294.663 144.787 291.526 141.488 292.62 139.792C295.46 137.969 296.665 132.449 295.85 128.319L308.749 124.096Z" fill="#FFC3BD"/>
<path opacity="0.2" d="M305.492 125.156L295.833 128.319C296.162 130.078 296.176 131.881 295.876 133.645C298.759 133.551 302.753 131.381 304.254 129.345C304.743 128.773 305.106 128.104 305.319 127.383C305.533 126.661 305.592 125.902 305.492 125.156Z" fill="black"/>
<path d="M311.564 115.192C309.775 122.086 309.079 126.216 304.856 129.107C298.505 133.458 290.517 128.582 290.203 121.297C289.931 114.734 292.899 104.558 300.277 103.108C301.901 102.782 303.582 102.877 305.16 103.384C306.737 103.89 308.159 104.792 309.29 106.003C310.421 107.213 311.223 108.693 311.621 110.302C312.019 111.91 312 113.593 311.564 115.192Z" fill="#FFC3BD"/>
<path d="M310.139 105.321C307.112 107.475 303.355 116.6 310.987 120.263C317.839 114.242 316.067 105.321 310.139 105.321Z" fill="#263238"/>
<path d="M311.886 106.415C313.184 100.412 298.03 97.3079 293.23 104.321C291.602 108.544 310.97 112.275 311.886 106.415Z" fill="#263238"/>
<path d="M300.582 122.511C299.008 121.799 297.32 121.371 295.596 121.247C295.572 121.247 295.548 121.252 295.526 121.261C295.504 121.271 295.484 121.285 295.467 121.302C295.45 121.32 295.438 121.34 295.429 121.363C295.421 121.385 295.417 121.41 295.418 121.434C295.428 121.488 295.455 121.538 295.497 121.575C295.539 121.612 295.591 121.634 295.647 121.637C297.299 121.757 298.918 122.164 300.43 122.841C300.477 122.862 300.531 122.864 300.58 122.847C300.629 122.829 300.669 122.794 300.693 122.748C300.702 122.725 300.707 122.701 300.706 122.676C300.705 122.652 300.7 122.627 300.69 122.605C300.679 122.583 300.664 122.563 300.646 122.547C300.627 122.53 300.606 122.518 300.582 122.511Z" fill="#263238"/>
<path d="M313.218 122.731C311.989 124.036 310.294 124.801 308.503 124.86C306.128 124.911 305.526 122.647 306.671 120.713C307.706 119.017 310.182 116.846 312.336 117.711C314.49 118.576 314.71 121.112 313.218 122.731Z" fill="#FFC3BD"/>
<path d="M300.599 115.073C300.489 115.641 300.099 116.048 299.751 115.972C299.404 115.896 299.175 115.379 299.285 114.81C299.395 114.242 299.785 113.844 300.133 113.962C300.481 114.081 300.71 114.48 300.599 115.073Z" fill="#263238"/>
<path d="M294.18 113.827C294.07 114.395 293.68 114.794 293.332 114.726C292.984 114.658 292.747 114.132 292.857 113.564C292.967 112.996 293.357 112.589 293.705 112.665C294.053 112.742 294.256 113.259 294.18 113.827Z" fill="#263238"/>
<path d="M296.164 114.479C295.147 116.084 293.914 117.542 292.501 118.813C293.349 119.941 295.223 119.72 295.223 119.72L296.164 114.479Z" fill="#ED847E"/>
<path d="M299.675 111.775C299.736 111.762 299.798 111.764 299.858 111.782C299.917 111.8 299.971 111.832 300.014 111.877C300.287 112.206 300.633 112.466 301.025 112.635C301.417 112.805 301.844 112.879 302.27 112.852C302.36 112.84 302.451 112.863 302.524 112.917C302.596 112.971 302.645 113.051 302.66 113.14C302.667 113.184 302.665 113.23 302.655 113.273C302.644 113.316 302.624 113.357 302.597 113.393C302.57 113.428 302.537 113.458 302.498 113.48C302.459 113.503 302.416 113.517 302.372 113.522C301.833 113.565 301.292 113.479 300.794 113.271C300.295 113.063 299.853 112.739 299.505 112.326C299.474 112.295 299.448 112.259 299.431 112.218C299.414 112.177 299.405 112.133 299.405 112.089C299.405 112.045 299.414 112.001 299.431 111.96C299.448 111.919 299.474 111.882 299.505 111.851C299.556 111.814 299.614 111.788 299.675 111.775Z" fill="#263238"/>
<path d="M292.196 109.892C292.125 109.878 292.062 109.839 292.018 109.782C291.989 109.747 291.968 109.706 291.955 109.662C291.943 109.619 291.939 109.573 291.945 109.528C291.95 109.483 291.965 109.439 291.988 109.4C292.01 109.36 292.041 109.326 292.077 109.299C292.493 108.957 292.985 108.72 293.512 108.607C294.038 108.493 294.584 108.506 295.104 108.646C295.19 108.675 295.261 108.736 295.302 108.817C295.344 108.898 295.352 108.992 295.325 109.078C295.291 109.16 295.228 109.227 295.148 109.266C295.069 109.305 294.978 109.313 294.892 109.29C294.478 109.184 294.044 109.179 293.627 109.273C293.21 109.367 292.821 109.559 292.492 109.833C292.453 109.869 292.404 109.893 292.352 109.903C292.3 109.914 292.246 109.91 292.196 109.892Z" fill="#263238"/>
<path d="M319.569 199.755L312.285 199.704L316.05 208.065C316.05 208.065 322.266 206.734 321.927 203.359L319.569 199.755Z" fill="#FFC3BD"/>
<path d="M308.579 205.445L309.775 207.803C310.096 208.43 310.64 208.915 311.3 209.163C311.961 209.411 312.69 209.404 313.345 209.142L316.05 208.065L312.285 199.704L309.393 201.909C308.864 202.309 308.492 202.882 308.343 203.529C308.194 204.176 308.278 204.854 308.579 205.445Z" fill="#FFC3BD"/>
<path d="M264.118 193.599C263.238 193.589 262.38 193.324 261.649 192.834C260.918 192.344 260.346 191.651 260.003 190.841C259.66 190.031 259.561 189.138 259.718 188.272C259.875 187.406 260.281 186.605 260.887 185.967C264.127 182.625 267.052 180.031 269.63 177.766C275.855 172.28 278 170.134 277.797 166.022C277.492 163.484 276.953 160.98 276.185 158.542C274.328 151.716 272.225 143.991 275.829 137.792C277.763 134.459 281.044 132.178 285.59 131.008C286.739 130.735 287.949 130.924 288.961 131.534C289.972 132.143 290.704 133.125 291 134.269C291.295 135.413 291.13 136.626 290.54 137.65C289.95 138.673 288.983 139.424 287.845 139.742C284.648 140.59 283.877 141.888 283.605 142.328C281.909 145.254 283.546 151.309 284.869 156.168C285.827 159.232 286.469 162.386 286.785 165.581C287.209 174.273 282.079 178.801 275.575 184.533C273.124 186.704 270.334 189.164 267.332 192.25C266.914 192.678 266.414 193.018 265.862 193.249C265.31 193.481 264.717 193.6 264.118 193.599Z" fill="#1769E9"/>
<path d="M274.015 128.811L281.07 127.005L279.425 136.028C279.425 136.028 273.073 136.223 272.598 132.873L274.015 128.811Z" fill="#FFC3BD"/>
<path d="M286.022 131.788L285.48 134.145C285.313 134.865 284.883 135.497 284.274 135.916C283.665 136.335 282.921 136.511 282.189 136.409L279.425 136.028L281.07 127.005L284.309 128.404C284.946 128.678 285.466 129.167 285.779 129.785C286.092 130.404 286.178 131.112 286.022 131.788Z" fill="#FFC3BD"/>
<path d="M261.596 178.76L261.404 178.568C260.546 177.711 259.156 177.711 258.298 178.569L233.292 203.584C232.434 204.442 232.435 205.832 233.293 206.69L233.484 206.882C234.342 207.739 235.733 207.739 236.591 206.881L261.597 181.866C262.454 181.008 262.454 179.618 261.596 178.76Z" fill="#263238"/>
<path d="M274.629 191.776L274.437 191.584C273.579 190.727 272.189 190.727 271.331 191.584L246.32 216.595C245.463 217.452 245.463 218.843 246.32 219.701L246.512 219.893C247.37 220.75 248.761 220.75 249.618 219.893L274.629 194.882C275.487 194.025 275.487 192.634 274.629 191.776Z" fill="#263238"/>
<path d="M241.182 188.072L258.805 170.449C259.37 169.885 260.04 169.437 260.777 169.131C261.515 168.826 262.306 168.668 263.104 168.668C263.903 168.668 264.693 168.826 265.431 169.131C266.169 169.437 266.839 169.885 267.404 170.449L282.808 185.854C283.373 186.418 283.82 187.089 284.126 187.826C284.432 188.564 284.589 189.355 284.589 190.153C284.589 190.951 284.432 191.742 284.126 192.48C283.82 193.217 283.373 193.888 282.808 194.452L265.185 212.075L241.182 188.072Z" fill="#1769E9"/>
<path opacity="0.7" d="M241.182 188.072L258.805 170.449C259.37 169.885 260.04 169.437 260.777 169.131C261.515 168.826 262.306 168.668 263.104 168.668C263.903 168.668 264.693 168.826 265.431 169.131C266.169 169.437 266.839 169.885 267.404 170.449L282.808 185.854C283.373 186.418 283.82 187.089 284.126 187.826C284.432 188.564 284.589 189.355 284.589 190.153C284.589 190.951 284.432 191.742 284.126 192.48C283.82 193.217 283.373 193.888 282.808 194.452L265.185 212.075L241.182 188.072Z" fill="white"/>
<path opacity="0.2" d="M247.26 181.946L241.155 188.043L265.161 212.05L271.259 205.945C271.016 205.235 270.613 204.59 270.08 204.062L249.143 183.167C248.619 182.619 247.974 182.201 247.26 181.946Z" fill="#1769E9"/>
<path d="M240.125 184.969L239.687 185.406C237.826 187.268 237.826 190.285 239.687 192.146L261.064 213.523C262.925 215.384 265.943 215.384 267.804 213.523L268.242 213.085C270.103 211.224 270.103 208.207 268.242 206.345L246.865 184.969C245.004 183.108 241.986 183.108 240.125 184.969Z" fill="#1769E9"/>
<path d="M306.569 32.1904H117.431C113.488 32.1904 110.291 35.3872 110.291 39.3306V73.8272C110.291 77.7706 113.488 80.9674 117.431 80.9674H306.569C310.512 80.9674 313.709 77.7706 313.709 73.8272V39.3306C313.709 35.3872 310.512 32.1904 306.569 32.1904Z" fill="white"/>
<path d="M306.569 81.5945H117.465C115.406 81.5923 113.431 80.7732 111.975 79.3169C110.519 77.8607 109.7 75.8862 109.697 73.8268V39.3302C109.7 37.2708 110.519 35.2963 111.975 33.8401C113.431 32.3838 115.406 31.5647 117.465 31.5625H306.569C308.628 31.5647 310.603 32.3838 312.059 33.8401C313.515 35.2963 314.334 37.2708 314.337 39.3302V73.8268C314.334 75.8862 313.515 77.8607 312.059 79.3169C310.603 80.7732 308.628 81.5923 306.569 81.5945ZM117.465 32.8175C115.738 32.8198 114.083 33.5067 112.862 34.7275C111.641 35.9484 110.955 37.6036 110.952 39.3302V73.8268C110.955 75.5534 111.641 77.2086 112.862 78.4295C114.083 79.6503 115.738 80.3372 117.465 80.3395H306.569C308.295 80.3372 309.951 79.6503 311.172 78.4295C312.392 77.2086 313.079 75.5534 313.082 73.8268V39.3302C313.079 37.6036 312.392 35.9484 311.172 34.7275C309.951 33.5067 308.295 32.8198 306.569 32.8175H117.465Z" fill="#263238"/>
<path d="M212 106.025C220.683 106.025 227.722 98.986 227.722 90.303C227.722 81.62 220.683 74.5811 212 74.5811C203.317 74.5811 196.278 81.62 196.278 90.303C196.278 98.986 203.317 106.025 212 106.025Z" fill="#263238"/>
<path d="M212 103.685C219.39 103.685 225.381 97.6937 225.381 90.3033C225.381 82.9129 219.39 76.9219 212 76.9219C204.61 76.9219 198.619 82.9129 198.619 90.3033C198.619 97.6937 204.61 103.685 212 103.685Z" fill="white"/>
<path d="M221.048 87.4205H214.773L220.039 71.8428L202.952 93.1869H209.227L203.961 108.765L221.048 87.4205Z" fill="#1769E9"/>
<path d="M221.585 101.754L223.456 99.8828L202.415 78.8419L200.544 80.7127L221.585 101.754Z" fill="#263238"/>
<path opacity="0.3" d="M165.273 63.709V54.167C165.273 53.647 165.291 53.0317 165.325 52.321C165.377 51.6103 165.412 50.995 165.429 50.475H165.325C165.117 50.9257 164.901 51.385 164.675 51.853C164.45 52.3037 164.216 52.7717 163.973 53.257L161.789 56.845H170.733V59.757H158.123V57.131L164.155 47.199H168.835V63.709H165.273ZM178.23 64.021C176.462 64.021 175.032 63.2843 173.94 61.811C172.865 60.3377 172.328 58.197 172.328 55.389C172.328 52.5637 172.865 50.4403 173.94 49.019C175.032 47.5977 176.462 46.887 178.23 46.887C179.998 46.887 181.419 47.6063 182.494 49.045C183.586 50.4663 184.132 52.581 184.132 55.389C184.132 58.197 183.586 60.3377 182.494 61.811C181.419 63.2843 179.998 64.021 178.23 64.021ZM178.23 61.057C178.663 61.057 179.053 60.901 179.4 60.589C179.746 60.2597 180.015 59.6877 180.206 58.873C180.414 58.041 180.518 56.8797 180.518 55.389C180.518 53.881 180.414 52.7283 180.206 51.931C180.015 51.1337 179.746 50.5877 179.4 50.293C179.053 49.9983 178.663 49.851 178.23 49.851C177.796 49.851 177.406 49.9983 177.06 50.293C176.713 50.5877 176.436 51.1337 176.228 51.931C176.037 52.7283 175.942 53.881 175.942 55.389C175.942 56.8797 176.037 58.041 176.228 58.873C176.436 59.6877 176.713 60.2597 177.06 60.589C177.406 60.901 177.796 61.057 178.23 61.057ZM192.746 63.709V54.167C192.746 53.647 192.763 53.0317 192.798 52.321C192.85 51.6103 192.885 50.995 192.902 50.475H192.798C192.59 50.9257 192.373 51.385 192.148 51.853C191.923 52.3037 191.689 52.7717 191.446 53.257L189.262 56.845H198.206V59.757H185.596V57.131L191.628 47.199H196.308V63.709H192.746ZM206.045 63.709V46.757H216.653V49.981H209.867V53.387H215.639V56.585H209.867V60.485H216.913V63.709H206.045ZM219.978 63.709V50.813H223.098L223.358 53.075H223.462C223.93 52.2083 224.484 51.567 225.126 51.151C225.784 50.7177 226.452 50.501 227.128 50.501C227.492 50.501 227.795 50.527 228.038 50.579C228.28 50.6137 228.488 50.6743 228.662 50.761L227.934 54.011C227.726 53.959 227.526 53.9243 227.336 53.907C227.145 53.8723 226.911 53.855 226.634 53.855C226.148 53.855 225.637 54.0283 225.1 54.375C224.58 54.7217 224.146 55.337 223.8 56.221V63.709H219.978ZM230.337 63.709V50.813H233.457L233.717 53.075H233.821C234.289 52.2083 234.844 51.567 235.485 51.151C236.144 50.7177 236.811 50.501 237.487 50.501C237.851 50.501 238.154 50.527 238.397 50.579C238.64 50.6137 238.848 50.6743 239.021 50.761L238.293 54.011C238.085 53.959 237.886 53.9243 237.695 53.907C237.504 53.8723 237.27 53.855 236.993 53.855C236.508 53.855 235.996 54.0283 235.459 54.375C234.939 54.7217 234.506 55.337 234.159 56.221V63.709H230.337ZM245.98 64.021C244.888 64.021 243.866 63.761 242.912 63.241C241.959 62.7037 241.179 61.9323 240.572 60.927C239.983 59.9043 239.688 58.6823 239.688 57.261C239.688 55.8397 239.983 54.6263 240.572 53.621C241.179 52.5983 241.959 51.827 242.912 51.307C243.866 50.7697 244.888 50.501 245.98 50.501C247.055 50.501 248.069 50.7697 249.022 51.307C249.976 51.827 250.747 52.5983 251.336 53.621C251.943 54.6263 252.246 55.8397 252.246 57.261C252.246 58.6823 251.943 59.9043 251.336 60.927C250.747 61.9323 249.976 62.7037 249.022 63.241C248.069 63.761 247.055 64.021 245.98 64.021ZM245.98 60.927C246.5 60.927 246.934 60.7797 247.28 60.485C247.644 60.1903 247.913 59.7657 248.086 59.211C248.26 58.6563 248.346 58.0063 248.346 57.261C248.346 56.5157 248.26 55.8657 248.086 55.311C247.913 54.7563 247.644 54.3317 247.28 54.037C246.934 53.7423 246.5 53.595 245.98 53.595C245.443 53.595 245.001 53.7423 244.654 54.037C244.308 54.3317 244.048 54.7563 243.874 55.311C243.701 55.8657 243.614 56.5157 243.614 57.261C243.614 58.0063 243.701 58.6563 243.874 59.211C244.048 59.7657 244.308 60.1903 244.654 60.485C245.001 60.7797 245.443 60.927 245.98 60.927ZM254.864 63.709V50.813H257.984L258.244 53.075H258.348C258.816 52.2083 259.371 51.567 260.012 51.151C260.671 50.7177 261.338 50.501 262.014 50.501C262.378 50.501 262.682 50.527 262.924 50.579C263.167 50.6137 263.375 50.6743 263.548 50.761L262.82 54.011C262.612 53.959 262.413 53.9243 262.222 53.907C262.032 53.8723 261.798 53.855 261.52 53.855C261.035 53.855 260.524 54.0283 259.986 54.375C259.466 54.7217 259.033 55.337 258.686 56.221V63.709H254.864Z" fill="black"/>
</svg>
