<svg width="300" height="340" viewBox="0 0 300 340" fill="none" xmlns="http://www.w3.org/2000/svg">
<path d="M46.3059 104.971C45.3827 107.064 44.3651 109.326 43.4734 111.535C42.5816 113.744 41.6585 116.015 40.8507 118.277C39.1932 122.685 37.8643 127.21 36.8746 131.813L36.5704 133.488L36.4655 134.116C36.4655 134.294 36.4655 134.525 36.4025 134.734C36.3627 135.753 36.3837 136.774 36.4655 137.791C36.6648 140 37.0215 142.366 37.5146 144.732C38.3958 149.475 39.5183 154.364 40.6618 159.179L35.28 161.273C32.7713 156.71 30.6348 151.952 28.8911 147.046C27.9725 144.492 27.2294 141.88 26.6671 139.225C26.352 137.757 26.1555 136.265 26.0796 134.766V133.499C26.0796 133.049 26.0796 132.546 26.153 132.253L26.3628 130.159C26.6763 127.463 27.1563 124.788 27.8001 122.15C28.3876 119.533 29.1429 116.989 29.8982 114.476C30.6536 111.964 31.5978 109.493 32.5944 107.064C33.0875 105.85 33.6435 104.646 34.126 103.442C34.6086 102.238 35.1751 101.087 35.8465 99.7988L46.3059 104.971Z" fill="#E4897B"/>
<path d="M40.3788 157.767L44.4702 161.755L35.5425 165.943C35.5425 165.943 33.3814 162.164 34.8816 158.751L40.3788 157.767Z" fill="#E4897B"/>
<path d="M47.7748 167.691L40.2319 170.769L35.553 165.901L44.4702 161.755L47.7748 167.691Z" fill="#E4897B"/>
<path opacity="0.4" d="M200.573 163.398C185.73 161.735 171.714 155.718 160.297 146.106C148.88 136.495 140.575 123.721 136.432 109.4C132.288 95.0796 132.493 79.8542 137.019 65.6493C141.546 51.4444 150.191 38.8976 161.862 29.595C173.533 20.2925 187.706 14.652 202.588 13.3865C217.471 12.1209 232.396 15.2873 245.476 22.4852C258.556 29.683 269.204 40.5893 276.073 53.8253C282.943 67.0612 285.725 82.0325 284.07 96.8465C282.97 106.689 279.937 116.218 275.145 124.891C270.353 133.563 263.895 141.208 256.141 147.388C248.387 153.569 239.488 158.164 229.954 160.911C220.419 163.658 210.435 164.503 200.573 163.398Z" fill="#FAFAFA"/>
<path opacity="0.4" d="M255.524 29.1013L140.65 120.695C140.167 119.648 139.695 118.602 139.255 117.555C136.375 110.719 134.532 103.492 133.789 96.1139L233.011 16.999C241.157 19.7107 248.773 23.8049 255.524 29.1013Z" fill="#FAFAFA"/>
<path opacity="0.4" d="M282.034 69.2287L174.031 155.337C163.771 149.999 154.88 142.376 148.046 133.059L265.973 39.0254C273.574 47.7325 279.07 58.0661 282.034 69.2287Z" fill="#FAFAFA"/>
<path d="M123.97 59.6813L122.973 59.3463C124.699 54.2635 126.868 49.3417 129.456 44.6372L130.369 45.1397C127.815 49.7916 125.674 54.6573 123.97 59.6813ZM136.705 35.2464L135.856 34.6288C144.477 22.9954 155.761 13.5874 168.765 7.18929L169.237 8.13151C156.38 14.4636 145.226 23.771 136.705 35.2779V35.2464ZM251.674 9.56577C248.246 7.7308 244.699 6.12549 241.058 4.76046L241.435 3.77637C245.113 5.17342 248.694 6.81012 252.157 8.6759L251.674 9.56577Z" fill="#407BFF"/>
<path opacity="0.3" d="M123.97 59.6813L122.973 59.3463C124.699 54.2635 126.868 49.3417 129.456 44.6372L130.369 45.1397C127.815 49.7916 125.674 54.6573 123.97 59.6813ZM136.705 35.2464L135.856 34.6288C144.477 22.9954 155.761 13.5874 168.765 7.18929L169.237 8.13151C156.38 14.4636 145.226 23.771 136.705 35.2779V35.2464ZM251.674 9.56577C248.246 7.7308 244.699 6.12549 241.058 4.76046L241.435 3.77637C245.113 5.17342 248.694 6.81012 252.157 8.6759L251.674 9.56577Z" fill="black"/>
<path d="M287.081 49.9868C277.367 29.8812 260.272 14.2771 239.341 6.40931C218.409 -1.45851 195.247 -0.98661 174.655 7.72719C154.063 16.441 137.621 32.7284 128.737 53.2128C119.853 73.6973 119.209 96.8077 126.938 117.753C119.931 120.203 113.007 122.831 106.125 125.542C96.2004 129.472 86.367 133.575 76.6245 137.854C66.889 142.157 57.1955 146.543 47.5964 151.129C42.7811 153.379 38.0288 155.756 33.2345 158.059C30.7404 159.129 28.4807 160.676 26.5833 162.613C25.5566 163.686 24.6523 164.869 23.8872 166.141C22.9536 167.646 22.2467 169.279 21.789 170.988C20.9996 174.069 21.341 177.33 22.7514 180.182C24.1618 183.033 26.5481 185.287 29.4788 186.535C31.1062 187.216 32.8233 187.66 34.5773 187.854C36.0588 188.022 37.5545 188.022 39.0359 187.854C41.7281 187.528 44.33 186.678 46.6942 185.352C51.4466 182.955 56.2304 180.641 60.9512 178.181C70.393 173.375 79.8347 168.361 89.161 163.273C98.4874 158.185 107.824 152.856 116.93 147.391C123.225 143.591 129.582 139.707 135.814 135.645C147.78 154.496 166.555 168.031 188.248 173.444C209.942 178.857 232.891 175.735 252.34 164.723C271.789 153.711 286.247 135.654 292.719 114.294C299.191 92.9335 297.179 69.9074 287.102 49.9868H287.081ZM239.39 149.998C227.198 156.003 213.495 158.266 200.015 156.501C186.535 154.735 173.881 149.02 163.656 140.078C153.43 131.137 146.09 119.37 142.566 106.266C139.041 93.1621 139.489 79.3094 143.853 66.4594C148.217 53.6095 156.301 42.3394 167.083 34.0743C177.865 25.8092 190.861 20.9202 204.428 20.0255C217.994 19.1307 231.522 22.2705 243.3 29.0477C255.079 35.8249 264.579 45.9353 270.6 58.1003C274.598 66.1792 276.963 74.9651 277.558 83.956C278.153 92.947 276.968 101.967 274.07 110.501C271.172 119.034 266.617 126.915 260.667 133.692C254.716 140.469 247.486 146.01 239.39 149.998Z" fill="#1769E9"/>
<path d="M75.3025 67.586C75.3025 68.2037 75.6277 68.7062 76.0368 68.7062C76.446 68.7062 76.7712 68.2037 76.7712 67.586C76.7712 66.9683 76.446 66.4658 76.0368 66.4658C75.6277 66.4658 75.3025 67.0102 75.3025 67.586Z" fill="#263238"/>
<path d="M75.5962 68.7051C76.3388 70.6011 77.3376 72.387 78.5651 74.0129C78.1407 74.3159 77.6551 74.5225 77.1422 74.6184C76.6293 74.7142 76.1017 74.697 75.5962 74.5678V68.7051Z" fill="#DE5753"/>
<path d="M73.131 64.1412C73.0725 64.1413 73.0147 64.1281 72.962 64.1027C72.9094 64.0773 72.8631 64.0404 72.8268 63.9947C72.7721 63.9148 72.7503 63.8169 72.7659 63.7214C72.7815 63.6259 72.8334 63.5401 72.9107 63.4817C73.3727 63.132 73.9126 62.899 74.4843 62.8023C75.056 62.7057 75.6427 62.7485 76.1943 62.9268C76.2439 62.9403 76.29 62.964 76.3298 62.9964C76.3696 63.0287 76.4021 63.0691 76.4253 63.1148C76.4485 63.1605 76.4619 63.2106 76.4645 63.2617C76.4671 63.3129 76.4589 63.3641 76.4405 63.4119C76.4221 63.4597 76.3938 63.5032 76.3575 63.5394C76.3212 63.5756 76.2777 63.6039 76.2298 63.6223C76.1818 63.6407 76.1306 63.6489 76.0793 63.6463C76.028 63.6437 75.9779 63.6305 75.932 63.6073C75.4939 63.4732 75.0298 63.446 74.5789 63.528C74.128 63.61 73.7034 63.7987 73.3408 64.0784C73.2786 64.1196 73.2056 64.1414 73.131 64.1412Z" fill="#263238"/>
<path d="M54.1111 72.2441C55.1602 77.866 56.3142 88.1781 52.3696 91.9365C52.3696 91.9365 53.9118 97.6421 64.3921 97.6421C75.932 97.6421 69.8893 91.9365 69.8893 91.9365C63.5948 90.4289 63.7731 85.7807 64.8642 81.4046L54.1111 72.2441Z" fill="#E4897B"/>
<path d="M47.6591 94.8983C48.9075 92.9615 46.8093 88.2609 46.8093 88.2609C46.8093 88.2609 65.3571 83.6022 72.942 90.7526C74.5156 92.2287 72.7741 94.4063 72.7741 94.4063L47.6591 94.8983Z" fill="#1769E9"/>
<path opacity="0.1" d="M47.6591 94.8983C48.9075 92.9615 46.8093 88.2609 46.8093 88.2609C46.8093 88.2609 65.3571 83.6022 72.942 90.7526C74.5156 92.2287 72.7741 94.4063 72.7741 94.4063L47.6591 94.8983Z" fill="black"/>
<path d="M16.9734 308.5C15.9978 308.5 14.4347 306.877 13.9731 306.27C13.9532 306.24 13.9426 306.206 13.9426 306.17C13.9426 306.135 13.9532 306.1 13.9731 306.071C13.99 306.042 14.0145 306.017 14.0441 306.001C14.0736 305.984 14.107 305.976 14.1409 305.977C14.2563 305.977 16.8266 306.207 17.5295 307.118C17.6059 307.214 17.6605 307.326 17.6895 307.445C17.7184 307.564 17.7211 307.688 17.6973 307.809C17.6882 307.965 17.6308 308.114 17.5331 308.236C17.4354 308.357 17.3021 308.446 17.1518 308.489L16.9734 308.5ZM14.5396 306.406C15.3054 307.285 16.5328 308.28 17.0574 308.154C17.0574 308.154 17.2672 308.102 17.3301 307.767C17.3439 307.697 17.3417 307.625 17.3235 307.556C17.3053 307.487 17.2717 307.423 17.2252 307.369C16.4481 306.782 15.513 306.439 14.5396 306.385V306.406Z" fill="#407BFF"/>
<path d="M14.6553 306.385C14.4669 306.404 14.2771 306.404 14.0887 306.385C14.0556 306.383 14.0239 306.371 13.9978 306.35C13.9716 306.33 13.9522 306.302 13.9419 306.27C13.9271 306.241 13.9194 306.209 13.9194 306.176C13.9194 306.143 13.9271 306.111 13.9419 306.082C14.0153 306.019 15.5575 304.417 16.7219 304.417C16.8613 304.414 16.9997 304.44 17.1281 304.495C17.2565 304.549 17.3719 304.629 17.4668 304.731C17.5712 304.819 17.6427 304.939 17.6694 305.072C17.6961 305.205 17.6765 305.344 17.6137 305.464C17.3094 306.05 15.7043 306.385 14.6553 306.385ZM14.5189 306.019C15.5679 306.019 17.0891 305.694 17.3409 305.234C17.3409 305.234 17.4143 305.098 17.2465 304.93C17.1854 304.864 17.1106 304.812 17.0272 304.778C16.9439 304.743 16.854 304.727 16.7639 304.731C15.9039 304.928 15.1223 305.377 14.5189 306.019Z" fill="#407BFF"/>
<path d="M86.2026 332.264C85.4075 332.258 84.6142 332.185 83.8317 332.044C83.7928 332.036 83.7578 332.016 83.7329 331.985C83.7079 331.954 83.6946 331.916 83.6953 331.876C83.6894 331.84 83.6942 331.803 83.7092 331.77C83.7241 331.736 83.7484 331.708 83.7792 331.688C83.8946 331.625 86.5803 330.086 87.8706 330.442C87.9903 330.469 88.1032 330.52 88.2024 330.592C88.3016 330.664 88.385 330.756 88.4476 330.861C88.5298 330.977 88.5739 331.116 88.5739 331.259C88.5739 331.401 88.5298 331.54 88.4476 331.656C88.1434 332.128 87.1887 332.264 86.2026 332.264ZM84.4297 331.772C85.8564 331.981 87.8077 331.971 88.1644 331.468C88.2168 331.405 88.2588 331.29 88.1644 331.07C88.0842 330.94 87.9563 330.846 87.8077 330.808C86.9894 330.599 85.3633 331.29 84.4297 331.772Z" fill="#407BFF"/>
<path d="M83.8736 332.055C83.8393 332.065 83.803 332.065 83.7687 332.055C83.7396 332.037 83.7169 332.01 83.7038 331.978C83.6907 331.946 83.6877 331.911 83.6953 331.877C83.7664 330.787 84.1855 329.749 84.8912 328.914C85.0339 328.792 85.2015 328.701 85.3826 328.648C85.5636 328.596 85.7538 328.583 85.9403 328.611C86.4439 328.611 86.5907 328.914 86.6222 329.113C86.7586 329.982 84.9227 331.647 83.989 332.066L83.8736 332.055ZM85.7515 328.914C85.5206 328.913 85.297 328.995 85.122 329.145C84.5288 329.806 84.1614 330.638 84.0729 331.521C85.0171 330.945 86.276 329.647 86.1711 329.124C86.1711 329.124 86.1711 328.946 85.8144 328.914H85.7515Z" fill="#407BFF"/>
<path d="M75.397 331.866H83.1077L83.8736 314.059H76.1628L75.397 331.866Z" fill="#E4897B"/>
<path d="M6.73462 301.297L13.176 305.506L27.4015 293.519L20.9497 289.3L6.73462 301.297Z" fill="#E4897B"/>
<path d="M14.2356 305.108L7.54241 299.632C7.42416 299.535 7.27584 299.482 7.12278 299.482C6.96972 299.482 6.8214 299.535 6.70315 299.632L1.18497 303.956C1.05166 304.062 0.943999 304.197 0.869999 304.35C0.795998 304.503 0.757568 304.671 0.757568 304.841C0.757568 305.011 0.795998 305.179 0.869999 305.332C0.943999 305.485 1.05166 305.62 1.18497 305.725C3.5559 307.599 4.80431 308.395 7.75223 310.803C9.56714 312.279 14.0467 316.802 16.575 318.843C19.1033 320.885 21.4218 318.686 20.5825 317.629C16.8163 312.865 15.3371 308.793 14.907 306.27C14.8326 305.814 14.5939 305.4 14.2356 305.108Z" fill="#263238"/>
<path d="M83.0553 330.978H74.6626C74.5096 330.978 74.3612 331.03 74.2413 331.125C74.1214 331.22 74.037 331.352 74.0017 331.501L72.4805 338.337C72.4423 338.503 72.4424 338.675 72.4807 338.841C72.519 339.006 72.5946 339.161 72.7018 339.293C72.809 339.425 72.9448 339.532 73.0992 339.604C73.2535 339.676 73.4222 339.712 73.5926 339.709C76.6244 339.656 81.0096 339.478 84.8282 339.478C89.2868 339.478 93.1474 339.719 98.3719 339.719C101.519 339.719 102.421 336.526 101.089 336.243C95.0673 334.924 90.1366 334.788 84.9331 331.574C84.3748 331.205 83.7246 330.999 83.0553 330.978Z" fill="#263238"/>
<path d="M37.179 94.2294C30.4964 97.3701 26.6882 118.413 26.6882 118.413L43.0224 124.914C45.4134 119.088 47.346 113.085 48.8029 106.96C51.0479 97.2654 44.0191 90.984 37.179 94.2294Z" fill="#263238"/>
<path d="M45.8445 106.091C41.8055 110.174 39.9592 118.172 39.1514 123.375L43.0644 124.935C45.3874 119.275 47.2811 113.448 48.7295 107.504C48.3833 105.285 47.523 104.395 45.8445 106.091Z" fill="#203048"/>
<path d="M81.7439 94.0828C81.7439 94.0828 89.9477 103.337 82.2055 160.561H40.9871C40.7039 154.28 44.6799 123.449 38.5742 93.6954C43.1294 92.814 47.7379 92.2335 52.3696 91.9575C58.2044 91.6118 64.0546 91.6118 69.8893 91.9575C73.8899 92.3593 77.8533 93.0699 81.7439 94.0828Z" fill="#263238"/>
<path d="M85.5101 116.298L78.5652 104.353C77.2246 109.926 76.6772 115.66 76.9392 121.386C77.128 125.49 80.8942 140.691 84.2827 142.91C85.1819 134.069 85.5916 125.184 85.5101 116.298Z" fill="#203048"/>
<path d="M86.4753 102.259C87.5243 107.347 88.5734 112.56 89.6959 117.669C90.8185 122.778 91.9829 127.908 93.3363 132.86C93.6825 134.085 94.0077 135.341 94.3853 136.514L94.6686 137.414L94.805 137.864V137.812C94.7315 137.718 94.6476 137.707 94.7106 137.812C95.1417 138.282 95.693 138.626 96.3052 138.806C97.2969 139.175 98.3182 139.458 99.358 139.654C104.318 140.439 109.34 140.765 114.36 140.628L115.356 146.323C113.951 146.773 112.639 147.098 111.255 147.422C109.87 147.747 108.506 148.019 107.111 148.229C104.224 148.708 101.297 148.905 98.3719 148.815C96.7459 148.771 95.1288 148.561 93.5461 148.187C91.5336 147.747 89.6425 146.872 88.0069 145.622C86.9387 144.761 86.0571 143.692 85.4157 142.481C85.2478 142.167 85.101 141.811 84.9646 141.507L84.7757 141.015L84.3876 139.968C83.8526 138.639 83.4119 137.33 82.9294 136.022C81.1564 130.787 79.6772 125.5 78.3763 120.224C77.0755 114.947 75.953 109.681 75.0193 104.269L86.4753 102.259Z" fill="#E4897B"/>
<path d="M71.4525 99.6937C69.2809 106.718 78.0827 127.667 78.0827 127.667L95.6129 123.27C95.6129 123.27 94.9415 112.382 90.9445 103.745C84.9227 90.7217 74.0542 91.266 71.4525 99.6937Z" fill="#263238"/>
<path d="M114.213 140.628L122.941 140.408L118.745 149.474C118.745 149.474 115.189 149.946 112.272 145.161L109.198 141.497L112.734 140.796C113.221 140.693 113.716 140.637 114.213 140.628Z" fill="#E4897B"/>
<path d="M128.449 142.094L123.455 149.611L118.745 149.474L122.941 140.408L128.449 142.094Z" fill="#E4897B"/>
<path d="M83.8736 314.059L83.4749 323.24H75.7642L76.1628 314.059H83.8736Z" fill="#CE6F64"/>
<path d="M20.9498 289.3L27.4016 293.519L20.0581 299.696L13.6167 295.487L20.9498 289.3Z" fill="#CE6F64"/>
<path d="M54.5939 66.2559C55.0555 73.8669 54.9401 78.3581 58.7902 82.2631C64.5811 88.1572 74.0124 84.671 75.8378 77.0286C77.4848 70.1818 76.4567 58.8752 68.9873 55.8391C67.3392 55.1753 65.549 54.9401 63.7849 55.1558C62.0208 55.3715 60.3405 56.0309 58.9017 57.0722C57.4629 58.1135 56.3128 59.5025 55.5593 61.1088C54.8058 62.7152 54.4736 64.4863 54.5939 66.2559Z" fill="#E4897B"/>
<path d="M45.6136 64.9152C47.5124 71.8562 51.9815 79.8546 57.7619 80.3676C64.9376 80.9957 68.1793 73.5941 69.1235 65.9517C73.4247 63.0098 71.1692 59.7749 75.4809 59.3666C81.0201 58.8431 79.2471 48.73 71.956 47.1073C71.956 47.1073 74.4004 51.6614 69.2703 49.3582C64.3916 47.0444 58.9715 46.1067 53.5971 46.6467C53.5971 46.6467 60.1433 49.913 53.7439 51.3682C47.3445 52.8234 45.4352 56.7598 48.3831 59.1363C48.3831 59.1467 44.3652 60.3507 45.6136 64.9152Z" fill="#263238"/>
<path d="M64.7489 67.5225C64.8898 69.4144 65.6533 71.2068 66.9205 72.6209C68.599 74.4739 70.351 73.3224 70.6447 71.0715C70.9175 69.051 70.3615 65.6485 68.3053 64.6225C66.2491 63.5966 64.6125 65.2402 64.7489 67.5225Z" fill="#E4897B"/>
<path d="M67.5814 160.561C67.5814 160.561 75.0928 214.843 69.176 236.598C59.7972 271.041 23.9396 300.114 23.9396 300.114L11.7808 292.158C11.7808 292.158 42.3195 267.608 46.0542 238.765C49.4113 212.875 40.9872 181.562 40.9872 160.551L67.5814 160.561Z" fill="#407BFF"/>
<path opacity="0.1" d="M67.5814 160.561C67.5814 160.561 75.0928 214.843 69.176 236.598C59.7972 271.041 23.9396 300.114 23.9396 300.114L11.7808 292.158C11.7808 292.158 42.3195 267.608 46.0542 238.765C49.4113 212.875 40.9872 181.562 40.9872 160.551L67.5814 160.561Z" fill="black"/>
<path d="M70.6866 191.592C68.687 189.306 66.4855 187.204 64.1089 185.311C65.3888 202.93 66.4378 229.029 65.2734 247.57C66.8391 244.016 68.1434 240.352 69.176 236.609C72.0609 225.983 71.7567 207.631 70.6866 191.592Z" fill="#407BFF"/>
<path opacity="0.3" d="M70.6866 191.592C68.687 189.306 66.4855 187.204 64.1089 185.311C65.3888 202.93 66.4378 229.029 65.2734 247.57C66.8391 244.016 68.1434 240.352 69.176 236.609C72.0609 225.983 71.7567 207.631 70.6866 191.592Z" fill="black"/>
<path d="M28.8387 297.403C28.8911 297.403 24.1283 300.543 24.1283 300.543L10.8469 291.854L15.0433 288.389L28.8387 297.403Z" fill="#407BFF"/>
<path opacity="0.3" d="M28.8387 297.403C28.8911 297.403 24.1283 300.543 24.1283 300.543L10.8469 291.854L15.0433 288.389L28.8387 297.403Z" fill="black"/>
<path d="M82.2057 160.562C82.2057 160.562 93.8085 209.662 94.6268 233.123C95.55 259.421 86.3496 321.461 86.3496 321.461H73.2885C73.2885 321.461 71.6834 258.94 71.1064 234.986C70.4665 208.866 55.1079 160.562 55.1079 160.562H82.2057Z" fill="#407BFF"/>
<path opacity="0.1" d="M82.2057 160.562C82.2057 160.562 93.8085 209.662 94.6268 233.123C95.55 259.421 86.3496 321.461 86.3496 321.461H73.2885C73.2885 321.461 71.6834 258.94 71.1064 234.986C70.4665 208.866 55.1079 160.562 55.1079 160.562H82.2057Z" fill="black"/>
<path d="M88.8567 316.279C88.9196 316.279 88.1223 321.681 88.1223 321.681H72.2392L71.8091 316.855L88.8567 316.279Z" fill="#407BFF"/>
<path opacity="0.3" d="M88.8567 316.279C88.9196 316.279 88.1223 321.681 88.1223 321.681H72.2392L71.8091 316.855L88.8567 316.279Z" fill="black"/>
<path d="M283.021 113.377C283.912 114.214 284.615 114.926 285.35 115.722C286.084 116.518 286.776 117.292 287.448 118.099C288.812 119.7 290.091 121.386 291.329 123.082C293.802 126.484 296.001 130.075 297.907 133.823L298.295 134.587C298.485 134.957 298.643 135.342 298.767 135.739C299.021 136.505 299.176 137.3 299.229 138.105C299.297 139.524 299.102 140.944 298.652 142.293C297.886 144.532 296.747 146.627 295.284 148.49C292.648 151.869 289.539 154.852 286.052 157.347L283.44 154.353C284.668 152.919 285.948 151.38 287.091 149.841C288.255 148.35 289.307 146.775 290.238 145.13C291.109 143.694 291.753 142.133 292.148 140.502C292.283 139.919 292.308 139.315 292.221 138.723C292.184 138.523 292.12 138.33 292.032 138.147C291.993 138.067 291.947 137.989 291.896 137.916L291.56 137.351C289.537 134.059 287.341 130.875 284.982 127.814C283.818 126.275 282.57 124.799 281.311 123.344C280.692 122.611 280.052 121.899 279.412 121.187C278.772 120.475 278.079 119.763 277.523 119.208L283.021 113.377Z" fill="#E4897B"/>
<path d="M284.447 153.474L276.611 152.196L280.713 159.043C280.713 159.043 285.759 158.865 287.196 155.902L284.447 153.474Z" fill="#E4897B"/>
<path d="M270.82 155.358L274.555 160.917L280.713 159.043L276.611 152.196L270.82 155.358Z" fill="#E4897B"/>
<path d="M284.07 332.17C283.537 332.216 283.005 332.071 282.57 331.762C282.438 331.638 282.341 331.482 282.288 331.31C282.235 331.138 282.227 330.954 282.265 330.778C282.273 330.666 282.311 330.557 282.376 330.465C282.441 330.373 282.529 330.3 282.633 330.255C283.545 329.846 285.937 331.375 286.21 331.553C286.241 331.572 286.265 331.601 286.278 331.635C286.292 331.669 286.293 331.706 286.283 331.741C286.279 331.777 286.264 331.811 286.239 331.837C286.215 331.863 286.182 331.881 286.147 331.888C285.467 332.06 284.771 332.155 284.07 332.17ZM283.021 330.548C282.944 330.536 282.866 330.536 282.79 330.548C282.744 330.569 282.705 330.603 282.677 330.646C282.649 330.688 282.634 330.738 282.633 330.788C282.605 330.905 282.608 331.027 282.641 331.143C282.674 331.258 282.736 331.363 282.821 331.448C283.22 331.804 284.248 331.856 285.622 331.584C284.835 331.065 283.95 330.712 283.021 330.548Z" fill="#407BFF"/>
<path d="M286.168 331.877H286.074C285.329 331.447 283.892 329.783 284.07 328.872C284.104 328.728 284.183 328.6 284.297 328.505C284.411 328.411 284.552 328.356 284.699 328.348C284.841 328.328 284.985 328.34 285.122 328.384C285.258 328.427 285.383 328.501 285.486 328.6C286.346 329.354 286.357 331.615 286.357 331.74C286.355 331.772 286.345 331.803 286.329 331.83C286.312 331.858 286.29 331.881 286.262 331.897L286.168 331.877ZM284.825 328.736H284.741C284.51 328.736 284.458 328.861 284.437 328.956C284.332 329.49 285.224 330.767 285.969 331.364C285.987 330.485 285.734 329.623 285.245 328.893C285.182 328.834 285.107 328.79 285.026 328.763C284.944 328.736 284.858 328.727 284.773 328.736H284.825Z" fill="#407BFF"/>
<path d="M248.317 332.169C247.647 332.233 246.976 332.063 246.418 331.688C246.292 331.576 246.195 331.437 246.135 331.28C246.075 331.123 246.053 330.954 246.072 330.788C246.079 330.686 246.111 330.587 246.166 330.501C246.221 330.415 246.297 330.345 246.387 330.295C247.362 329.751 250.489 331.342 250.845 331.541C250.878 331.562 250.904 331.592 250.921 331.627C250.938 331.663 250.944 331.702 250.94 331.74C250.934 331.777 250.916 331.811 250.89 331.837C250.864 331.863 250.83 331.881 250.793 331.887C249.979 332.059 249.149 332.154 248.317 332.169ZM246.922 330.547C246.802 330.539 246.682 330.564 246.576 330.62C246.538 330.638 246.506 330.666 246.484 330.701C246.461 330.736 246.45 330.777 246.45 330.819C246.434 330.928 246.444 331.039 246.481 331.143C246.517 331.247 246.579 331.341 246.66 331.416C247.142 331.845 248.432 331.918 250.174 331.625C249.159 331.085 248.059 330.721 246.922 330.547Z" fill="#407BFF"/>
<path d="M250.761 331.877H250.677C249.744 331.458 247.887 329.783 248.034 328.872C248.034 328.663 248.222 328.401 248.737 328.349C248.924 328.329 249.114 328.347 249.295 328.403C249.475 328.459 249.642 328.551 249.786 328.673C250.772 329.49 250.961 331.605 250.961 331.699C250.965 331.731 250.96 331.763 250.947 331.793C250.934 331.822 250.913 331.848 250.887 331.866C250.847 331.883 250.803 331.887 250.761 331.877ZM248.883 328.736H248.768C248.432 328.736 248.411 328.904 248.401 328.945C248.317 329.479 249.576 330.809 250.499 331.385C250.408 330.49 250.041 329.645 249.45 328.966C249.291 328.831 249.092 328.75 248.883 328.736Z" fill="#407BFF"/>
<path d="M263.162 89.3086C262.857 94.0406 262.039 103.651 265.679 106.31C265.679 106.31 265.018 111.158 256.426 112.288C246.985 113.513 251.296 108.195 251.296 108.195C256.301 106.289 255.661 102.489 254.297 99.0134L263.162 89.3086Z" fill="#E4897B"/>
<path d="M243.617 80.9438C243.565 80.9439 243.514 80.9327 243.467 80.9111C243.42 80.8894 243.378 80.8577 243.344 80.8182C243.045 80.4631 242.665 80.1833 242.237 80.0014C241.809 79.8196 241.344 79.7407 240.879 79.7713C240.83 79.7802 240.78 79.7791 240.731 79.7679C240.682 79.7568 240.637 79.7359 240.596 79.7065C240.556 79.6771 240.522 79.6399 240.497 79.597C240.472 79.5541 240.455 79.5066 240.449 79.4572C240.437 79.3587 240.465 79.2596 240.525 79.1812C240.586 79.1028 240.676 79.0515 240.774 79.0384C241.367 78.9885 241.962 79.0824 242.51 79.3121C243.058 79.5418 243.543 79.9005 243.921 80.3575C243.967 80.4121 243.996 80.4784 244.005 80.5488C244.015 80.6191 244.004 80.6907 243.974 80.7552C243.945 80.8198 243.898 80.8747 243.838 80.9136C243.779 80.9525 243.709 80.9739 243.638 80.9752L243.617 80.9438Z" fill="#263238"/>
<path d="M241.981 85.582C241.608 87.0836 241.033 88.5276 240.271 89.8743C240.621 90.0624 241.008 90.1712 241.405 90.1929C241.802 90.2146 242.199 90.1488 242.568 90L241.981 85.582Z" fill="#DE5753"/>
<path d="M242.4 84.4305C242.484 85.0586 242.222 85.603 241.813 85.6659C241.404 85.7287 240.995 85.2471 240.921 84.6189C240.848 83.9908 241.099 83.4464 241.509 83.394C241.918 83.3417 242.327 83.7605 242.4 84.4305Z" fill="#263238"/>
<path d="M241.697 83.4039L240.134 83.1631C240.134 83.1631 241.057 84.2414 241.697 83.4039Z" fill="#263238"/>
<path d="M259.406 331.71H251.538L251.013 313.546H258.881L259.406 331.71Z" fill="#E4897B"/>
<path d="M295.127 331.71H287.259L284.731 313.546H292.599L295.127 331.71Z" fill="#E4897B"/>
<path d="M286.777 330.83H295.61C295.76 330.829 295.906 330.882 296.02 330.98C296.134 331.079 296.208 331.215 296.229 331.364L297.278 338.347C297.297 338.523 297.279 338.701 297.224 338.87C297.17 339.038 297.08 339.193 296.961 339.325C296.842 339.456 296.697 339.561 296.534 339.632C296.372 339.704 296.196 339.74 296.019 339.739C292.945 339.687 291.455 339.509 287.574 339.509C285.182 339.509 281.688 339.75 278.394 339.75C275.1 339.75 274.922 336.494 276.296 336.201C282.454 334.882 283.43 333.06 285.497 331.312C285.857 331.013 286.308 330.843 286.777 330.83Z" fill="#263238"/>
<path d="M251.276 330.83H260.098C260.25 330.828 260.397 330.881 260.513 330.98C260.629 331.078 260.705 331.214 260.728 331.364L261.777 338.347C261.796 338.523 261.778 338.701 261.723 338.87C261.669 339.038 261.579 339.193 261.46 339.325C261.341 339.456 261.196 339.561 261.033 339.632C260.871 339.704 260.695 339.74 260.518 339.739C257.444 339.687 255.954 339.509 252.073 339.509C249.681 339.509 244.729 339.75 241.435 339.75C238.141 339.75 237.963 336.494 239.337 336.201C245.495 334.882 247.918 333.06 249.996 331.312C250.356 331.013 250.807 330.843 251.276 330.83Z" fill="#263238"/>
<path d="M251.013 313.546L251.286 322.916H259.154L258.881 313.546H251.013Z" fill="#CE6F64"/>
<path d="M292.599 313.546H284.731L286.042 322.916H293.9L292.599 313.546Z" fill="#CE6F64"/>
<path d="M263.267 79.5094C263.802 87.2775 264.19 90.5543 260.812 95.0246C255.724 101.735 246.051 100.699 243.198 93.2448C240.627 86.5342 240.187 74.9658 247.341 70.9038C248.915 70.0036 250.694 69.5197 252.508 69.4978C254.322 69.476 256.111 69.917 257.707 70.7791C259.302 71.6411 260.65 72.8956 261.623 74.4235C262.596 75.9514 263.162 77.7021 263.267 79.5094Z" fill="#E4897B"/>
<path d="M267.798 86.7227C272.162 89.1515 275.404 83.1632 275.404 83.1632C275.404 83.1632 267.578 84.0112 268.281 79.3629C269.204 73.1967 264.777 65.7008 253.678 66.6639C253.059 66.7163 252.471 66.7896 251.894 66.8838C250.732 66.3342 249.418 66.1923 248.165 66.4811C246.912 66.7699 245.794 67.4725 244.991 68.4751C241.844 68.7368 237.595 72.4848 240.48 77.4366C240.683 76.8677 240.996 76.3445 241.403 75.8977C241.645 78.7976 244.183 83.404 247.352 83.7076C248.034 87.6754 245.39 92.2713 246.303 96.4171C247.656 102.395 257.759 103.745 257.759 103.745C257.41 102.999 257.28 102.169 257.384 101.352C257.488 100.535 257.822 99.7645 258.346 99.1286C265.207 102.269 269.729 99.2019 269.729 99.2019C265.05 97.464 266.466 94.3651 266.466 94.3651C268.081 95.081 269.912 95.1439 271.573 94.5406C273.234 93.9373 274.596 92.7148 275.373 91.1302C273.818 91.2038 272.276 90.8268 270.932 90.0447C269.588 89.2626 268.499 88.1088 267.798 86.7227Z" fill="#263238"/>
<path d="M250.09 84.9011C250.108 85.6466 249.979 86.3884 249.709 87.0837C249.438 87.7791 249.033 88.4142 248.516 88.9526C247.131 90.3869 245.432 89.3818 244.97 87.5497C244.561 85.8956 244.792 83.1632 246.596 82.4094C246.993 82.2537 247.423 82.1995 247.847 82.2517C248.27 82.304 248.674 82.4611 249.021 82.7087C249.368 82.9562 249.648 83.2865 249.834 83.6694C250.021 84.0523 250.109 84.4757 250.09 84.9011Z" fill="#E4897B"/>
<path d="M256.626 157.274C256.626 157.274 258.619 208.949 263.361 239.288C267.18 263.807 284.143 321.094 284.143 321.094H294.865C294.865 321.094 286.021 265.765 284.08 241.529C279.171 180.19 291.917 167.02 279.884 154.248L256.626 157.274Z" fill="#263238"/>
<path d="M265.585 173.616C265.585 173.616 260.738 172.778 257.906 181.991C258.955 199.443 260.749 222.6 263.361 239.288C263.938 243.005 264.819 247.485 265.9 252.395C263.854 222.914 265.585 173.616 265.585 173.616Z" fill="#161F33"/>
<path d="M248.265 158.362C248.265 158.362 239.431 215.534 239.945 239.456C240.48 264.341 249.618 321.114 249.618 321.114H260.245C260.245 321.114 258.567 265.817 259.5 241.382C260.549 214.738 271.449 155.357 271.449 155.357L248.265 158.362Z" fill="#263238"/>
<path d="M296.417 321.596H282.16L281.048 316.822L296.312 316.927L296.417 321.596Z" fill="#407BFF"/>
<path opacity="0.2" d="M296.417 321.596H282.16L281.048 316.822L296.312 316.927L296.417 321.596Z" fill="black"/>
<path d="M279.349 106.321C283.451 106.719 289.682 118.35 289.682 118.35L279.328 126.275C279.328 126.275 270.757 118.769 271.774 114.55C272.834 110.163 275.415 105.955 279.349 106.321Z" fill="#407BFF"/>
<path opacity="0.1" d="M279.349 106.321C283.451 106.719 289.682 118.35 289.682 118.35L279.328 126.275C279.328 126.275 270.757 118.769 271.774 114.55C272.834 110.163 275.415 105.955 279.349 106.321Z" fill="black"/>
<path d="M276.254 111.325C275.208 111.044 274.126 110.924 273.044 110.969C272.493 112.114 272.068 113.314 271.774 114.55C270.725 118.737 279.328 126.275 279.328 126.275L280.094 125.689L276.254 111.325Z" fill="#407BFF"/>
<path opacity="0.3" d="M276.254 111.325C275.208 111.044 274.126 110.924 273.044 110.969C272.493 112.114 272.068 113.314 271.774 114.55C270.725 118.737 279.328 126.275 279.328 126.275L280.094 125.689L276.254 111.325Z" fill="black"/>
<path d="M244.75 122.495C241.76 130.043 238.613 137.717 236.106 145.286C235.938 145.768 235.801 146.229 235.655 146.7L235.298 147.862C235.201 148.204 235.201 148.567 235.298 148.909C235.89 150.218 236.83 151.34 238.015 152.154C241.152 154.4 244.569 156.227 248.181 157.588L247.236 161.44C242.794 160.856 238.497 159.457 234.564 157.315C232.143 156.025 230.171 154.032 228.909 151.599C228.184 150.045 227.933 148.312 228.185 146.616C228.209 146.408 228.244 146.202 228.29 145.998L228.395 145.559L228.573 144.763C228.699 144.229 228.825 143.716 228.961 143.193C230.011 139.005 231.353 135.027 232.77 131.08C234.186 127.133 235.665 123.239 237.333 119.354L244.75 122.495Z" fill="#E4897B"/>
<path d="M238.382 111.901C238.382 111.901 234.836 113.692 248.265 158.363L279.926 154.238C277.702 141.445 276.653 133.52 279.349 106.321C274.809 105.997 270.251 105.997 265.711 106.321C260.877 106.602 256.07 107.232 251.328 108.206C245.254 109.556 238.382 111.901 238.382 111.901Z" fill="#407BFF"/>
<path opacity="0.1" d="M238.382 111.901C238.382 111.901 234.836 113.692 248.265 158.363L279.926 154.238C277.702 141.445 276.653 133.52 279.349 106.321C274.809 105.997 270.251 105.997 265.711 106.321C260.877 106.602 256.07 107.232 251.328 108.206C245.254 109.556 238.382 111.901 238.382 111.901Z" fill="black"/>
<path d="M280.157 152.322L281.971 154.949C282.108 155.159 281.877 155.41 281.52 155.462L248.317 159.797C248.034 159.797 247.771 159.723 247.729 159.545L247.079 156.75C247.027 156.562 247.257 156.363 247.572 156.321L279.632 152.133C279.728 152.118 279.827 152.127 279.919 152.16C280.01 152.193 280.092 152.249 280.157 152.322Z" fill="#407BFF"/>
<path opacity="0.2" d="M280.157 152.322L281.971 154.949C282.108 155.159 281.877 155.41 281.52 155.462L248.317 159.797C248.034 159.797 247.771 159.723 247.729 159.545L247.079 156.75C247.027 156.562 247.257 156.363 247.572 156.321L279.632 152.133C279.728 152.118 279.827 152.127 279.919 152.16C280.01 152.193 280.092 152.249 280.157 152.322Z" fill="black"/>
<path d="M276.317 156.457L277.177 156.342C277.345 156.342 277.461 156.216 277.44 156.111L276.558 152.489C276.525 152.427 276.471 152.379 276.406 152.352C276.341 152.325 276.269 152.322 276.202 152.342L275.341 152.447C275.163 152.447 275.048 152.573 275.079 152.688L275.96 156.3C275.981 156.415 276.149 156.478 276.317 156.457Z" fill="#263238"/>
<path d="M255.503 159.137L256.364 159.022C256.531 159.022 256.657 158.896 256.626 158.792L255.745 155.169C255.71 155.108 255.657 155.06 255.592 155.032C255.528 155.003 255.456 154.996 255.388 155.012L254.528 155.127C254.36 155.127 254.234 155.253 254.265 155.358L255.147 158.98C255.168 159.137 255.335 159.2 255.503 159.137Z" fill="#263238"/>
<path d="M239.861 127.061C240.732 131.102 241.96 136.221 243.753 142.701L244.142 126.275L239.861 127.061Z" fill="#407BFF"/>
<path opacity="0.3" d="M239.861 127.061C240.732 131.102 241.96 136.221 243.753 142.701L244.142 126.275L239.861 127.061Z" fill="black"/>
<path d="M238.382 111.901C234.448 113.482 231.039 126.914 231.039 126.914L244.572 133.488C244.572 133.488 251.107 117.062 248.181 113.859C245.254 110.655 242.914 110.09 238.382 111.901Z" fill="#407BFF"/>
<path opacity="0.1" d="M238.382 111.901C234.448 113.482 231.039 126.914 231.039 126.914L244.572 133.488C244.572 133.488 251.107 117.062 248.181 113.859C245.254 110.655 242.914 110.09 238.382 111.901Z" fill="black"/>
<path d="M262.06 321.596H247.803L246.691 316.822L262.564 316.927L262.06 321.596Z" fill="#407BFF"/>
<path opacity="0.2" d="M262.06 321.596H247.803L246.691 316.822L262.564 316.927L262.06 321.596Z" fill="black"/>
<path d="M248.401 156.29L247.258 155.819C246.976 155.705 246.67 155.667 246.37 155.709C246.069 155.751 245.785 155.872 245.546 156.059C245.308 156.246 245.123 156.493 245.011 156.774C244.899 157.056 244.863 157.362 244.908 157.661L245.736 163.116C245.776 163.389 245.876 163.65 246.029 163.879C246.182 164.109 246.385 164.302 246.621 164.444C246.858 164.586 247.124 164.674 247.399 164.702C247.674 164.729 247.952 164.695 248.212 164.602C248.628 164.452 249.018 164.236 249.366 163.964C249.746 163.65 250.046 163.251 250.243 162.8C250.439 162.349 250.527 161.859 250.499 161.367L250.384 159.106C250.364 158.495 250.166 157.903 249.813 157.403C249.461 156.903 248.97 156.516 248.401 156.29Z" fill="#E4897B"/>
</svg>
