<svg width="428" height="450" viewBox="0 0 428 450" fill="none" xmlns="http://www.w3.org/2000/svg">
<path d="M439 344.16H-11V344.385H439V344.16Z" fill="#EBEBEB"/>
<path d="M393.91 358.641H364.102V358.866H393.91V358.641Z" fill="#EBEBEB"/>
<path d="M287.098 361.089H279.277V361.314H287.098V361.089Z" fill="#EBEBEB"/>
<path d="M363.202 350.289H345.931V350.514H363.202V350.289Z" fill="#EBEBEB"/>
<path d="M75.0851 351.801H36.2141V352.026H75.0851V351.801Z" fill="#EBEBEB"/>
<path d="M88.801 351.801H83.104V352.026H88.801V351.801Z" fill="#EBEBEB"/>
<path d="M191.635 355.599H107.323V355.824H191.635V355.599Z" fill="#EBEBEB"/>
<path d="M202.3 304.02H28.519C27.1577 304.018 25.8528 303.475 24.891 302.512C23.9292 301.548 23.389 300.242 23.389 298.881V54.594C23.4009 53.2404 23.9463 51.9462 24.9068 50.9924C25.8674 50.0386 27.1654 49.5023 28.519 49.5H202.3C203.663 49.5 204.97 50.0414 205.934 51.0052C206.898 51.9689 207.439 53.2761 207.439 54.639V298.881C207.439 300.244 206.898 301.551 205.934 302.515C204.97 303.479 203.663 304.02 202.3 304.02ZM28.519 49.68C27.2173 49.6824 25.9697 50.2012 25.0501 51.1225C24.1305 52.0437 23.614 53.2923 23.614 54.594V298.881C23.614 300.183 24.1305 301.431 25.0501 302.353C25.9697 303.274 27.2173 303.793 28.519 303.795H202.3C203.603 303.793 204.851 303.274 205.772 302.353C206.693 301.432 207.212 300.184 207.214 298.881V54.594C207.212 53.2915 206.693 52.0429 205.772 51.1219C204.851 50.2009 203.603 49.6824 202.3 49.68H28.519Z" fill="#EBEBEB"/>
<path d="M396.979 304.02H223.189C221.827 304.018 220.521 303.475 219.558 302.512C218.595 301.549 218.052 300.243 218.05 298.881V54.594C218.064 53.2396 218.612 51.9454 219.574 50.9918C220.536 50.0383 221.835 49.5023 223.189 49.5H396.979C398.331 49.5047 399.627 50.042 400.585 50.9956C401.544 51.9491 402.088 53.242 402.1 54.594V298.881C402.1 300.241 401.561 301.545 400.601 302.508C399.641 303.472 398.339 304.015 396.979 304.02ZM223.189 49.68C221.886 49.6824 220.638 50.2009 219.717 51.1219C218.796 52.0429 218.277 53.2915 218.275 54.594V298.881C218.277 300.184 218.796 301.432 219.717 302.353C220.638 303.274 221.886 303.793 223.189 303.795H396.979C398.282 303.793 399.53 303.274 400.451 302.353C401.372 301.432 401.891 300.184 401.893 298.881V54.594C401.891 53.2915 401.372 52.0429 400.451 51.1219C399.53 50.2009 398.282 49.6824 396.979 49.68H223.189Z" fill="#EBEBEB"/>
<path d="M249.721 156.654L373.723 156.654V75.4473L249.721 75.4473V156.654Z" fill="#E6E6E6"/>
<path d="M245.932 156.654L371.95 156.654V75.4473L245.932 75.4473V156.654Z" fill="#F0F0F0"/>
<path d="M249.721 172.584L373.723 172.584V156.645L249.721 156.645V172.584Z" fill="#E6E6E6"/>
<path d="M239.641 172.584L365.659 172.584V156.645L239.641 156.645V172.584Z" fill="#F0F0F0"/>
<path d="M366.658 151.362V80.748H251.233V151.362H366.658Z" fill="#FAFAFA"/>
<path d="M340.63 151.353L325.888 80.748H302.884L317.626 151.353H340.63Z" fill="white"/>
<path d="M364.21 146.088C364.26 146.088 364.31 146.077 364.357 146.058C364.403 146.038 364.445 146.01 364.481 145.974C364.516 145.938 364.543 145.895 364.562 145.848C364.58 145.801 364.589 145.751 364.588 145.701V84.1945C364.588 84.0943 364.548 83.9981 364.477 83.9272C364.406 83.8563 364.31 83.8165 364.21 83.8165C364.16 83.8153 364.11 83.8242 364.064 83.8428C364.017 83.8613 363.975 83.8891 363.94 83.9245C363.905 83.9598 363.877 84.002 363.858 84.0484C363.84 84.0948 363.831 84.1445 363.832 84.1945V145.701C363.831 145.751 363.84 145.801 363.858 145.848C363.877 145.895 363.904 145.938 363.939 145.974C363.975 146.01 364.017 146.038 364.063 146.058C364.11 146.077 364.16 146.088 364.21 146.088Z" fill="#F0F0F0"/>
<path d="M312.685 151.353L297.943 80.748H288.97L303.721 151.353H312.685Z" fill="white"/>
<path d="M251.908 151.362V80.748H251.233V151.362H251.908Z" fill="#E6E6E6"/>
<path opacity="0.6" d="M244.69 88.7308H368.692L369.178 82.7998H245.176L244.69 88.7308Z" fill="#EBEBEB"/>
<path opacity="0.6" d="M244.69 98.4513H368.692L369.178 92.5293H245.176L244.69 98.4513Z" fill="#EBEBEB"/>
<path opacity="0.6" d="M244.69 108.171H368.692L369.178 102.249H245.176L244.69 108.171Z" fill="#EBEBEB"/>
<path opacity="0.6" d="M244.69 117.9H368.692L369.178 111.969H245.176L244.69 117.9Z" fill="#EBEBEB"/>
<path opacity="0.6" d="M244.69 127.62H368.692L369.178 121.689H245.176L244.69 127.62Z" fill="#EBEBEB"/>
<path opacity="0.6" d="M244.69 137.34H368.692L369.178 131.409H245.176L244.69 137.34Z" fill="#EBEBEB"/>
<path d="M355.921 285.102H329.92V290.232H355.921V285.102Z" fill="#E6E6E6"/>
<path d="M280.879 344.16H285.676V226.197H280.879V344.16Z" fill="#E6E6E6"/>
<path d="M264.247 290.232H329.911V285.102H264.247V290.232Z" fill="#F5F5F5"/>
<path d="M355.921 313.155H329.92V318.285H355.921V313.155Z" fill="#E6E6E6"/>
<path d="M264.247 318.276H329.911V313.146H264.247V318.276Z" fill="#F5F5F5"/>
<path d="M355.921 229.005H329.92V234.135H355.921V229.005Z" fill="#E6E6E6"/>
<path d="M264.247 234.126H329.911V228.996H264.247V234.126Z" fill="#F5F5F5"/>
<path d="M355.921 257.049H329.92V262.179H355.921V257.049Z" fill="#E6E6E6"/>
<path d="M264.247 262.179H329.911V257.049H264.247V262.179Z" fill="#F5F5F5"/>
<path d="M346.552 344.16H351.349V226.197H346.552V344.16Z" fill="#E6E6E6"/>
<path d="M325.114 344.16H329.911V226.197H325.114V344.16Z" fill="#F5F5F5"/>
<path d="M264.247 344.16H269.044V226.197H264.247V344.16Z" fill="#F5F5F5"/>
<path d="M47.842 344.16H96.964L96.964 248.859H47.842L47.842 344.16Z" fill="#E6E6E6"/>
<path d="M60.955 344.16H47.833V331.002H74.707L60.955 344.16Z" fill="#FAFAFA"/>
<path d="M181.762 344.16H230.884V248.859H181.762V344.16Z" fill="#E6E6E6"/>
<path d="M47.842 339.624H193.219V248.85H47.842V339.624Z" fill="#FAFAFA"/>
<path d="M180.097 344.16H193.21V331.002H166.345L180.097 344.16Z" fill="#FAFAFA"/>
<path d="M58.012 305.397H183.04V282.681H58.012V305.397Z" fill="#F0F0F0"/>
<path d="M58.012 332.964H183.04V310.248H58.012V332.964Z" fill="#F0F0F0"/>
<path d="M159.28 285.111H81.7811C80.6878 285.111 79.6394 284.677 78.8664 283.904C78.0934 283.131 77.6591 282.083 77.6591 280.989V280.71H163.393V280.989C163.393 282.081 162.96 283.128 162.189 283.901C161.418 284.674 160.372 285.109 159.28 285.111Z" fill="#FAFAFA"/>
<path d="M58.012 277.821H183.04V255.105H58.012V277.821Z" fill="#F0F0F0"/>
<path d="M159.28 257.535H81.7811C80.6878 257.535 79.6394 257.101 78.8664 256.328C78.0934 255.555 77.6591 254.506 77.6591 253.413V253.134H163.393V253.413C163.393 254.505 162.96 255.552 162.189 256.325C161.418 257.097 160.372 257.533 159.28 257.535Z" fill="#FAFAFA"/>
<path d="M159.28 312.688H81.7811C80.6878 312.688 79.6394 312.253 78.8664 311.48C78.0934 310.707 77.6591 309.659 77.6591 308.566V308.287H163.393V308.566C163.393 309.657 162.96 310.704 162.189 311.477C161.418 312.25 160.372 312.685 159.28 312.688Z" fill="#FAFAFA"/>
<path d="M55.663 156.654L179.665 156.654V75.4473L55.663 75.4473L55.663 156.654Z" fill="#E6E6E6"/>
<path d="M51.883 156.654L177.901 156.654V75.4473L51.883 75.4473L51.883 156.654Z" fill="#F0F0F0"/>
<path d="M55.663 172.584L179.665 172.584V156.645L55.663 156.645V172.584Z" fill="#E6E6E6"/>
<path d="M45.574 172.584L171.592 172.584V156.645L45.574 156.645V172.584Z" fill="#F0F0F0"/>
<path d="M172.6 151.362V80.748H57.175V151.362H172.6Z" fill="#FAFAFA"/>
<path d="M146.572 151.353L131.83 80.748H108.826L123.568 151.353H146.572Z" fill="white"/>
<path d="M170.143 146.088C170.193 146.088 170.243 146.077 170.29 146.058C170.336 146.038 170.378 146.01 170.414 145.974C170.449 145.938 170.476 145.895 170.495 145.848C170.513 145.801 170.522 145.751 170.521 145.701V84.1945C170.522 84.1445 170.513 84.0948 170.495 84.0484C170.476 84.002 170.448 83.9598 170.413 83.9245C170.378 83.8891 170.336 83.8613 170.289 83.8428C170.243 83.8242 170.193 83.8153 170.143 83.8165C170.043 83.8165 169.947 83.8563 169.876 83.9272C169.805 83.9981 169.765 84.0943 169.765 84.1945V145.701C169.764 145.751 169.773 145.801 169.791 145.848C169.81 145.895 169.837 145.938 169.872 145.974C169.908 146.01 169.95 146.038 169.996 146.058C170.043 146.077 170.093 146.088 170.143 146.088Z" fill="#F0F0F0"/>
<path d="M118.627 151.353L103.885 80.748H94.912L109.654 151.353H118.627Z" fill="white"/>
<path d="M57.85 151.362L57.85 80.748H57.175L57.175 151.362H57.85Z" fill="#E6E6E6"/>
<path opacity="0.6" d="M50.623 88.7308H174.625L175.111 82.7998H51.109L50.623 88.7308Z" fill="#EBEBEB"/>
<path opacity="0.6" d="M50.623 92.0794H174.625L175.111 86.1484H51.109L50.623 92.0794Z" fill="#EBEBEB"/>
<path opacity="0.6" d="M50.623 95.4181H174.625L175.111 89.4961H51.109L50.623 95.4181Z" fill="#EBEBEB"/>
<path opacity="0.6" d="M50.623 98.766H174.625L175.111 92.835H51.109L50.623 98.766Z" fill="#EBEBEB"/>
<path opacity="0.6" d="M50.623 102.105H174.625L175.111 96.1826H51.109L50.623 102.105Z" fill="#EBEBEB"/>
<path opacity="0.6" d="M50.623 105.453H174.625L175.111 99.5225H51.109L50.623 105.453Z" fill="#EBEBEB"/>
<path d="M75.418 245.943H79.702V198.162H75.418V245.943Z" fill="#F5F5F5"/>
<path d="M75.958 245.916H77.173V198.135H75.958V245.916Z" fill="#FAFAFA"/>
<path d="M77.6771 245.916H78.1541V198.135H77.6771V245.916Z" fill="#FAFAFA"/>
<path d="M93.427 248.859H61.711C61.711 247.8 62.132 246.783 62.8814 246.034C63.6308 245.284 64.6472 244.863 65.707 244.863H89.422C90.4818 244.863 91.4982 245.284 92.2476 246.034C92.997 246.783 93.418 247.8 93.418 248.859H93.427Z" fill="#F0F0F0"/>
<path d="M69.856 227.826C70.1823 227.824 70.4945 227.693 70.7253 227.463C70.956 227.232 71.0867 226.92 71.089 226.593V195.3C71.089 194.973 70.9591 194.66 70.7279 194.429C70.4966 194.197 70.183 194.067 69.856 194.067C69.6933 194.066 69.532 194.097 69.3814 194.159C69.2308 194.22 69.0938 194.311 68.9783 194.425C68.8629 194.54 68.7712 194.676 68.7087 194.826C68.6462 194.977 68.614 195.138 68.614 195.3V226.629C68.6257 226.951 68.7617 227.255 68.9933 227.479C69.225 227.702 69.5343 227.827 69.856 227.826Z" fill="#F0F0F0"/>
<path d="M58.363 209.52H96.748L92.329 182.7H62.782L58.363 209.52Z" fill="#E0E0E0"/>
<path d="M214 384.804C310.374 384.804 388.501 380.242 388.501 374.616C388.501 368.989 310.374 364.428 214 364.428C117.626 364.428 39.499 368.989 39.499 374.616C39.499 380.242 117.626 384.804 214 384.804Z" fill="#F5F5F5"/>
<path d="M82.7068 182.123L81.8091 182.188L83.0047 198.786L83.9023 198.721L82.7068 182.123Z" fill="#1769E9"/>
<path d="M84.5123 207.29L83.6146 207.354L84.0647 213.602L84.9623 213.538L84.5123 207.29Z" fill="#1769E9"/>
<path d="M292.939 283.644H100.195C98.0496 283.605 95.9943 282.774 94.4255 281.31C92.8567 279.846 91.8855 277.853 91.6991 275.715L82.2311 144.198C82.143 143.184 82.2684 142.162 82.5991 141.199C82.9298 140.236 83.4585 139.353 84.1512 138.607C84.8439 137.861 85.6852 137.268 86.621 136.867C87.5567 136.466 88.566 136.265 89.5841 136.278H282.328C284.472 136.316 286.526 137.146 288.095 138.609C289.663 140.071 290.636 142.062 290.824 144.198L300.292 275.715C300.38 276.73 300.255 277.751 299.924 278.715C299.593 279.678 299.065 280.562 298.372 281.308C297.68 282.055 296.839 282.649 295.903 283.051C294.967 283.453 293.958 283.655 292.939 283.644Z" fill="#1769E9"/>
<path d="M293.677 283.644H100.933C98.7875 283.605 96.7322 282.774 95.1634 281.31C93.5946 279.846 92.6234 277.853 92.437 275.715L82.969 144.198C82.8809 143.184 83.0063 142.162 83.337 141.199C83.6677 140.236 84.1964 139.353 84.8891 138.607C85.5819 137.861 86.4232 137.268 87.3589 136.867C88.2946 136.466 89.304 136.265 90.322 136.278H283.066C285.21 136.316 287.264 137.146 288.833 138.609C290.401 140.071 291.373 142.062 291.562 144.198L301.03 275.715C301.119 276.73 300.995 277.752 300.665 278.716C300.335 279.68 299.806 280.564 299.113 281.311C298.421 282.059 297.579 282.652 296.642 283.054C295.706 283.456 294.696 283.657 293.677 283.644Z" fill="#1769E9"/>
<path opacity="0.5" d="M293.677 283.644H100.933C98.7875 283.605 96.7322 282.774 95.1634 281.31C93.5946 279.846 92.6234 277.853 92.437 275.715L82.969 144.198C82.8809 143.184 83.0063 142.162 83.337 141.199C83.6677 140.236 84.1964 139.353 84.8891 138.607C85.5819 137.861 86.4232 137.268 87.3589 136.867C88.2946 136.466 89.304 136.265 90.322 136.278H283.066C285.21 136.316 287.264 137.146 288.833 138.609C290.401 140.071 291.373 142.062 291.562 144.198L301.03 275.715C301.119 276.73 300.995 277.752 300.665 278.716C300.335 279.68 299.806 280.564 299.113 281.311C298.421 282.059 297.579 282.652 296.642 283.054C295.706 283.456 294.696 283.657 293.677 283.644Z" fill="white"/>
<path d="M283.354 140.238H90.61H89.962C85.039 140.643 86.047 148.14 91.015 148.14H284.083C289.06 148.14 288.988 140.643 284.002 140.238H283.354Z" fill="#1769E9"/>
<path d="M95.632 144.198C95.6509 144.43 95.6209 144.663 95.5441 144.883C95.4672 145.103 95.3451 145.304 95.1856 145.473C95.0262 145.643 94.833 145.777 94.6184 145.868C94.4038 145.958 94.1727 146.002 93.94 145.998C93.4508 145.991 92.9815 145.803 92.6226 145.471C92.2636 145.138 92.0404 144.685 91.996 144.198C91.9771 143.966 92.0068 143.734 92.0832 143.515C92.1595 143.296 92.2808 143.095 92.4393 142.925C92.5977 142.756 92.7899 142.621 93.0034 142.53C93.2169 142.44 93.447 142.394 93.679 142.398C94.1697 142.402 94.6412 142.589 95.002 142.922C95.3629 143.254 95.5874 143.709 95.632 144.198Z" fill="#FAFAFA"/>
<path d="M101.815 144.198C101.834 144.43 101.804 144.663 101.727 144.883C101.65 145.103 101.528 145.304 101.369 145.473C101.209 145.643 101.016 145.777 100.801 145.868C100.587 145.958 100.356 146.002 100.123 145.998C99.6338 145.991 99.1645 145.803 98.8055 145.471C98.4466 145.138 98.2234 144.685 98.179 144.198C98.1601 143.966 98.1898 143.734 98.2662 143.515C98.3425 143.296 98.4638 143.095 98.6223 142.925C98.7807 142.756 98.9729 142.621 99.1864 142.53C99.3998 142.44 99.63 142.394 99.862 142.398C100.353 142.402 100.824 142.589 101.185 142.922C101.546 143.254 101.77 143.709 101.815 144.198Z" fill="#FAFAFA"/>
<path d="M107.989 144.198C108.008 144.429 107.978 144.662 107.902 144.881C107.825 145.1 107.704 145.301 107.546 145.47C107.387 145.64 107.195 145.774 106.982 145.865C106.768 145.956 106.538 146.001 106.306 145.998C105.816 145.993 105.346 145.806 104.986 145.473C104.627 145.14 104.404 144.686 104.362 144.198C104.342 143.966 104.37 143.733 104.446 143.513C104.522 143.294 104.643 143.092 104.802 142.922C104.961 142.753 105.154 142.618 105.368 142.528C105.582 142.437 105.813 142.393 106.045 142.398C106.534 142.405 107.003 142.592 107.362 142.925C107.721 143.257 107.945 143.711 107.989 144.198Z" fill="#FAFAFA"/>
<path d="M288.565 270.522H104.2C103.421 270.509 102.675 270.207 102.106 269.675C101.537 269.142 101.187 268.418 101.122 267.642L93.3369 159.489C93.3023 159.117 93.347 158.743 93.468 158.391C93.5891 158.038 93.7838 157.715 94.0391 157.444C94.2945 157.172 94.6047 156.958 94.9491 156.816C95.2936 156.673 95.6644 156.606 96.0369 156.618H280.447C281.225 156.628 281.971 156.928 282.54 157.459C283.109 157.99 283.46 158.713 283.525 159.489L291.319 267.642C291.353 268.017 291.306 268.396 291.181 268.752C291.056 269.109 290.857 269.434 290.596 269.707C290.335 269.98 290.019 270.194 289.669 270.334C289.318 270.475 288.942 270.538 288.565 270.522Z" fill="white"/>
<path d="M210.877 229.32L207.871 187.632L198.781 182.16H173.752L177.154 229.32H210.877Z" fill="white"/>
<path d="M210.877 229.752H177.154C177.042 229.754 176.934 229.714 176.852 229.638C176.77 229.563 176.72 229.458 176.713 229.347L173.32 182.187C173.316 182.128 173.324 182.068 173.344 182.012C173.364 181.956 173.396 181.906 173.437 181.863C173.477 181.818 173.525 181.783 173.579 181.758C173.634 181.733 173.692 181.72 173.752 181.719H198.781C198.86 181.721 198.937 181.743 199.006 181.782L208.096 187.254C208.157 187.289 208.209 187.338 208.246 187.398C208.284 187.458 208.307 187.525 208.312 187.596L211.3 229.284C211.306 229.344 211.299 229.406 211.279 229.463C211.259 229.521 211.226 229.573 211.183 229.617C211.144 229.659 211.096 229.693 211.044 229.716C210.991 229.739 210.934 229.751 210.877 229.752ZM177.577 228.852H210.4L207.448 187.857L198.7 182.592H174.22L177.577 228.852Z" fill="#1769E9"/>
<path d="M207.871 187.632L198.781 182.16L202.12 189.414L207.871 187.632Z" fill="#EBEBEB"/>
<path d="M202.12 189.846C202.037 189.845 201.956 189.821 201.886 189.777C201.816 189.732 201.76 189.669 201.724 189.594L198.385 182.34C198.346 182.255 198.335 182.159 198.352 182.067C198.37 181.975 198.416 181.891 198.484 181.827C198.555 181.766 198.644 181.728 198.738 181.72C198.831 181.712 198.925 181.734 199.006 181.782L208.096 187.254C208.169 187.298 208.229 187.362 208.267 187.438C208.305 187.515 208.321 187.601 208.312 187.686C208.3 187.769 208.265 187.846 208.211 187.91C208.157 187.974 208.086 188.021 208.006 188.046L202.246 189.846H202.12ZM199.771 183.258L202.354 188.883L206.854 187.506L199.771 183.258Z" fill="#1769E9"/>
<path d="M187.9 203.4C187.913 203.645 187.877 203.89 187.792 204.12C187.708 204.35 187.578 204.56 187.409 204.738C187.241 204.915 187.038 205.057 186.812 205.153C186.587 205.25 186.345 205.3 186.1 205.299C185.586 205.29 185.094 205.091 184.718 204.74C184.343 204.39 184.11 203.912 184.066 203.4C184.043 203.153 184.073 202.904 184.153 202.669C184.234 202.434 184.364 202.22 184.534 202.039C184.705 201.858 184.912 201.716 185.141 201.622C185.371 201.528 185.618 201.484 185.866 201.492C186.381 201.504 186.873 201.705 187.248 202.057C187.624 202.409 187.856 202.887 187.9 203.4Z" fill="#1769E9"/>
<path d="M200.23 203.4C200.252 203.647 200.221 203.895 200.14 204.129C200.058 204.362 199.928 204.576 199.758 204.755C199.588 204.935 199.381 205.076 199.152 205.17C198.924 205.264 198.677 205.308 198.43 205.299C197.915 205.29 197.422 205.091 197.045 204.741C196.668 204.39 196.434 203.913 196.387 203.4C196.372 203.155 196.408 202.909 196.492 202.678C196.576 202.447 196.706 202.236 196.874 202.057C197.043 201.878 197.247 201.736 197.472 201.639C197.698 201.542 197.941 201.492 198.187 201.492C198.704 201.499 199.199 201.699 199.577 202.052C199.955 202.404 200.188 202.885 200.23 203.4Z" fill="#1769E9"/>
<path d="M203.722 215.766C203.613 215.764 203.508 215.721 203.428 215.647C203.348 215.572 203.299 215.47 203.29 215.361C203.065 212.292 198.259 209.799 192.58 209.799C188.809 209.799 185.425 210.924 183.751 212.724C183.407 213.055 183.138 213.457 182.961 213.9C182.784 214.344 182.704 214.82 182.725 215.298C182.729 215.357 182.722 215.416 182.703 215.472C182.684 215.529 182.654 215.58 182.615 215.625C182.537 215.716 182.426 215.771 182.306 215.779C182.187 215.788 182.069 215.748 181.979 215.67C181.889 215.591 181.833 215.48 181.825 215.361C181.798 214.764 181.896 214.169 182.113 213.612C182.33 213.056 182.661 212.551 183.085 212.13C184.885 210.159 188.548 208.926 192.553 208.926C198.79 208.926 203.875 211.725 204.127 215.298C204.131 215.355 204.123 215.411 204.105 215.465C204.086 215.519 204.057 215.569 204.02 215.611C203.982 215.654 203.937 215.689 203.885 215.714C203.834 215.739 203.779 215.753 203.722 215.757V215.766Z" fill="#1769E9"/>
<path d="M180.853 199.547C180.743 199.545 180.638 199.504 180.556 199.43C180.474 199.348 180.428 199.236 180.428 199.12C180.428 199.004 180.474 198.892 180.556 198.809L182.473 196.748C182.555 196.669 182.665 196.625 182.779 196.625C182.893 196.625 183.003 196.669 183.085 196.748C183.125 196.789 183.157 196.836 183.179 196.889C183.201 196.941 183.212 196.998 183.212 197.054C183.212 197.111 183.201 197.168 183.179 197.22C183.157 197.273 183.125 197.32 183.085 197.36L181.168 199.421C181.127 199.463 181.077 199.495 181.023 199.517C180.969 199.538 180.911 199.549 180.853 199.547Z" fill="#1769E9"/>
<path d="M202.822 199.547C202.713 199.542 202.608 199.501 202.525 199.43L200.32 197.369C200.278 197.329 200.245 197.281 200.223 197.228C200.2 197.174 200.188 197.117 200.188 197.059C200.188 197.001 200.2 196.944 200.223 196.89C200.245 196.837 200.278 196.789 200.32 196.748C200.402 196.669 200.512 196.625 200.626 196.625C200.74 196.625 200.85 196.669 200.932 196.748L203.137 198.809C203.177 198.85 203.209 198.897 203.231 198.95C203.253 199.002 203.264 199.059 203.264 199.115C203.264 199.172 203.253 199.229 203.231 199.281C203.209 199.334 203.177 199.381 203.137 199.421C203.051 199.501 202.939 199.546 202.822 199.547Z" fill="#1769E9"/>
<path d="M171.034 238.635H173.068L176.002 242.541L175.723 238.635H177.775L178.279 245.691H176.2L173.284 241.812L173.563 245.691H171.511L171.034 238.635Z" fill="#1769E9"/>
<path d="M179.197 242.163C179.128 241.683 179.161 241.195 179.294 240.729C179.427 240.264 179.658 239.832 179.971 239.463C180.313 239.126 180.722 238.866 181.172 238.7C181.622 238.534 182.103 238.466 182.581 238.5C183.595 238.445 184.591 238.783 185.362 239.445C186.068 240.148 186.477 241.095 186.505 242.091C186.579 242.777 186.487 243.472 186.235 244.116C186.002 244.634 185.611 245.065 185.119 245.349C184.528 245.665 183.863 245.818 183.193 245.79C182.504 245.811 181.819 245.682 181.186 245.412C180.631 245.145 180.163 244.727 179.836 244.206C179.45 243.591 179.23 242.887 179.197 242.163ZM181.384 242.163C181.375 242.715 181.553 243.254 181.888 243.693C182.029 243.847 182.201 243.969 182.394 244.05C182.587 244.131 182.795 244.169 183.004 244.161C183.204 244.174 183.403 244.14 183.587 244.06C183.77 243.98 183.931 243.857 184.057 243.702C184.315 243.21 184.401 242.646 184.3 242.1C184.304 241.57 184.126 241.056 183.796 240.642C183.652 240.49 183.477 240.37 183.283 240.291C183.089 240.212 182.88 240.175 182.671 240.183C182.475 240.174 182.28 240.212 182.102 240.293C181.924 240.375 181.767 240.497 181.645 240.651C181.382 241.114 181.289 241.656 181.384 242.181V242.163Z" fill="#1769E9"/>
<path d="M190.735 238.635H193.975C194.509 238.618 195.041 238.707 195.541 238.896C195.936 239.062 196.288 239.317 196.567 239.643C196.85 239.973 197.067 240.355 197.206 240.768C197.352 241.211 197.443 241.67 197.476 242.136C197.545 242.724 197.499 243.32 197.341 243.891C197.217 244.286 196.998 244.645 196.702 244.935C196.455 245.196 196.145 245.388 195.802 245.493C195.383 245.614 194.951 245.681 194.515 245.691H191.284L190.735 238.635ZM193.03 240.237L193.309 244.089H193.84C194.168 244.11 194.497 244.058 194.803 243.936C195.004 243.819 195.153 243.629 195.217 243.405C195.32 243.005 195.344 242.59 195.289 242.181C195.306 241.632 195.138 241.093 194.812 240.651C194.645 240.5 194.448 240.385 194.234 240.314C194.021 240.242 193.794 240.216 193.57 240.237H193.03Z" fill="#1769E9"/>
<path d="M202.705 244.521H200.23L199.969 245.691H197.746L199.888 238.635H202.3L205.459 245.691H203.173L202.705 244.521ZM202.138 243L201.184 240.462L200.59 243H202.138Z" fill="#1769E9"/>
<path d="M204.433 238.635H211.057L211.183 240.381H208.96L209.338 245.691H207.16L206.782 240.381H204.559L204.433 238.635Z" fill="#1769E9"/>
<path d="M216.133 244.521H213.658L213.397 245.691H211.174L213.316 238.635H215.692L218.842 245.691H216.565L216.133 244.521ZM215.566 243L214.603 240.462L214 243H215.566Z" fill="#1769E9"/>
<path d="M307.321 155.772C308.122 155.367 309.121 154.872 309.967 154.359C310.813 153.846 311.767 153.351 312.667 152.811C314.422 151.722 316.204 150.651 317.887 149.463C321.267 147.15 324.436 144.542 327.355 141.669C327.724 141.327 328.048 140.949 328.399 140.58L328.912 140.031L329.164 139.761L329.29 139.617C329.164 139.86 329.29 139.788 329.29 139.554C329.369 139.232 329.414 138.903 329.425 138.573C329.404 136.659 329.184 134.753 328.768 132.885C327.967 128.853 326.752 124.695 325.555 120.627L329.047 119.097C331.251 123 333.092 127.097 334.546 131.337C335.363 133.628 335.883 136.014 336.094 138.438C336.149 139.191 336.125 139.948 336.022 140.697C335.888 141.755 335.513 142.768 334.924 143.658L334.771 143.865L334.654 144.009L334.519 144.18L334.24 144.522L333.682 145.197C333.313 145.638 332.953 146.097 332.557 146.52C329.479 149.935 326.046 153.012 322.315 155.7C320.515 157.032 318.607 158.31 316.654 159.471C315.691 160.056 314.71 160.614 313.711 161.163C312.712 161.712 311.74 162.216 310.588 162.756L307.321 155.772Z" fill="#FFB573"/>
<path d="M299.311 367.361C299.985 367.345 300.655 367.254 301.309 367.091C301.342 367.081 301.372 367.063 301.396 367.037C301.419 367.012 301.436 366.981 301.444 366.947C301.448 366.913 301.443 366.878 301.429 366.846C301.415 366.814 301.392 366.787 301.363 366.767C301.102 366.596 298.816 365.12 297.934 365.516C297.836 365.562 297.752 365.633 297.691 365.721C297.629 365.81 297.592 365.913 297.583 366.02C297.548 366.19 297.557 366.366 297.609 366.532C297.661 366.697 297.754 366.846 297.88 366.965C298.293 367.266 298.802 367.407 299.311 367.361ZM300.796 366.839C299.491 367.1 298.501 367.055 298.096 366.704C298.015 366.621 297.956 366.52 297.925 366.408C297.893 366.296 297.89 366.178 297.916 366.065C297.919 366.018 297.935 365.972 297.962 365.932C297.989 365.893 298.026 365.861 298.069 365.84C298.546 365.633 299.869 366.299 300.796 366.839Z" fill="#1769E9"/>
<path d="M301.3 367.092H301.39C301.416 367.076 301.438 367.053 301.454 367.027C301.47 367 301.479 366.97 301.48 366.939C301.48 366.84 301.48 364.671 300.652 363.951C300.553 363.855 300.433 363.784 300.302 363.741C300.171 363.699 300.032 363.688 299.896 363.708C299.754 363.709 299.617 363.759 299.507 363.849C299.397 363.939 299.322 364.064 299.293 364.203C299.122 365.103 300.49 366.678 301.21 367.092C301.239 367.1 301.271 367.1 301.3 367.092ZM300.013 364.041C300.159 364.041 300.3 364.096 300.409 364.194C300.884 364.894 301.129 365.724 301.111 366.57C300.391 365.994 299.536 364.77 299.644 364.257C299.644 364.176 299.707 364.068 299.932 364.041H300.013Z" fill="#1769E9"/>
<path d="M300.598 133.263C299.698 137.763 297.898 146.763 301.003 149.778C301.003 149.778 299.779 154.278 291.472 154.278C282.328 154.278 287.107 149.778 287.107 149.778C292.093 148.59 291.958 144.891 291.094 141.408L300.598 133.263Z" fill="#FFB573"/>
<path d="M285.352 151.578C283.921 151.776 285.145 148.059 285.721 147.672C287.071 146.772 304.495 145.521 304.378 147.672C304.306 148.572 303.874 150.372 303.118 150.966C302.362 151.56 297.88 149.706 285.352 151.578Z" fill="#263238"/>
<path d="M288.196 150.299C287.053 150.686 287.161 146.942 287.548 146.492C288.448 145.448 302.551 141.83 302.965 143.873C303.127 144.773 303.208 146.573 302.722 147.212C302.236 147.851 298.096 146.798 288.196 150.299Z" fill="#263238"/>
<path d="M282.949 125.199C282.892 125.201 282.836 125.19 282.784 125.167C282.733 125.143 282.687 125.108 282.652 125.064C282.377 124.709 282.023 124.425 281.618 124.232C281.214 124.04 280.769 123.946 280.321 123.957C280.274 123.963 280.227 123.96 280.181 123.947C280.136 123.934 280.093 123.913 280.056 123.883C280.019 123.854 279.988 123.817 279.966 123.776C279.943 123.734 279.929 123.689 279.925 123.642C279.917 123.549 279.946 123.457 280.005 123.385C280.063 123.313 280.148 123.266 280.24 123.255C280.807 123.226 281.372 123.334 281.887 123.571C282.403 123.807 282.854 124.165 283.201 124.614C283.261 124.687 283.29 124.78 283.282 124.875C283.274 124.969 283.228 125.056 283.156 125.118C283.095 125.161 283.024 125.189 282.949 125.199Z" fill="#263238"/>
<path d="M281.203 129.6C280.795 131.035 280.189 132.408 279.403 133.677C279.733 133.866 280.101 133.982 280.48 134.014C280.859 134.047 281.241 133.996 281.599 133.866L281.203 129.6Z" fill="#FF5652"/>
<path d="M281.644 128.51C281.707 129.113 281.428 129.635 281.032 129.671C280.636 129.707 280.267 129.257 280.213 128.645C280.159 128.033 280.429 127.52 280.816 127.484C281.203 127.448 281.581 127.898 281.644 128.51Z" fill="#263238"/>
<path d="M280.996 127.503L279.502 127.224C279.502 127.224 280.357 128.286 280.996 127.503Z" fill="#263238"/>
<path d="M310.03 366.921H302.488L303.082 349.461H310.624L310.03 366.921Z" fill="#FFB573"/>
<path d="M301.894 366.048H310.363C310.509 366.044 310.651 366.095 310.762 366.189C310.874 366.284 310.946 366.416 310.966 366.561L311.929 373.257C311.948 373.426 311.931 373.598 311.879 373.76C311.827 373.922 311.741 374.072 311.627 374.198C311.513 374.325 311.374 374.426 311.218 374.495C311.062 374.564 310.893 374.599 310.723 374.598C307.771 374.553 306.349 374.373 302.623 374.373C300.328 374.373 296.98 374.616 293.821 374.616C290.662 374.616 290.482 371.484 291.805 371.205C297.709 369.927 298.645 368.181 300.634 366.507C300.988 366.213 301.434 366.051 301.894 366.048Z" fill="#263238"/>
<g opacity="0.2">
<path d="M310.624 349.461H303.082L302.776 358.461H310.318L310.624 349.461Z" fill="black"/>
</g>
<path d="M280.033 160.2C275.418 158.405 270.897 156.378 266.488 154.125C261.934 151.899 257.595 149.257 253.528 146.232C252.441 145.38 251.413 144.457 250.45 143.469C250.198 143.199 249.946 142.947 249.703 142.632C249.418 142.31 249.153 141.97 248.911 141.615C248.247 140.648 247.833 139.532 247.705 138.366C247.606 137.26 247.757 136.147 248.146 135.108C248.458 134.272 248.885 133.485 249.415 132.768C250.284 131.579 251.311 130.513 252.466 129.6C254.505 127.976 256.707 126.567 259.036 125.397C260.152 124.803 261.286 124.272 262.438 123.777C263.59 123.282 264.724 122.814 265.957 122.391L267.55 125.856C263.626 128.331 259.558 131.058 256.57 134.1C255.901 134.777 255.313 135.529 254.815 136.341C254.383 137.052 254.392 137.583 254.464 137.538C254.536 137.493 254.464 137.538 254.59 137.628L254.95 138.015C255.085 138.177 255.274 138.339 255.445 138.51C256.207 139.211 257.016 139.861 257.866 140.454C259.724 141.769 261.659 142.971 263.662 144.054C265.687 145.188 267.775 146.259 269.899 147.285C274.147 149.319 278.539 151.272 282.85 153.054L280.033 160.2Z" fill="#FFB573"/>
<path d="M269.8 123.435L271.042 120.735L265.354 118.8C265.354 118.8 263.554 124.119 265.687 126.567C266.578 126.426 267.421 126.067 268.139 125.52C268.857 124.973 269.428 124.257 269.8 123.435Z" fill="#FFB573"/>
<path d="M271.015 114.894L266.488 113.58L265.354 118.764L271.015 120.735V114.894Z" fill="#FFB573"/>
<path d="M329.515 120.996L330.172 114.696L324.34 116.1C324.34 116.1 324.25 122.022 327.337 122.958L329.515 120.996Z" fill="#FFB573"/>
<path d="M327.364 110.259L323.557 112.032L324.34 116.055L330.172 114.678L327.364 110.259Z" fill="#FFB573"/>
<path d="M301.786 124.425C302.065 131.904 302.335 135.063 298.96 139.248C293.875 145.548 284.632 144.243 282.13 136.998C279.88 130.482 279.808 119.349 286.792 115.677C288.327 114.861 290.046 114.45 291.785 114.484C293.523 114.519 295.224 114.997 296.727 115.873C298.229 116.749 299.482 117.995 300.367 119.492C301.253 120.988 301.741 122.687 301.786 124.425Z" fill="#FFB573"/>
<path d="M298.528 139.239C305.872 136.062 310.696 129.339 308.662 118.917C306.709 108.918 299.959 107.928 297.169 109.998C294.379 112.068 287.422 108.981 283.246 112.491C276.046 118.584 282.85 125.091 286.414 129.024C288.538 133.398 291.328 142.344 298.528 139.239Z" fill="#263238"/>
<path d="M295.477 117.126C296.373 118.275 297.586 119.137 298.966 119.605C300.346 120.073 301.833 120.126 303.243 119.759C304.653 119.392 305.924 118.619 306.901 117.537C307.877 116.456 308.515 115.112 308.736 113.671C308.957 112.231 308.752 110.757 308.145 109.433C307.538 108.108 306.557 106.99 305.322 106.216C304.087 105.443 302.653 105.048 301.196 105.08C299.739 105.112 298.323 105.571 297.124 106.398C295.484 107.603 294.389 109.409 294.08 111.421C293.771 113.433 294.273 115.485 295.477 117.126Z" fill="#1769E9"/>
<path d="M297.385 110.7C296.332 104.67 302.029 100.026 309.661 102.267C317.293 104.508 313.261 111.267 311.686 116.667C310.111 122.067 314.233 127.215 315.943 123.102C317.653 118.989 314.773 117.702 314.773 117.702C314.773 117.702 322.873 119.799 315.349 128.934C307.825 138.069 301.012 127.98 302.857 122.031C304.351 117.252 298.384 116.397 297.385 110.7Z" fill="#263238"/>
<path d="M289.762 112.976C286.279 111.176 280.384 109.691 277.027 115.343C275.443 118.043 276.055 121.643 276.055 121.643L286.306 122.318L289.762 112.976Z" fill="#263238"/>
<path d="M274.849 119.862C274.789 119.857 274.732 119.829 274.692 119.784C274.652 119.739 274.631 119.679 274.633 119.619C274.633 119.466 274.894 115.848 277.081 113.58C282.364 108.09 288.556 112.68 290.32 114.165C290.358 114.205 290.38 114.258 290.381 114.313C290.383 114.368 290.364 114.422 290.329 114.464C290.293 114.507 290.243 114.534 290.188 114.542C290.134 114.55 290.078 114.537 290.032 114.507C288.331 113.049 282.409 108.684 277.432 113.886C275.362 116.037 275.11 119.61 275.11 119.646C275.109 119.678 275.101 119.709 275.087 119.738C275.073 119.767 275.053 119.793 275.029 119.813C275.004 119.834 274.975 119.848 274.944 119.857C274.913 119.865 274.881 119.867 274.849 119.862Z" fill="#263238"/>
<path d="M287.665 128.7C287.625 130.116 287.1 131.475 286.18 132.552C284.938 134.01 283.48 133.29 283.183 131.652C282.886 130.203 283.183 127.692 284.749 126.819C286.315 125.946 287.683 127.062 287.665 128.7Z" fill="#FFB573"/>
<path d="M286.045 197.208C286.045 197.208 286.531 249.543 291.067 278.703C294.739 302.256 301.516 356.724 301.516 356.724H311.803C311.803 356.724 312.802 304.137 310.903 280.845C306.196 221.895 318.355 210.87 308.545 197.208H286.045Z" fill="#263238"/>
<path opacity="0.1" d="M286.045 197.208C286.045 197.208 286.531 249.543 291.067 278.703C294.739 302.256 301.516 356.724 301.516 356.724H311.803C311.803 356.724 312.802 304.137 310.903 280.845C306.196 221.895 318.355 210.87 308.545 197.208H286.045Z" fill="white"/>
<path opacity="0.3" d="M291.454 220.95C295.054 236.745 292.183 261.621 290.212 272.574C288.124 255.942 287.071 234.387 286.549 218.574C288.412 215.568 290.176 215.37 291.454 220.95Z" fill="black"/>
<path d="M300.112 356.922H313.207L313.891 352.332L300.04 351.864L300.112 356.922Z" fill="#1769E9"/>
<path d="M303.847 153C305.08 150.552 311.704 149.013 315.322 149.022L318.022 161.046C318.022 161.046 310.822 171.747 307.816 170.613C304.279 169.308 301.21 158.283 303.847 153Z" fill="#1769E9"/>
<path opacity="0.4" d="M303.847 153C305.08 150.552 311.704 149.013 315.322 149.022L318.022 161.046C318.022 161.046 310.822 171.747 307.816 170.613C304.279 169.308 301.21 158.283 303.847 153Z" fill="black"/>
<path d="M296.215 353.979C296.23 353.953 296.238 353.924 296.238 353.894C296.238 353.864 296.23 353.834 296.215 353.808C296.198 353.774 296.171 353.745 296.137 353.728C296.103 353.71 296.064 353.703 296.026 353.709C295.648 353.772 292.318 354.294 291.868 355.248C291.82 355.335 291.795 355.432 291.795 355.532C291.795 355.631 291.82 355.728 291.868 355.815C291.945 355.957 292.056 356.079 292.191 356.168C292.326 356.257 292.481 356.312 292.642 356.328C293.731 356.436 295.342 354.924 296.152 354.006L296.215 353.979ZM292.219 355.365C292.525 354.861 294.253 354.393 295.567 354.15C294.379 355.356 293.335 356.031 292.723 355.95C292.617 355.94 292.516 355.903 292.428 355.843C292.34 355.783 292.268 355.703 292.219 355.608C292.199 355.574 292.189 355.535 292.189 355.496C292.189 355.456 292.199 355.417 292.219 355.383C292.219 355.383 292.21 355.374 292.219 355.365Z" fill="#1769E9"/>
<path d="M296.215 353.979C296.23 353.953 296.238 353.923 296.238 353.893C296.238 353.863 296.23 353.834 296.215 353.808C296.161 353.745 294.829 352.206 293.596 352.125C293.418 352.11 293.24 352.132 293.071 352.189C292.902 352.246 292.747 352.338 292.615 352.458C292.246 352.791 292.282 353.079 292.372 353.259C292.759 354.033 295.153 354.303 296.116 354.096C296.141 354.086 296.163 354.07 296.18 354.05C296.197 354.029 296.209 354.005 296.215 353.979ZM292.696 352.845C292.735 352.784 292.784 352.729 292.84 352.683C292.934 352.593 293.046 352.525 293.169 352.483C293.292 352.441 293.422 352.427 293.551 352.44C294.388 352.646 295.14 353.108 295.702 353.763C294.631 353.853 292.903 353.529 292.669 353.061C292.654 353.026 292.649 352.987 292.653 352.949C292.658 352.911 292.673 352.875 292.696 352.845Z" fill="#1769E9"/>
<path d="M304.072 350.784L297.178 353.853L294.109 347.454L290.095 339.084L289.618 338.112L296.512 335.043L297.043 336.141L300.931 344.25L304.072 350.784Z" fill="#FFB573"/>
<path opacity="0.2" d="M300.931 344.25L294.109 347.454L290.095 339.084L297.043 336.141L300.931 344.25Z" fill="black"/>
<path d="M277.963 197.208C277.963 197.208 255.94 252 261.907 277.74C267.307 301.041 291.157 345.168 291.157 345.168L300.4 340.542C300.4 340.542 285.649 287.271 284.056 275.697C280.942 253.197 300.949 221.4 300.949 197.208H277.963Z" fill="#263238"/>
<path opacity="0.1" d="M277.963 197.208C277.963 197.208 255.94 252 261.907 277.74C267.307 301.041 291.157 345.168 291.157 345.168L300.4 340.542C300.4 340.542 285.649 287.271 284.056 275.697C280.942 253.197 300.949 221.4 300.949 197.208H277.963Z" fill="white"/>
<path d="M295.954 352.89L302.794 347.913C302.909 347.823 303.054 347.779 303.2 347.788C303.347 347.798 303.484 347.862 303.586 347.967L308.311 352.818C308.426 352.945 308.512 353.094 308.565 353.257C308.618 353.419 308.636 353.591 308.619 353.76C308.601 353.93 308.547 354.094 308.462 354.242C308.376 354.39 308.26 354.518 308.122 354.618C305.701 356.31 304.45 357.012 301.444 359.199C299.59 360.549 295.9 363.528 293.344 365.391C290.788 367.254 288.844 364.824 289.744 363.825C293.776 359.325 294.622 356.535 295.252 354.006C295.35 353.564 295.598 353.17 295.954 352.89Z" fill="#263238"/>
<path d="M290.563 347.121L302.47 341.676L300.949 336.825L288.196 342.639L290.563 347.121Z" fill="#1769E9"/>
<path d="M283.804 152.424C282.823 149.868 274.219 147.024 269.899 146.124L268 160.272C268 160.272 275.056 170.406 278.143 169.569C281.797 168.579 285.928 157.905 283.804 152.424Z" fill="#1769E9"/>
<path opacity="0.4" d="M283.804 152.424C282.823 149.868 274.219 147.024 269.899 146.124L268 160.272C268 160.272 275.056 170.406 278.143 169.569C281.797 168.579 285.928 157.905 283.804 152.424Z" fill="black"/>
<path d="M274.363 151.712C274.363 151.712 270.763 152.972 277.963 197.207H308.563C308.05 184.751 308.032 177.065 313.963 151.487C309.675 150.603 305.329 150.031 300.958 149.777C296.332 149.444 291.688 149.444 287.062 149.777C281.131 150.299 274.363 151.712 274.363 151.712Z" fill="#1769E9"/>
<path opacity="0.4" d="M274.363 151.712C274.363 151.712 270.763 152.972 277.963 197.207H308.563C308.05 184.751 308.032 177.065 313.963 151.487C309.675 150.603 305.329 150.031 300.958 149.777C296.332 149.444 291.688 149.444 287.062 149.777C281.131 150.299 274.363 151.712 274.363 151.712Z" fill="black"/>
<path d="M309.04 195.417L310.417 198.117C310.525 198.333 310.273 198.549 309.922 198.549H277.81C277.531 198.549 277.306 198.414 277.288 198.234L277.009 195.534C277.009 195.345 277.234 195.183 277.531 195.183H308.5C308.603 195.166 308.708 195.18 308.804 195.221C308.9 195.262 308.982 195.33 309.04 195.417Z" fill="#1769E9"/>
<path opacity="0.3" d="M309.04 195.417L310.417 198.117C310.525 198.333 310.273 198.549 309.922 198.549H277.81C277.531 198.549 277.306 198.414 277.288 198.234L277.009 195.534C277.009 195.345 277.234 195.183 277.531 195.183H308.5C308.603 195.166 308.708 195.18 308.804 195.221C308.9 195.262 308.982 195.33 309.04 195.417Z" fill="white"/>
<path d="M304.9 198.9H305.728C305.899 198.9 306.025 198.81 306.007 198.711L305.62 195.111C305.62 195.003 305.467 194.922 305.305 194.922H304.468C304.306 194.922 304.18 195.003 304.189 195.111L304.576 198.711C304.567 198.792 304.711 198.9 304.9 198.9Z" fill="#263238"/>
<path d="M284.749 198.9H285.577C285.739 198.9 285.865 198.81 285.856 198.711L285.469 195.111C285.469 195.003 285.316 194.922 285.145 194.922H284.317C284.146 194.922 284.029 195.003 284.038 195.111L284.425 198.711C284.434 198.792 284.578 198.9 284.749 198.9Z" fill="#263238"/>
</svg>
