<svg width="428" height="481" viewBox="0 0 428 481" fill="none" xmlns="http://www.w3.org/2000/svg">
<path d="M455 367.869H-27V368.11H455V367.869Z" fill="#EBEBEB"/>
<path d="M406.704 383.348H374.776V383.588H406.704V383.348Z" fill="#EBEBEB"/>
<path d="M263.588 383.473H255.211V383.713H263.588V383.473Z" fill="#EBEBEB"/>
<path d="M373.802 374.42H314.574V374.66H373.802V374.42Z" fill="#EBEBEB"/>
<path d="M190.035 380.096H177.802V380.336H190.035V380.096Z" fill="#EBEBEB"/>
<path d="M169.222 380.096H133.718V380.336H169.222V380.096Z" fill="#EBEBEB"/>
<path d="M48.0861 376.036H23.5715V376.277H48.0861V376.036Z" fill="#EBEBEB"/>
<path d="M126.064 376.036H53.8699V376.277H126.064V376.036Z" fill="#EBEBEB"/>
<path d="M201.468 324.964H15.3293C13.8711 324.961 12.4735 324.381 11.4433 323.352C10.4131 322.322 9.83447 320.926 9.83447 319.471V58.3551C9.84717 56.9083 10.4314 55.5249 11.4602 54.5054C12.489 53.4859 13.8794 52.9126 15.3293 52.9102H201.468C202.928 52.9102 204.328 53.4889 205.36 54.519C206.393 55.5492 206.972 56.9463 206.972 58.4032V319.471C206.972 320.928 206.393 322.325 205.36 323.355C204.328 324.385 202.928 324.964 201.468 324.964ZM15.3293 53.1026C13.935 53.1051 12.5987 53.6596 11.6137 54.6444C10.6287 55.6291 10.0755 56.9637 10.0755 58.3551V319.471C10.0755 320.862 10.6287 322.197 11.6137 323.181C12.5987 324.166 13.935 324.721 15.3293 324.723H201.468C202.863 324.721 204.201 324.167 205.187 323.182C206.174 322.198 206.729 320.863 206.731 319.471V58.3551C206.729 56.9628 206.174 55.6283 205.187 54.6438C204.201 53.6593 202.863 53.1051 201.468 53.1026H15.3293Z" fill="#EBEBEB"/>
<path d="M409.991 324.964H223.842C222.383 324.961 220.985 324.382 219.953 323.352C218.921 322.323 218.34 320.927 218.338 319.471V58.3551C218.353 56.9074 218.939 55.524 219.97 54.5048C221 53.4855 222.392 52.9126 223.842 52.9102H409.991C411.439 52.9152 412.827 53.4895 413.854 54.5087C414.88 55.528 415.463 56.9099 415.476 58.3551V319.471C415.476 320.924 414.899 322.319 413.87 323.348C412.842 324.378 411.447 324.959 409.991 324.964ZM223.842 53.1026C222.447 53.1051 221.11 53.6593 220.123 54.6438C219.137 55.6283 218.581 56.9628 218.579 58.3551V319.471C218.581 320.863 219.137 322.198 220.123 323.182C221.11 324.167 222.447 324.721 223.842 324.723H409.991C411.386 324.721 412.723 324.167 413.71 323.182C414.696 322.198 415.252 320.863 415.254 319.471V58.3551C415.252 56.9628 414.696 55.6283 413.71 54.6438C412.723 53.6593 411.386 53.1051 409.991 53.1026H223.842Z" fill="#EBEBEB"/>
<path d="M87.2052 117.364H85.7688V367.869H87.2052V117.364Z" fill="#F0F0F0"/>
<path d="M342.241 117.364H87.2051V367.869H342.241V117.364Z" fill="#F5F5F5"/>
<path d="M209.083 367.869L209.083 123.05H98.5416L98.5416 367.869H209.083Z" fill="#FAFAFA"/>
<path d="M113.966 367.869L149.422 123.05H158.84L123.384 367.869H113.966Z" fill="white"/>
<path d="M129.129 367.869L164.595 123.05H185.697L150.241 367.869H129.129Z" fill="white"/>
<path d="M330.895 367.869V123.05H220.353V367.869H330.895Z" fill="#FAFAFA"/>
<path d="M238.37 367.869L273.835 123.05H295.159L259.703 367.869H238.37Z" fill="white"/>
<path d="M265.449 367.869L300.914 123.05H322.016L286.56 367.869H265.449Z" fill="white"/>
<path d="M70.3543 125.061H22.7712V207.465H70.3543V125.061Z" fill="#E6E6E6"/>
<path d="M73.2657 125.061H25.6826V207.465H73.2657V125.061Z" fill="#F5F5F5"/>
<path d="M68.0503 201.606V130.899H30.9074L30.9074 201.606H68.0503Z" fill="#FAFAFA"/>
<path d="M40.615 201.616L51.807 130.909H58.3237L47.1316 201.616H40.615Z" fill="white"/>
<path d="M68.0408 201.616V130.909H65.8429V201.616H68.0408Z" fill="#E6E6E6"/>
<path d="M71.0966 180.452H27.8323V188.302H71.0966V180.452Z" fill="#F5F5F5"/>
<path d="M402.317 125.061H354.734V207.465H402.317V125.061Z" fill="#E6E6E6"/>
<path d="M405.229 125.061H357.646V207.465H405.229V125.061Z" fill="#F5F5F5"/>
<path d="M400.013 201.616V130.909H362.871V201.616H400.013Z" fill="#FAFAFA"/>
<path d="M372.588 201.616L383.77 130.909H390.287L379.104 201.616H372.588Z" fill="white"/>
<path d="M400.013 201.616V130.909H397.816V201.616H400.013Z" fill="#E6E6E6"/>
<path d="M403.069 180.452H359.805V188.302H403.069V180.452Z" fill="#F5F5F5"/>
<path d="M235.96 101.722L235.073 103.078H192.04V77.2773L235.96 101.722Z" fill="#EBEBEB"/>
<path d="M193.698 101.722H235.96L234.302 77.2773H192.04L193.698 101.722Z" fill="#FAFAFA"/>
<path d="M163.834 101.722L162.956 103.078H119.923V77.2773L163.834 101.722Z" fill="#EBEBEB"/>
<path d="M121.581 101.722H163.834L162.175 77.2773H119.923L121.581 101.722Z" fill="#FAFAFA"/>
<path d="M308.077 101.722L307.199 103.078H264.167V77.2773L308.077 101.722Z" fill="#EBEBEB"/>
<path d="M265.825 101.722H308.077L306.419 77.2773H264.167L265.825 101.722Z" fill="#FAFAFA"/>
<path d="M214 411.313C317.228 411.313 400.91 406.437 400.91 400.423C400.91 394.409 317.228 389.533 214 389.533C110.773 389.533 27.0901 394.409 27.0901 400.423C27.0901 406.437 110.773 411.313 214 411.313Z" fill="#F5F5F5"/>
<path d="M59.76 220.605C59.05 220.608 58.3698 220.891 57.8678 221.392C57.3658 221.893 57.0826 222.571 57.0801 223.28V400.422H62.4399V223.28C62.4374 222.571 62.1542 221.893 61.6522 221.392C61.1501 220.891 60.47 220.608 59.76 220.605Z" fill="#263238"/>
<path d="M368.24 220.605C367.53 220.608 366.85 220.891 366.348 221.392C365.846 221.893 365.563 222.571 365.56 223.28V400.422H370.92V223.28C370.917 222.571 370.634 221.893 370.132 221.392C369.63 220.891 368.95 220.608 368.24 220.605Z" fill="#263238"/>
<path d="M306.139 252.612C309.349 256.681 301.666 259.23 297.251 261.039C291.891 262.482 286.782 241.655 250.844 235.373C256.194 227.734 261.246 225.897 261.246 225.897C267.984 224.637 292.306 235.123 306.139 252.612Z" fill="#1769E9"/>
<path d="M278.202 227.994C276.168 231.669 310.506 251.91 297.251 261.02C297.251 261.02 311.711 258.076 313.109 248.947C312.608 238.826 283.774 222.338 291.457 217.354" fill="#1769E9"/>
<path opacity="0.2" d="M278.202 227.994C276.168 231.669 310.506 251.91 297.251 261.02C297.251 261.02 311.711 258.076 313.109 248.947C312.608 238.826 283.774 222.338 291.457 217.354" fill="black"/>
<path d="M365.56 230.101C355.091 223.598 315.76 214.882 291.457 217.374C283.745 218.999 278.202 228.013 278.202 228.013C310.178 227.349 354.416 236.777 365.56 248.023V230.101Z" fill="#1769E9"/>
<path d="M123.317 231.38C120.106 227.311 125.91 225.993 130.334 224.194C135.694 222.742 147.908 242.078 180.742 242.232C175.392 249.87 170.35 251.707 170.35 251.707C163.631 253.006 137.15 248.869 123.317 231.38Z" fill="#1769E9"/>
<path d="M151.253 255.969C153.287 252.303 117.079 233.294 130.334 224.223C130.334 224.223 117.716 225.925 116.337 235.055C116.848 245.175 145.681 261.664 137.998 266.647" fill="#1769E9"/>
<path opacity="0.2" d="M151.253 255.969C153.287 252.303 117.079 233.294 130.334 224.223C130.334 224.223 117.716 225.925 116.337 235.055C116.848 245.175 145.681 261.664 137.998 266.647" fill="black"/>
<path d="M62.4399 250.206C72.909 256.709 113.696 269.11 137.998 266.618C145.71 264.992 151.253 255.969 151.253 255.969C119.277 256.642 73.5838 241.337 62.4399 230.101V250.206Z" fill="#1769E9"/>
<path d="M240.597 387.388L247.904 385.378L245.185 367.956L237.878 369.967L240.597 387.388Z" fill="#FFC3BD"/>
<path d="M186.661 392.237H194.248L196.127 374.719H188.55L186.661 392.237Z" fill="#FFC3BD"/>
<path d="M194.865 391.361H185.63C185.479 391.362 185.333 391.414 185.215 391.508C185.098 391.603 185.016 391.734 184.984 391.881L183.48 398.615C183.445 398.779 183.448 398.948 183.488 399.111C183.527 399.273 183.603 399.425 183.71 399.554C183.816 399.683 183.95 399.787 184.103 399.858C184.255 399.928 184.421 399.964 184.588 399.962C187.567 399.914 189.736 399.731 193.476 399.731C195.78 399.731 202.731 399.971 205.912 399.971C209.093 399.971 209.508 396.835 208.206 396.546C202.365 395.277 197.969 393.516 196.099 391.842C195.762 391.534 195.322 391.362 194.865 391.361Z" fill="#263238"/>
<path d="M247.615 384.551L239.643 386.725C239.498 386.767 239.371 386.856 239.282 386.978C239.193 387.1 239.147 387.247 239.151 387.398L239.498 394.276C239.506 394.443 239.552 394.607 239.632 394.754C239.712 394.9 239.825 395.027 239.961 395.124C240.097 395.222 240.254 395.287 240.419 395.315C240.585 395.343 240.754 395.333 240.915 395.286C243.807 394.44 247.885 393.132 251.519 392.131C255.751 390.977 259.462 390.207 264.427 388.831C267.425 388.004 267.425 384.753 266.095 384.82C260.031 385.147 255.327 386.301 249.543 384.618C248.919 384.416 248.251 384.393 247.615 384.551Z" fill="#263238"/>
<path d="M226.763 155.844C227.13 156.191 227.66 156.662 228.132 157.076L229.617 158.355C230.581 159.202 231.632 160.029 232.673 160.828C234.712 162.415 236.832 163.895 239.025 165.262C241.105 166.58 243.295 167.716 245.571 168.658C247.568 169.503 249.692 170.007 251.856 170.149C252.319 170.149 252.82 170.149 253.206 170.149C252.541 170.313 252.57 170.467 252.734 170.351C253.451 169.808 254.082 169.16 254.604 168.427C256.111 166.363 257.461 164.19 258.643 161.924C261.178 157.201 263.559 152.122 265.844 147.119L271.291 148.774C270.211 154.456 268.66 160.039 266.654 165.464C265.599 168.361 264.282 171.156 262.721 173.815C261.754 175.472 260.531 176.965 259.096 178.24C257.893 179.283 256.437 179.993 254.874 180.299C253.917 180.461 252.951 180.561 251.982 180.597C248.504 180.694 245.038 180.143 241.763 178.971C238.763 177.938 235.873 176.61 233.135 175.008C230.498 173.486 227.967 171.789 225.558 169.928C224.363 169.014 223.206 168.062 222.059 167.09C221.49 166.6 220.912 166.128 220.362 165.59C219.813 165.051 219.283 164.579 218.646 163.945L226.763 155.844Z" fill="#FFC3BD"/>
<path d="M214.183 161.617C215.253 168.764 236.991 179 236.991 179L245.667 164.108C245.667 164.108 236.991 158.336 228.942 153.526C223.495 150.352 213.036 153.825 214.183 161.617Z" fill="#1769E9"/>
<path opacity="0.5" d="M214.183 161.617C215.253 168.764 236.991 179 236.991 179L245.667 164.108C245.667 164.108 236.991 158.336 228.942 153.526C223.495 150.352 213.036 153.825 214.183 161.617Z" fill="white"/>
<path d="M265.67 148.312L267.165 140.279L274.115 144.887C273.905 146.01 273.459 147.077 272.808 148.017C272.157 148.956 271.315 149.749 270.336 150.342L265.67 148.312Z" fill="#FFC3BD"/>
<path d="M268.62 134.979L274.722 139.259L274.115 144.887L267.165 140.279L268.62 134.979Z" fill="#FFC3BD"/>
<path d="M266.056 120.424L267.02 132.757V133.103L267.541 139.914C267.379 139.744 267.183 139.61 266.965 139.522C266.747 139.434 266.513 139.394 266.278 139.404C265.14 139.491 264.35 140.972 264.456 142.704C264.562 144.435 265.622 145.792 266.76 145.705C267.897 145.619 268.688 144.137 268.572 142.396C268.563 142.244 268.544 142.093 268.514 141.944C268.379 140.712 268.138 137.24 269.266 135.142C269.296 135.078 269.331 135.017 269.372 134.96C269.608 134.546 269.938 134.193 270.336 133.93C270.018 129.784 268.948 122.55 266.056 120.424ZM267.348 140.626C267.453 140.763 267.544 140.912 267.618 141.068C267.835 141.517 267.963 142.004 267.994 142.502C268.052 143.163 267.928 143.829 267.637 144.426C267.571 144.62 267.448 144.791 267.286 144.917C267.123 145.043 266.926 145.118 266.721 145.134C266.515 145.149 266.31 145.104 266.13 145.004C265.95 144.903 265.804 144.753 265.709 144.57C265.318 144.019 265.091 143.369 265.053 142.694C264.992 142.031 265.119 141.364 265.42 140.77C265.507 140.577 265.641 140.409 265.809 140.279C265.977 140.15 266.175 140.064 266.384 140.029C266.58 140.045 266.77 140.104 266.94 140.202C267.11 140.3 267.256 140.435 267.367 140.597L267.348 140.626Z" fill="#1769E9"/>
<path d="M272.582 136.258C272.438 136.443 272.334 136.655 272.277 136.883C272.221 137.11 272.213 137.346 272.254 137.576L257.38 124.82C257.38 128.389 262.605 133.536 265.786 136.258C268.389 135.296 272.187 138.529 273.324 139.568L273.652 139.876C274.983 141.011 276.66 141.232 277.402 140.376C278.144 139.52 277.662 137.884 276.342 136.749C275.021 135.614 273.324 135.393 272.582 136.258ZM277.084 138.827C277.155 139.02 277.18 139.226 277.157 139.43C277.133 139.634 277.062 139.829 276.949 140.001C276.798 140.139 276.615 140.238 276.417 140.29C276.219 140.342 276.011 140.345 275.812 140.299C275.145 140.188 274.523 139.891 274.019 139.443C273.624 139.125 273.297 138.733 273.055 138.288C272.971 138.132 272.903 137.968 272.852 137.798C272.781 137.607 272.756 137.402 272.779 137.2C272.803 136.997 272.874 136.803 272.987 136.634C273.137 136.494 273.319 136.393 273.518 136.339C273.716 136.286 273.924 136.281 274.125 136.326C274.783 136.456 275.396 136.754 275.903 137.193C276.411 137.632 276.794 138.195 277.017 138.827H277.084Z" fill="#1769E9"/>
<path opacity="0.3" d="M268.601 134.882C268.664 134.936 268.716 135.001 268.753 135.075C268.79 135.148 268.813 135.228 268.819 135.311C268.826 135.393 268.815 135.476 268.79 135.554C268.764 135.632 268.722 135.705 268.668 135.767C268.559 135.892 268.404 135.969 268.239 135.981C268.073 135.994 267.909 135.941 267.781 135.834C267.719 135.781 267.667 135.716 267.629 135.642C267.592 135.568 267.569 135.488 267.563 135.406C267.557 135.324 267.567 135.241 267.593 135.163C267.619 135.084 267.66 135.012 267.714 134.949C267.767 134.885 267.832 134.833 267.906 134.795C267.98 134.757 268.06 134.734 268.143 134.727C268.226 134.721 268.309 134.732 268.388 134.758C268.466 134.785 268.539 134.827 268.601 134.882Z" fill="black"/>
<path opacity="0.2" d="M245.185 367.966L246.583 376.941L239.276 378.952L237.869 369.976L245.185 367.966Z" fill="black"/>
<path opacity="0.2" d="M188.55 374.729H196.127L195.154 383.762H187.577L188.55 374.729Z" fill="black"/>
<path d="M184.116 155.171C186.339 163.336 187.95 171.654 188.936 180.058C189.659 185.916 190.083 191.505 190.353 196.585C190.98 208.475 190.719 217.537 191.076 220.635C197.005 220.231 219.341 218.711 231.564 217.826C237.068 174.795 226.551 152.631 226.551 152.631C223.365 152.034 220.146 151.633 216.911 151.429C216.227 151.429 215.523 151.361 214.819 151.352C209.069 151.419 203.326 151.817 197.622 152.544C196.542 152.67 195.443 152.833 194.383 153.006C188.84 153.853 184.116 155.171 184.116 155.171Z" fill="#1769E9"/>
<path opacity="0.5" d="M184.116 155.171C186.339 163.336 187.95 171.654 188.936 180.058C189.659 185.916 190.083 191.505 190.353 196.585C190.98 208.475 190.719 217.537 191.076 220.635C197.005 220.231 219.341 218.711 231.564 217.826C237.068 174.795 226.551 152.631 226.551 152.631C223.365 152.034 220.146 151.633 216.911 151.429C216.227 151.429 215.523 151.361 214.819 151.352C209.069 151.419 203.326 151.817 197.622 152.544C196.542 152.67 195.443 152.833 194.383 153.006C188.84 153.853 184.116 155.171 184.116 155.171Z" fill="white"/>
<path opacity="0.2" d="M194.286 166.061C194.353 172.251 192.615 178.328 189.283 183.55C189.167 182.395 189.032 181.231 188.888 180.058C188.348 175.652 187.654 171.092 186.729 166.484L194.286 166.061Z" fill="black"/>
<path d="M197.853 133.074C199.318 138.519 201.111 148.562 197.496 152.516C199.322 154.169 201.482 155.411 203.83 156.159C206.179 156.908 208.66 157.145 211.108 156.855C215.861 156.422 215.861 153.084 214.675 151.323C208.399 150.284 208.245 145.705 209.016 141.338L197.853 133.074Z" fill="#FFC3BD"/>
<path opacity="0.2" d="M202.432 136.45L209.045 141.328C208.853 142.346 208.75 143.379 208.737 144.416C206.355 144.242 202.953 141.886 202.509 139.432C202.299 138.452 202.273 137.44 202.432 136.45Z" fill="black"/>
<path d="M218.232 114.969C219.832 119.173 219.456 131.602 213.981 129.053C208.505 126.504 209.768 117.143 209.768 117.143C209.768 117.143 214.472 105.128 218.232 114.969Z" fill="#263238"/>
<path d="M196.648 124.82C197.612 132.256 197.834 136.662 201.882 140.212C207.975 145.59 216.979 141.521 218.27 133.93C219.408 127.1 217.605 116.076 210.067 113.613C208.403 113.056 206.623 112.935 204.899 113.26C203.174 113.585 201.562 114.346 200.216 115.471C198.87 116.595 197.835 118.044 197.21 119.681C196.586 121.318 196.392 123.087 196.648 124.82Z" fill="#FFC3BD"/>
<path d="M202.066 128.187C203.772 122.049 203.242 115.768 197.728 113.844C192.214 111.92 188.338 114.498 187.606 118.375C186.873 122.251 199.54 137.134 202.066 128.187Z" fill="#263238"/>
<path d="M198.769 117.874C209.132 118.836 221.972 119.654 221.298 110.957C220.623 102.261 208.573 102.405 206.365 104.906C206.365 104.906 210.289 107.562 206.201 107.148C198.306 106.34 186.006 107.321 189.678 115.681C192.387 121.828 198.769 117.874 198.769 117.874Z" fill="#263238"/>
<path d="M193.804 133.295C194.923 134.817 196.601 135.834 198.47 136.123C200.948 136.489 201.883 134.199 200.928 132.025C200.07 130.101 197.747 127.523 195.385 128.177C193.023 128.831 192.455 131.409 193.804 133.295Z" fill="#FFC3BD"/>
<path d="M248.858 374.507L236.48 377.903C236.48 377.903 227.641 330.505 225.414 307.042C224.739 299.904 222.849 289.957 220.468 279.317C217.47 265.916 213.72 251.419 210.616 240.067C207.368 228.11 204.89 219.654 204.89 219.654L231.477 217.797C231.477 217.797 247.595 280.529 248.376 303.607C249.196 327.6 248.858 374.507 248.858 374.507Z" fill="#263238"/>
<path opacity="0.2" d="M220.469 279.317C217.47 265.916 213.721 251.419 210.616 240.067L213.383 234.132C219.977 241.953 221.712 266.166 220.469 279.317Z" fill="black"/>
<path d="M217.133 218.798C217.133 218.798 214.241 283.56 211.06 305.493C207.56 329.543 198.663 382.011 198.663 382.011H184.771C184.771 382.011 184.54 332.237 188.888 308.966C193.843 282.473 191.037 220.616 191.037 220.616L217.133 218.798Z" fill="#263238"/>
<path d="M200.321 382.308H183.971V377.431L202.249 377.113L200.321 382.308Z" fill="#1769E9"/>
<path d="M250.497 374.362L235.748 378.422L234.437 373.67L250.854 368.879L250.497 374.362Z" fill="#1769E9"/>
<path d="M208.12 126.119C208.12 126.725 208.525 127.196 208.92 127.167C209.315 127.138 209.604 126.619 209.566 126.013C209.527 125.407 209.161 124.935 208.766 124.964C208.37 124.993 208.081 125.503 208.12 126.119Z" fill="#263238"/>
<path d="M215.012 125.637C215.012 126.243 215.417 126.715 215.812 126.686C216.207 126.657 216.497 126.137 216.458 125.531C216.42 124.925 216.063 124.454 215.658 124.483C215.253 124.512 214.964 125.06 215.012 125.637Z" fill="#263238"/>
<path d="M212.843 126.09C213.699 127.9 214.802 129.584 216.121 131.092C215.723 131.42 215.258 131.657 214.758 131.787C214.259 131.917 213.737 131.936 213.229 131.843L212.843 126.09Z" fill="#ED847E"/>
<path d="M205.825 124.04C205.891 124.045 205.957 124.032 206.016 124.004C206.075 123.975 206.126 123.931 206.163 123.877C206.4 123.494 206.725 123.171 207.11 122.936C207.495 122.7 207.93 122.558 208.38 122.52C208.474 122.52 208.565 122.483 208.632 122.416C208.699 122.349 208.737 122.259 208.737 122.165C208.737 122.07 208.699 121.98 208.632 121.913C208.565 121.846 208.474 121.809 208.38 121.809C207.811 121.842 207.258 122.012 206.768 122.303C206.278 122.594 205.865 122.999 205.565 123.482C205.538 123.522 205.52 123.567 205.511 123.613C205.502 123.66 205.502 123.708 205.512 123.755C205.522 123.802 205.541 123.846 205.568 123.885C205.596 123.924 205.631 123.957 205.671 123.983C205.718 124.012 205.771 124.031 205.825 124.04Z" fill="#263238"/>
<path d="M210.578 134.815C209.692 134.798 208.824 134.568 208.045 134.147C207.267 133.725 206.602 133.123 206.105 132.391C206.08 132.347 206.073 132.296 206.086 132.247C206.098 132.199 206.129 132.157 206.172 132.131C206.194 132.117 206.219 132.108 206.245 132.104C206.27 132.1 206.297 132.101 206.322 132.107C206.347 132.114 206.371 132.125 206.391 132.141C206.412 132.156 206.429 132.176 206.442 132.198C206.909 132.869 207.528 133.42 208.248 133.808C208.968 134.196 209.77 134.409 210.587 134.43C210.613 134.43 210.639 134.435 210.662 134.446C210.686 134.456 210.707 134.471 210.724 134.49C210.742 134.509 210.755 134.532 210.763 134.556C210.771 134.581 210.773 134.607 210.771 134.632C210.771 134.657 210.766 134.682 210.756 134.704C210.746 134.727 210.732 134.748 210.714 134.765C210.696 134.782 210.674 134.795 210.651 134.804C210.628 134.813 210.603 134.816 210.578 134.815Z" fill="#263238"/>
<path d="M217.856 123.059C217.925 123.081 217.999 123.081 218.068 123.059C218.11 123.036 218.146 123.005 218.175 122.968C218.205 122.931 218.226 122.888 218.239 122.842C218.251 122.797 218.255 122.749 218.249 122.702C218.242 122.655 218.227 122.61 218.203 122.569C217.93 122.069 217.54 121.642 217.067 121.324C216.594 121.005 216.051 120.806 215.485 120.741C215.438 120.738 215.391 120.745 215.346 120.76C215.302 120.776 215.261 120.8 215.227 120.831C215.192 120.863 215.163 120.9 215.143 120.943C215.123 120.985 215.111 121.031 215.109 121.077C215.106 121.171 215.139 121.263 215.202 121.332C215.265 121.402 215.352 121.445 215.446 121.453C215.892 121.517 216.317 121.684 216.687 121.941C217.057 122.199 217.362 122.539 217.576 122.934C217.612 122.973 217.655 123.004 217.703 123.026C217.751 123.047 217.803 123.059 217.856 123.059Z" fill="#263238"/>
<path d="M197.371 392.689C197.889 392.728 198.405 392.593 198.836 392.304C198.973 392.187 199.078 392.037 199.142 391.869C199.206 391.701 199.227 391.52 199.202 391.342C199.205 391.238 199.177 391.135 199.123 391.046C199.068 390.957 198.988 390.886 198.894 390.842C198.055 390.409 195.616 391.91 195.337 392.083C195.308 392.101 195.284 392.126 195.269 392.157C195.253 392.188 195.247 392.222 195.25 392.256C195.257 392.291 195.273 392.324 195.297 392.351C195.32 392.378 195.351 392.398 195.385 392.41C196.035 392.575 196.701 392.669 197.371 392.689ZM198.499 391.121C198.579 391.114 198.659 391.131 198.73 391.169C198.778 391.169 198.836 391.236 198.846 391.38C198.863 391.499 198.849 391.621 198.807 391.733C198.765 391.846 198.696 391.946 198.605 392.025C197.758 392.41 196.796 392.458 195.915 392.16C196.701 391.65 197.578 391.297 198.499 391.121Z" fill="#1769E9"/>
<path d="M195.433 392.419H195.52C196.301 391.996 197.824 390.332 197.66 389.533C197.634 389.402 197.563 389.283 197.459 389.197C197.356 389.112 197.226 389.064 197.092 389.062C196.954 389.043 196.814 389.053 196.681 389.093C196.547 389.133 196.425 389.201 196.32 389.293C195.443 390.005 195.26 392.179 195.25 392.285C195.25 392.317 195.257 392.349 195.273 392.378C195.288 392.406 195.31 392.431 195.337 392.448C195.371 392.449 195.405 392.439 195.433 392.419ZM196.966 389.351H197.043C197.275 389.351 197.294 389.485 197.304 389.533C197.4 390.024 196.436 391.284 195.655 391.871C195.706 391.01 196.019 390.184 196.552 389.505C196.666 389.405 196.814 389.35 196.966 389.351Z" fill="#1769E9"/>
<path d="M248.608 385.358C249.851 385.271 252.03 384.983 252.637 384.05C252.735 383.911 252.795 383.749 252.81 383.58C252.826 383.411 252.796 383.241 252.724 383.088C252.695 382.993 252.642 382.907 252.569 382.839C252.496 382.771 252.407 382.724 252.309 382.703C251.345 382.472 248.762 384.752 248.453 385.012C248.426 385.033 248.406 385.063 248.396 385.096C248.386 385.13 248.386 385.165 248.396 385.198C248.407 385.232 248.427 385.261 248.454 385.283C248.482 385.304 248.515 385.317 248.55 385.32L248.608 385.358ZM252.203 383.088H252.261C252.298 383.097 252.333 383.116 252.36 383.143C252.387 383.17 252.406 383.204 252.415 383.242C252.459 383.341 252.477 383.449 252.467 383.557C252.457 383.665 252.419 383.768 252.358 383.857C252.02 384.377 250.834 384.819 249.147 384.954C250.169 384.079 251.596 383.02 252.203 383.088Z" fill="#1769E9"/>
<path d="M248.608 385.358C248.629 385.367 248.652 385.371 248.675 385.371C248.698 385.371 248.721 385.367 248.743 385.358C249.514 384.723 250.825 382.664 250.468 381.875C250.381 381.693 250.179 381.491 249.687 381.568C249.511 381.598 249.343 381.662 249.192 381.758C249.041 381.854 248.912 381.979 248.81 382.126C248.087 383.145 248.434 385.165 248.453 385.252C248.46 385.282 248.473 385.311 248.494 385.334C248.514 385.358 248.54 385.376 248.569 385.387L248.608 385.358ZM249.957 381.875C249.996 381.873 250.035 381.882 250.068 381.903C250.101 381.924 250.126 381.955 250.14 381.991C250.352 382.462 249.514 384.021 248.762 384.81C248.61 383.958 248.728 383.08 249.099 382.299C249.173 382.189 249.268 382.096 249.379 382.025C249.49 381.954 249.615 381.906 249.745 381.885C249.817 381.88 249.889 381.89 249.957 381.914V381.875Z" fill="#1769E9"/>
<path d="M191.423 166.946L188.676 169.832C187.712 170.794 186.834 171.756 185.928 172.805C184.116 174.796 182.362 176.835 180.655 178.894C178.949 180.953 177.32 183.05 175.835 185.186C175.074 186.253 174.399 187.34 173.695 188.418L172.731 190.053L172.615 190.255C172.615 190.303 172.615 190.198 172.615 190.178C172.623 190.108 172.623 190.037 172.615 189.967C172.615 189.89 172.615 189.832 172.615 189.89C172.588 190.635 172.713 191.378 172.982 192.073C173.349 193.193 173.8 194.283 174.331 195.335C175.483 197.694 176.77 199.984 178.187 202.194C181.079 206.744 184.299 211.323 187.557 215.748L183.412 219.596C179.049 215.777 174.994 211.622 171.285 207.167C169.356 204.865 167.584 202.435 165.983 199.895C165.126 198.504 164.369 197.054 163.718 195.556C162.846 193.669 162.379 191.621 162.349 189.543C162.357 188.815 162.444 188.089 162.609 187.379C162.704 186.968 162.833 186.566 162.995 186.176L163.236 185.618L163.361 185.349L164.373 183.262C165.087 181.915 165.8 180.549 166.61 179.279C168.144 176.721 169.821 174.251 171.632 171.881C173.396 169.515 175.266 167.254 177.214 165.061C178.178 163.973 179.142 162.896 180.202 161.838C181.263 160.78 182.217 159.77 183.383 158.673L191.423 166.946Z" fill="#FFC3BD"/>
<path d="M184.974 214.661L192.686 214.43L188.936 223.328C188.936 223.328 182.342 222.068 182.622 218.518L184.974 214.661Z" fill="#FFC3BD"/>
<path d="M197.795 218.133L194.334 225.348L188.897 223.328L192.667 214.43L197.795 218.133Z" fill="#FFC3BD"/>
<path d="M186.179 154.777C178.939 155.075 167.718 170.101 167.718 170.101L179.527 186.09C179.527 186.09 187.914 177.432 193.081 169.659C198.711 161.164 194.951 154.401 186.179 154.777Z" fill="#1769E9"/>
<path opacity="0.5" d="M186.179 154.777C178.939 155.075 167.718 170.101 167.718 170.101L179.527 186.09C179.527 186.09 187.914 177.432 193.081 169.659C198.711 161.164 194.951 154.401 186.179 154.777Z" fill="white"/>
</svg>
