<svg width="424" height="423" viewBox="0 0 424 423" fill="none" xmlns="http://www.w3.org/2000/svg">
<path d="M424 323.511H0V323.722H424V323.511Z" fill="#EBEBEB"/>
<path d="M381.515 337.123H353.429V337.335H381.515V337.123Z" fill="#EBEBEB"/>
<path d="M280.874 339.424H273.505V339.635H280.874V339.424Z" fill="#EBEBEB"/>
<path d="M352.581 329.271H336.308V329.483H352.581V329.271Z" fill="#EBEBEB"/>
<path d="M81.1112 330.693H44.4861V330.905H81.1112V330.693Z" fill="#EBEBEB"/>
<path d="M94.0348 330.693H88.667V330.905H94.0348V330.693Z" fill="#EBEBEB"/>
<path d="M190.927 334.264H111.487V334.475H190.927V334.264Z" fill="#EBEBEB"/>
<path d="M200.976 285.779H37.2357C35.953 285.777 34.7235 285.267 33.8173 284.361C32.9111 283.456 32.4021 282.228 32.4021 280.948V51.3186C32.4133 50.0463 32.9272 48.8297 33.8322 47.9331C34.7372 47.0366 35.9603 46.5325 37.2357 46.5303H200.976C202.26 46.5303 203.492 47.0392 204.4 47.9451C205.308 48.8511 205.818 50.0798 205.818 51.3609V280.948C205.818 282.23 205.308 283.458 204.4 284.364C203.492 285.27 202.26 285.779 200.976 285.779ZM37.2357 46.6995C36.0092 46.7017 34.8337 47.1894 33.9672 48.0554C33.1007 48.9214 32.6141 50.095 32.6141 51.3186V280.948C32.6141 282.172 33.1007 283.346 33.9672 284.212C34.8337 285.078 36.0092 285.565 37.2357 285.568H200.976C202.203 285.565 203.38 285.078 204.248 284.212C205.115 283.346 205.604 282.173 205.606 280.948V51.3186C205.604 50.0942 205.115 48.9206 204.248 48.0549C203.38 47.1891 202.203 46.7017 200.976 46.6995H37.2357Z" fill="#EBEBEB"/>
<path d="M384.407 285.779H220.658C219.374 285.777 218.144 285.267 217.237 284.362C216.329 283.456 215.818 282.229 215.816 280.948V51.3186C215.829 50.0455 216.345 48.8289 217.251 47.9326C218.158 47.0363 219.382 46.5324 220.658 46.5303H384.407C385.681 46.5347 386.902 47.0398 387.805 47.9361C388.708 48.8324 389.221 50.0477 389.232 51.3186V280.948C389.232 282.227 388.724 283.453 387.82 284.358C386.915 285.264 385.688 285.775 384.407 285.779ZM220.658 46.6995C219.431 46.7017 218.254 47.1891 217.387 48.0549C216.519 48.9206 216.03 50.0942 216.028 51.3186V280.948C216.03 282.173 216.519 283.346 217.387 284.212C218.254 285.078 219.431 285.565 220.658 285.568H384.407C385.634 285.565 386.81 285.078 387.678 284.212C388.546 283.346 389.035 282.173 389.037 280.948V51.3186C389.035 50.0942 388.546 48.9206 387.678 48.0549C386.81 47.1891 385.634 46.7017 384.407 46.6995H220.658Z" fill="#EBEBEB"/>
<path d="M147.552 123.516V60.0664H50.032V315.558H62.752V77.8916L108.697 72.7564L108.9 72.9764L109.112 72.7141L131.94 70.1761L132.195 70.4553L132.466 70.1169L145.008 68.6871V123.516H131.44V130.284H160.272V123.516H147.552ZM81.8829 64.491L89.5149 72.3419L73.776 74.1015L81.8829 64.491ZM71.5881 72.7564L64.1597 62.6044H80.1529L71.5881 72.7564ZM83.5873 62.6044H99.216L91.6857 70.8867L83.5873 62.6044ZM145.008 63.6704V66.1322L143.024 66.3522L145.008 63.6704ZM140.819 65.0663L138.538 62.6044H142.634L140.819 65.0663ZM135.188 62.6044L132.059 66.5214L128.472 62.6044H135.188ZM125.122 62.6044L121.349 67.3335L117.211 62.6044H125.122ZM113.895 62.6044L108.739 69.0848L102.659 62.6044H113.895ZM62.752 64.9817L69.7819 74.5499L62.752 75.3367V64.9817ZM94.2637 71.8089L100.912 64.4741L106.509 70.4384L94.2637 71.8089ZM115.565 64.584L119.432 68.9917L111.342 69.8969L115.565 64.584ZM123.655 68.5264L126.818 64.5671L129.82 67.8411L123.655 68.5264ZM136.884 64.5587L138.97 66.8344L134.73 67.3082L136.884 64.5587Z" fill="#E0E0E0"/>
<path d="M118.72 136.206H100.912V127.746H98.3681V136.206H81.4081V120.132H78.0161V296.946H122.112V125.208H118.72V136.206ZM98.3681 149.742H81.4081V140.436H98.3681V149.742ZM118.72 149.742H100.912V140.436H118.72V149.742Z" fill="#E0E0E0"/>
<path d="M384.119 323.173V279.891H380.413V259.266H374.986V187.559H367.142V178.304L350.411 170.512V161.189H348.087V187.559H344.839V259.266H341.6V221.56H332.789V202.127H330.33V259.266H323.639V237.524H319.23V231.965H309.028V212.998H303.44V199.581H296.571V180.038H294.12V199.581H287.252V212.998H281.663V231.965H271.462V237.524H267.061V259.266H261.837V231.965H251.636V173.219H248.388V166.739H226.594V173.219H221.956V215.781H203.401V219.944H196.448V223.184H203.401V239.833H183.931V184.319H179.751V172.517H170.711V130.648H168.158V172.517H161.671V184.319H123.605V180.436H121.289V206.805H118.042V207.271H116.091V233.64H112.843V240.806H105.983V221.382H103.524V267.641H100.793V248.209H98.3341V278.512H96.8332V256.77H92.4321V251.22H82.2306V232.253H76.6423V218.835H69.7735V199.284H67.3228V218.835H60.454V232.253H54.8657V251.22H44.6642V256.77H40.2631V278.055H39.466V278.512H37.2866V323.173H384.119Z" fill="#EBEBEB"/>
<path d="M147.476 186.915H144.847V189.538H147.476V186.915Z" fill="#F5F5F5"/>
<path d="M147.476 191.307H144.847V193.929H147.476V191.307Z" fill="#F5F5F5"/>
<path d="M147.476 208.886H144.847V211.508H147.476V208.886Z" fill="#F5F5F5"/>
<path d="M147.476 213.285H144.847V215.908H147.476V213.285Z" fill="#F5F5F5"/>
<path d="M147.476 217.676H144.847V220.298H147.476V217.676Z" fill="#F5F5F5"/>
<path d="M147.476 230.865H144.847V233.488H147.476V230.865Z" fill="#F5F5F5"/>
<path d="M147.476 235.256H144.847V237.878H147.476V235.256Z" fill="#F5F5F5"/>
<path d="M151.648 204.495H149.019V207.118H151.648V204.495Z" fill="#F5F5F5"/>
<path d="M151.648 208.886H149.019V211.508H151.648V208.886Z" fill="#F5F5F5"/>
<path d="M151.648 213.285H149.019V215.908H151.648V213.285Z" fill="#F5F5F5"/>
<path d="M151.648 217.676H149.019V220.298H151.648V217.676Z" fill="#F5F5F5"/>
<path d="M151.648 222.075H149.019V224.698H151.648V222.075Z" fill="#F5F5F5"/>
<path d="M151.648 230.865H149.019V233.488H151.648V230.865Z" fill="#F5F5F5"/>
<path d="M151.648 235.256H149.019V237.878H151.648V235.256Z" fill="#F5F5F5"/>
<path d="M155.82 186.915H153.191V189.538H155.82V186.915Z" fill="#F5F5F5"/>
<path d="M155.82 191.307H153.191V193.929H155.82V191.307Z" fill="#F5F5F5"/>
<path d="M155.82 195.705H153.191V198.328H155.82V195.705Z" fill="#F5F5F5"/>
<path d="M155.82 200.097H153.191V202.719H155.82V200.097Z" fill="#F5F5F5"/>
<path d="M155.82 204.495H153.191V207.118H155.82V204.495Z" fill="#F5F5F5"/>
<path d="M155.82 208.886H153.191V211.508H155.82V208.886Z" fill="#F5F5F5"/>
<path d="M155.82 213.285H153.191V215.908H155.82V213.285Z" fill="#F5F5F5"/>
<path d="M155.82 217.676H153.191V220.298H155.82V217.676Z" fill="#F5F5F5"/>
<path d="M155.82 222.075H153.191V224.698H155.82V222.075Z" fill="#F5F5F5"/>
<path d="M155.82 226.466H153.191V229.088H155.82V226.466Z" fill="#F5F5F5"/>
<path d="M155.82 235.256H153.191V237.878H155.82V235.256Z" fill="#F5F5F5"/>
<path d="M159.992 186.915H157.363V189.538H159.992V186.915Z" fill="#F5F5F5"/>
<path d="M159.992 191.307H157.363V193.929H159.992V191.307Z" fill="#F5F5F5"/>
<path d="M159.992 195.705H157.363V198.328H159.992V195.705Z" fill="#F5F5F5"/>
<path d="M159.992 200.097H157.363V202.719H159.992V200.097Z" fill="#F5F5F5"/>
<path d="M159.992 204.495H157.363V207.118H159.992V204.495Z" fill="#F5F5F5"/>
<path d="M159.992 208.886H157.363V211.508H159.992V208.886Z" fill="#F5F5F5"/>
<path d="M159.992 213.285H157.363V215.908H159.992V213.285Z" fill="#F5F5F5"/>
<path d="M159.992 252.836H157.363V255.459H159.992V252.836Z" fill="#F5F5F5"/>
<path d="M164.164 186.915H161.536V189.538H164.164V186.915Z" fill="#F5F5F5"/>
<path d="M164.164 191.307H161.536V193.929H164.164V191.307Z" fill="#F5F5F5"/>
<path d="M164.164 195.705H161.536V198.328H164.164V195.705Z" fill="#F5F5F5"/>
<path d="M164.164 200.097H161.536V202.719H164.164V200.097Z" fill="#F5F5F5"/>
<path d="M164.164 204.495H161.536V207.118H164.164V204.495Z" fill="#F5F5F5"/>
<path d="M164.164 208.886H161.536V211.508H164.164V208.886Z" fill="#F5F5F5"/>
<path d="M164.164 213.285H161.536V215.908H164.164V213.285Z" fill="#F5F5F5"/>
<path d="M164.164 217.676H161.536V220.298H164.164V217.676Z" fill="#F5F5F5"/>
<path d="M164.164 244.046H161.536V246.669H164.164V244.046Z" fill="#F5F5F5"/>
<path d="M164.164 248.445H161.536V251.068H164.164V248.445Z" fill="#F5F5F5"/>
<path d="M164.164 252.836H161.536V255.459H164.164V252.836Z" fill="#F5F5F5"/>
<path d="M164.164 257.235H161.536V259.858H164.164V257.235Z" fill="#F5F5F5"/>
<path d="M164.164 274.814H161.536V277.437H164.164V274.814Z" fill="#F5F5F5"/>
<path d="M168.345 186.915H165.716V189.538H168.345V186.915Z" fill="#F5F5F5"/>
<path d="M168.345 191.307H165.716V193.929H168.345V191.307Z" fill="#F5F5F5"/>
<path d="M168.345 195.705H165.716V198.328H168.345V195.705Z" fill="#F5F5F5"/>
<path d="M168.345 200.097H165.716V202.719H168.345V200.097Z" fill="#F5F5F5"/>
<path d="M168.345 204.495H165.716V207.118H168.345V204.495Z" fill="#F5F5F5"/>
<path d="M168.345 208.886H165.716V211.508H168.345V208.886Z" fill="#F5F5F5"/>
<path d="M168.345 213.285H165.716V215.908H168.345V213.285Z" fill="#F5F5F5"/>
<path d="M168.345 217.676H165.716V220.298H168.345V217.676Z" fill="#F5F5F5"/>
<path d="M168.345 222.075H165.716V224.698H168.345V222.075Z" fill="#F5F5F5"/>
<path d="M168.345 226.466H165.716V229.088H168.345V226.466Z" fill="#F5F5F5"/>
<path d="M168.345 239.655H165.716V242.278H168.345V239.655Z" fill="#F5F5F5"/>
<path d="M168.345 244.046H165.716V246.669H168.345V244.046Z" fill="#F5F5F5"/>
<path d="M168.345 248.445H165.716V251.068H168.345V248.445Z" fill="#F5F5F5"/>
<path d="M168.345 252.836H165.716V255.459H168.345V252.836Z" fill="#F5F5F5"/>
<path d="M168.345 257.235H165.716V259.858H168.345V257.235Z" fill="#F5F5F5"/>
<path d="M168.345 274.814H165.716V277.437H168.345V274.814Z" fill="#F5F5F5"/>
<path d="M172.517 186.915H169.888V189.538H172.517V186.915Z" fill="#F5F5F5"/>
<path d="M172.517 191.307H169.888V193.929H172.517V191.307Z" fill="#F5F5F5"/>
<path d="M172.517 195.705H169.888V198.328H172.517V195.705Z" fill="#F5F5F5"/>
<path d="M172.517 200.097H169.888V202.719H172.517V200.097Z" fill="#F5F5F5"/>
<path d="M172.517 204.495H169.888V207.118H172.517V204.495Z" fill="#F5F5F5"/>
<path d="M172.517 208.886H169.888V211.508H172.517V208.886Z" fill="#F5F5F5"/>
<path d="M172.517 213.285H169.888V215.908H172.517V213.285Z" fill="#F5F5F5"/>
<path d="M172.517 217.676H169.888V220.298H172.517V217.676Z" fill="#F5F5F5"/>
<path d="M172.517 222.075H169.888V224.698H172.517V222.075Z" fill="#F5F5F5"/>
<path d="M172.517 226.466H169.888V229.088H172.517V226.466Z" fill="#F5F5F5"/>
<path d="M172.517 230.865H169.888V233.488H172.517V230.865Z" fill="#F5F5F5"/>
<path d="M172.517 235.256H169.888V237.878H172.517V235.256Z" fill="#F5F5F5"/>
<path d="M172.517 239.655H169.888V242.278H172.517V239.655Z" fill="#F5F5F5"/>
<path d="M172.517 244.046H169.888V246.669H172.517V244.046Z" fill="#F5F5F5"/>
<path d="M172.517 248.445H169.888V251.068H172.517V248.445Z" fill="#F5F5F5"/>
<path d="M172.517 252.836H169.888V255.459H172.517V252.836Z" fill="#F5F5F5"/>
<path d="M172.517 257.235H169.888V259.858H172.517V257.235Z" fill="#F5F5F5"/>
<path d="M172.517 261.626H169.888V264.249H172.517V261.626Z" fill="#F5F5F5"/>
<path d="M176.689 186.915H174.061V189.538H176.689V186.915Z" fill="#F5F5F5"/>
<path d="M176.689 191.307H174.061V193.929H176.689V191.307Z" fill="#F5F5F5"/>
<path d="M176.689 195.705H174.061V198.328H176.689V195.705Z" fill="#F5F5F5"/>
<path d="M176.689 200.097H174.061V202.719H176.689V200.097Z" fill="#F5F5F5"/>
<path d="M176.689 204.495H174.061V207.118H176.689V204.495Z" fill="#F5F5F5"/>
<path d="M176.689 208.886H174.061V211.508H176.689V208.886Z" fill="#F5F5F5"/>
<path d="M176.689 213.285H174.061V215.908H176.689V213.285Z" fill="#F5F5F5"/>
<path d="M176.689 217.676H174.061V220.298H176.689V217.676Z" fill="#F5F5F5"/>
<path d="M176.689 222.075H174.061V224.698H176.689V222.075Z" fill="#F5F5F5"/>
<path d="M176.689 226.466H174.061V229.088H176.689V226.466Z" fill="#F5F5F5"/>
<path d="M176.689 239.655H174.061V242.278H176.689V239.655Z" fill="#F5F5F5"/>
<path d="M176.689 244.046H174.061V246.669H176.689V244.046Z" fill="#F5F5F5"/>
<path d="M176.689 248.445H174.061V251.068H176.689V248.445Z" fill="#F5F5F5"/>
<path d="M176.689 252.836H174.061V255.459H176.689V252.836Z" fill="#F5F5F5"/>
<path d="M180.861 186.915H178.233V189.538H180.861V186.915Z" fill="#F5F5F5"/>
<path d="M180.861 191.307H178.233V193.929H180.861V191.307Z" fill="#F5F5F5"/>
<path d="M180.861 195.705H178.233V198.328H180.861V195.705Z" fill="#F5F5F5"/>
<path d="M180.861 200.097H178.233V202.719H180.861V200.097Z" fill="#F5F5F5"/>
<path d="M180.861 204.495H178.233V207.118H180.861V204.495Z" fill="#F5F5F5"/>
<path d="M180.861 208.886H178.233V211.508H180.861V208.886Z" fill="#F5F5F5"/>
<path d="M180.861 213.285H178.233V215.908H180.861V213.285Z" fill="#F5F5F5"/>
<path d="M180.861 217.676H178.233V220.298H180.861V217.676Z" fill="#F5F5F5"/>
<path d="M180.861 222.075H178.233V224.698H180.861V222.075Z" fill="#F5F5F5"/>
<path d="M180.861 226.466H178.233V229.088H180.861V226.466Z" fill="#F5F5F5"/>
<path d="M180.861 239.655H178.233V242.278H180.861V239.655Z" fill="#F5F5F5"/>
<path d="M180.861 244.046H178.233V246.669H180.861V244.046Z" fill="#F5F5F5"/>
<path d="M180.861 248.445H178.233V251.068H180.861V248.445Z" fill="#F5F5F5"/>
<path d="M227.849 175.503H225.22V178.126H227.849V175.503Z" fill="#F5F5F5"/>
<path d="M227.849 179.894H225.22V182.516H227.849V179.894Z" fill="#F5F5F5"/>
<path d="M227.849 184.293H225.22V186.916H227.849V184.293Z" fill="#F5F5F5"/>
<path d="M227.849 188.684H225.22V191.306H227.849V188.684Z" fill="#F5F5F5"/>
<path d="M227.849 193.083H225.22V195.706H227.849V193.083Z" fill="#F5F5F5"/>
<path d="M227.849 197.474H225.22V200.096H227.849V197.474Z" fill="#F5F5F5"/>
<path d="M227.849 201.873H225.22V204.496H227.849V201.873Z" fill="#F5F5F5"/>
<path d="M227.849 206.264H225.22V208.886H227.849V206.264Z" fill="#F5F5F5"/>
<path d="M227.849 219.453H225.22V222.076H227.849V219.453Z" fill="#F5F5F5"/>
<path d="M227.849 223.844H225.22V226.466H227.849V223.844Z" fill="#F5F5F5"/>
<path d="M232.03 175.503H229.401V178.126H232.03V175.503Z" fill="#F5F5F5"/>
<path d="M232.03 179.894H229.401V182.516H232.03V179.894Z" fill="#F5F5F5"/>
<path d="M232.03 184.293H229.401V186.916H232.03V184.293Z" fill="#F5F5F5"/>
<path d="M232.03 188.684H229.401V191.306H232.03V188.684Z" fill="#F5F5F5"/>
<path d="M232.03 193.083H229.401V195.706H232.03V193.083Z" fill="#F5F5F5"/>
<path d="M232.03 197.474H229.401V200.096H232.03V197.474Z" fill="#F5F5F5"/>
<path d="M232.03 201.873H229.401V204.496H232.03V201.873Z" fill="#F5F5F5"/>
<path d="M232.03 206.264H229.401V208.886H232.03V206.264Z" fill="#F5F5F5"/>
<path d="M232.03 223.844H229.401V226.466H232.03V223.844Z" fill="#F5F5F5"/>
<path d="M236.202 175.503H233.573V178.126H236.202V175.503Z" fill="#F5F5F5"/>
<path d="M236.202 179.894H233.573V182.516H236.202V179.894Z" fill="#F5F5F5"/>
<path d="M236.202 184.293H233.573V186.916H236.202V184.293Z" fill="#F5F5F5"/>
<path d="M236.202 188.684H233.573V191.306H236.202V188.684Z" fill="#F5F5F5"/>
<path d="M236.202 193.083H233.573V195.706H236.202V193.083Z" fill="#F5F5F5"/>
<path d="M236.202 197.474H233.573V200.096H236.202V197.474Z" fill="#F5F5F5"/>
<path d="M236.202 201.873H233.573V204.496H236.202V201.873Z" fill="#F5F5F5"/>
<path d="M236.202 206.264H233.573V208.886H236.202V206.264Z" fill="#F5F5F5"/>
<path d="M240.374 175.503H237.745V178.126H240.374V175.503Z" fill="#F5F5F5"/>
<path d="M240.374 179.894H237.745V182.516H240.374V179.894Z" fill="#F5F5F5"/>
<path d="M240.374 184.293H237.745V186.916H240.374V184.293Z" fill="#F5F5F5"/>
<path d="M240.374 188.684H237.745V191.306H240.374V188.684Z" fill="#F5F5F5"/>
<path d="M240.374 193.083H237.745V195.706H240.374V193.083Z" fill="#F5F5F5"/>
<path d="M240.374 197.474H237.745V200.096H240.374V197.474Z" fill="#F5F5F5"/>
<path d="M240.374 206.264H237.745V208.886H240.374V206.264Z" fill="#F5F5F5"/>
<path d="M240.374 210.663H237.745V213.286H240.374V210.663Z" fill="#F5F5F5"/>
<path d="M240.374 223.844H237.745V226.466H240.374V223.844Z" fill="#F5F5F5"/>
<path d="M240.374 228.242H237.745V230.865H240.374V228.242Z" fill="#F5F5F5"/>
<path d="M240.374 232.634H237.745V235.256H240.374V232.634Z" fill="#F5F5F5"/>
<path d="M240.374 237.032H237.745V239.655H240.374V237.032Z" fill="#F5F5F5"/>
<path d="M240.374 241.423H237.745V244.045H240.374V241.423Z" fill="#F5F5F5"/>
<path d="M240.374 245.822H237.745V248.445H240.374V245.822Z" fill="#F5F5F5"/>
<path d="M240.374 250.213H237.745V252.835H240.374V250.213Z" fill="#F5F5F5"/>
<path d="M244.546 175.503H241.917V178.126H244.546V175.503Z" fill="#F5F5F5"/>
<path d="M244.546 179.894H241.917V182.516H244.546V179.894Z" fill="#F5F5F5"/>
<path d="M244.546 184.293H241.917V186.916H244.546V184.293Z" fill="#F5F5F5"/>
<path d="M244.546 188.684H241.917V191.306H244.546V188.684Z" fill="#F5F5F5"/>
<path d="M244.546 193.083H241.917V195.706H244.546V193.083Z" fill="#F5F5F5"/>
<path d="M244.546 197.474H241.917V200.096H244.546V197.474Z" fill="#F5F5F5"/>
<path d="M244.546 210.663H241.917V213.286H244.546V210.663Z" fill="#F5F5F5"/>
<path d="M244.546 215.053H241.917V217.675H244.546V215.053Z" fill="#F5F5F5"/>
<path d="M244.546 219.453H241.917V222.076H244.546V219.453Z" fill="#F5F5F5"/>
<path d="M244.546 223.844H241.917V226.466H244.546V223.844Z" fill="#F5F5F5"/>
<path d="M244.546 228.242H241.917V230.865H244.546V228.242Z" fill="#F5F5F5"/>
<path d="M244.546 232.634H241.917V235.256H244.546V232.634Z" fill="#F5F5F5"/>
<path d="M244.546 237.032H241.917V239.655H244.546V237.032Z" fill="#F5F5F5"/>
<path d="M244.546 241.423H241.917V244.045H244.546V241.423Z" fill="#F5F5F5"/>
<path d="M244.546 245.822H241.917V248.445H244.546V245.822Z" fill="#F5F5F5"/>
<path d="M244.546 250.213H241.917V252.835H244.546V250.213Z" fill="#F5F5F5"/>
<path d="M244.546 254.612H241.917V257.235H244.546V254.612Z" fill="#F5F5F5"/>
<path d="M244.546 263.402H241.917V266.025H244.546V263.402Z" fill="#F5F5F5"/>
<path d="M248.718 175.503H246.09V178.126H248.718V175.503Z" fill="#F5F5F5"/>
<path d="M248.718 179.894H246.09V182.516H248.718V179.894Z" fill="#F5F5F5"/>
<path d="M248.718 184.293H246.09V186.916H248.718V184.293Z" fill="#F5F5F5"/>
<path d="M248.718 188.684H246.09V191.306H248.718V188.684Z" fill="#F5F5F5"/>
<path d="M248.718 193.083H246.09V195.706H248.718V193.083Z" fill="#F5F5F5"/>
<path d="M248.718 197.474H246.09V200.096H248.718V197.474Z" fill="#F5F5F5"/>
<path d="M248.718 210.663H246.09V213.286H248.718V210.663Z" fill="#F5F5F5"/>
<path d="M248.718 215.053H246.09V217.675H248.718V215.053Z" fill="#F5F5F5"/>
<path d="M248.718 219.453H246.09V222.076H248.718V219.453Z" fill="#F5F5F5"/>
<path d="M248.718 223.844H246.09V226.466H248.718V223.844Z" fill="#F5F5F5"/>
<path d="M248.718 237.032H246.09V239.655H248.718V237.032Z" fill="#F5F5F5"/>
<path d="M248.718 241.423H246.09V244.045H248.718V241.423Z" fill="#F5F5F5"/>
<path d="M248.718 245.822H246.09V248.445H248.718V245.822Z" fill="#F5F5F5"/>
<path d="M248.718 250.213H246.09V252.835H248.718V250.213Z" fill="#F5F5F5"/>
<path d="M248.718 254.612H246.09V257.235H248.718V254.612Z" fill="#F5F5F5"/>
<path d="M248.718 263.402H246.09V266.025H248.718V263.402Z" fill="#F5F5F5"/>
<path d="M248.718 267.793H246.09V270.416H248.718V267.793Z" fill="#F5F5F5"/>
<path d="M286.59 216.365H283.961V218.988H286.59V216.365Z" fill="#F5F5F5"/>
<path d="M286.59 220.764H283.961V223.386H286.59V220.764Z" fill="#F5F5F5"/>
<path d="M286.59 225.154H283.961V227.777H286.59V225.154Z" fill="#F5F5F5"/>
<path d="M286.59 229.554H283.961V232.176H286.59V229.554Z" fill="#F5F5F5"/>
<path d="M286.59 233.944H283.961V236.567H286.59V233.944Z" fill="#F5F5F5"/>
<path d="M286.59 238.344H283.961V240.966H286.59V238.344Z" fill="#F5F5F5"/>
<path d="M286.59 242.734H283.961V245.357H286.59V242.734Z" fill="#F5F5F5"/>
<path d="M286.59 255.924H283.961V258.546H286.59V255.924Z" fill="#F5F5F5"/>
<path d="M286.59 260.314H283.961V262.937H286.59V260.314Z" fill="#F5F5F5"/>
<path d="M286.59 264.714H283.961V267.336H286.59V264.714Z" fill="#F5F5F5"/>
<path d="M290.762 216.365H288.133V218.988H290.762V216.365Z" fill="#F5F5F5"/>
<path d="M290.762 220.764H288.133V223.386H290.762V220.764Z" fill="#F5F5F5"/>
<path d="M290.762 225.154H288.133V227.777H290.762V225.154Z" fill="#F5F5F5"/>
<path d="M290.762 229.554H288.133V232.176H290.762V229.554Z" fill="#F5F5F5"/>
<path d="M290.762 233.944H288.133V236.567H290.762V233.944Z" fill="#F5F5F5"/>
<path d="M290.762 238.344H288.133V240.966H290.762V238.344Z" fill="#F5F5F5"/>
<path d="M290.762 242.734H288.133V245.357H290.762V242.734Z" fill="#F5F5F5"/>
<path d="M294.943 216.365H292.314V218.988H294.943V216.365Z" fill="#F5F5F5"/>
<path d="M294.943 220.764H292.314V223.386H294.943V220.764Z" fill="#F5F5F5"/>
<path d="M294.943 225.154H292.314V227.777H294.943V225.154Z" fill="#F5F5F5"/>
<path d="M294.943 229.554H292.314V232.176H294.943V229.554Z" fill="#F5F5F5"/>
<path d="M294.943 233.944H292.314V236.567H294.943V233.944Z" fill="#F5F5F5"/>
<path d="M294.943 238.344H292.314V240.966H294.943V238.344Z" fill="#F5F5F5"/>
<path d="M294.943 242.734H292.314V245.357H294.943V242.734Z" fill="#F5F5F5"/>
<path d="M299.115 216.365H296.486V218.988H299.115V216.365Z" fill="#F5F5F5"/>
<path d="M299.115 220.764H296.486V223.386H299.115V220.764Z" fill="#F5F5F5"/>
<path d="M299.115 225.154H296.486V227.777H299.115V225.154Z" fill="#F5F5F5"/>
<path d="M299.115 229.554H296.486V232.176H299.115V229.554Z" fill="#F5F5F5"/>
<path d="M299.115 233.944H296.486V236.567H299.115V233.944Z" fill="#F5F5F5"/>
<path d="M299.115 238.344H296.486V240.966H299.115V238.344Z" fill="#F5F5F5"/>
<path d="M299.115 242.734H296.486V245.357H299.115V242.734Z" fill="#F5F5F5"/>
<path d="M299.115 247.134H296.486V249.756H299.115V247.134Z" fill="#F5F5F5"/>
<path d="M299.115 251.524H296.486V254.147H299.115V251.524Z" fill="#F5F5F5"/>
<path d="M299.115 255.924H296.486V258.546H299.115V255.924Z" fill="#F5F5F5"/>
<path d="M299.115 260.314H296.486V262.937H299.115V260.314Z" fill="#F5F5F5"/>
<path d="M303.287 216.365H300.658V218.988H303.287V216.365Z" fill="#F5F5F5"/>
<path d="M303.287 220.764H300.658V223.386H303.287V220.764Z" fill="#F5F5F5"/>
<path d="M303.287 225.154H300.658V227.777H303.287V225.154Z" fill="#F5F5F5"/>
<path d="M303.287 229.554H300.658V232.176H303.287V229.554Z" fill="#F5F5F5"/>
<path d="M303.287 233.944H300.658V236.567H303.287V233.944Z" fill="#F5F5F5"/>
<path d="M303.287 238.344H300.658V240.966H303.287V238.344Z" fill="#F5F5F5"/>
<path d="M303.287 242.734H300.658V245.357H303.287V242.734Z" fill="#F5F5F5"/>
<path d="M303.287 247.134H300.658V249.756H303.287V247.134Z" fill="#F5F5F5"/>
<path d="M303.287 251.524H300.658V254.147H303.287V251.524Z" fill="#F5F5F5"/>
<path d="M303.287 255.924H300.658V258.546H303.287V255.924Z" fill="#F5F5F5"/>
<path d="M303.287 260.314H300.658V262.937H303.287V260.314Z" fill="#F5F5F5"/>
<path d="M303.287 264.714H300.658V267.336H303.287V264.714Z" fill="#F5F5F5"/>
<path d="M303.287 277.895H300.658V280.517H303.287V277.895Z" fill="#F5F5F5"/>
<path d="M303.287 282.294H300.658V284.917H303.287V282.294Z" fill="#F5F5F5"/>
<path d="M307.459 216.365H304.831V218.988H307.459V216.365Z" fill="#F5F5F5"/>
<path d="M307.459 220.764H304.831V223.386H307.459V220.764Z" fill="#F5F5F5"/>
<path d="M307.459 225.154H304.831V227.777H307.459V225.154Z" fill="#F5F5F5"/>
<path d="M307.459 238.344H304.831V240.966H307.459V238.344Z" fill="#F5F5F5"/>
<path d="M307.459 242.734H304.831V245.357H307.459V242.734Z" fill="#F5F5F5"/>
<path d="M307.459 247.134H304.831V249.756H307.459V247.134Z" fill="#F5F5F5"/>
<path d="M307.459 251.524H304.831V254.147H307.459V251.524Z" fill="#F5F5F5"/>
<path d="M307.459 255.924H304.831V258.546H307.459V255.924Z" fill="#F5F5F5"/>
<path d="M307.459 260.314H304.831V262.937H307.459V260.314Z" fill="#F5F5F5"/>
<path d="M307.459 264.714H304.831V267.336H307.459V264.714Z" fill="#F5F5F5"/>
<path d="M307.459 277.895H304.831V280.517H307.459V277.895Z" fill="#F5F5F5"/>
<path d="M307.459 282.294H304.831V284.917H307.459V282.294Z" fill="#F5F5F5"/>
<path d="M307.459 286.685H304.831V289.307H307.459V286.685Z" fill="#F5F5F5"/>
<path d="M351.208 189.995H348.579V192.618H351.208V189.995Z" fill="#F5F5F5"/>
<path d="M351.208 194.395H348.579V197.017H351.208V194.395Z" fill="#F5F5F5"/>
<path d="M351.208 198.785H348.579V201.408H351.208V198.785Z" fill="#F5F5F5"/>
<path d="M351.208 203.185H348.579V205.807H351.208V203.185Z" fill="#F5F5F5"/>
<path d="M351.208 207.575H348.579V210.198H351.208V207.575Z" fill="#F5F5F5"/>
<path d="M351.208 211.974H348.579V214.596H351.208V211.974Z" fill="#F5F5F5"/>
<path d="M351.208 216.365H348.579V218.988H351.208V216.365Z" fill="#F5F5F5"/>
<path d="M351.208 220.764H348.579V223.386H351.208V220.764Z" fill="#F5F5F5"/>
<path d="M351.208 225.154H348.579V227.777H351.208V225.154Z" fill="#F5F5F5"/>
<path d="M351.208 229.554H348.579V232.176H351.208V229.554Z" fill="#F5F5F5"/>
<path d="M351.208 233.944H348.579V236.567H351.208V233.944Z" fill="#F5F5F5"/>
<path d="M351.208 238.344H348.579V240.966H351.208V238.344Z" fill="#F5F5F5"/>
<path d="M351.208 242.734H348.579V245.357H351.208V242.734Z" fill="#F5F5F5"/>
<path d="M351.208 247.134H348.579V249.756H351.208V247.134Z" fill="#F5F5F5"/>
<path d="M351.208 251.524H348.579V254.147H351.208V251.524Z" fill="#F5F5F5"/>
<path d="M351.208 255.924H348.579V258.546H351.208V255.924Z" fill="#F5F5F5"/>
<path d="M351.208 260.314H348.579V262.937H351.208V260.314Z" fill="#F5F5F5"/>
<path d="M351.208 264.714H348.579V267.336H351.208V264.714Z" fill="#F5F5F5"/>
<path d="M351.208 269.104H348.579V271.727H351.208V269.104Z" fill="#F5F5F5"/>
<path d="M351.208 273.504H348.579V276.127H351.208V273.504Z" fill="#F5F5F5"/>
<path d="M351.208 277.895H348.579V280.517H351.208V277.895Z" fill="#F5F5F5"/>
<path d="M351.208 282.294H348.579V284.917H351.208V282.294Z" fill="#F5F5F5"/>
<path d="M351.208 286.685H348.579V289.307H351.208V286.685Z" fill="#F5F5F5"/>
<path d="M355.38 189.995H352.751V192.618H355.38V189.995Z" fill="#F5F5F5"/>
<path d="M355.38 194.395H352.751V197.017H355.38V194.395Z" fill="#F5F5F5"/>
<path d="M355.38 198.785H352.751V201.408H355.38V198.785Z" fill="#F5F5F5"/>
<path d="M355.38 203.185H352.751V205.807H355.38V203.185Z" fill="#F5F5F5"/>
<path d="M355.38 207.575H352.751V210.198H355.38V207.575Z" fill="#F5F5F5"/>
<path d="M355.38 211.974H352.751V214.596H355.38V211.974Z" fill="#F5F5F5"/>
<path d="M355.38 216.365H352.751V218.988H355.38V216.365Z" fill="#F5F5F5"/>
<path d="M355.38 220.764H352.751V223.386H355.38V220.764Z" fill="#F5F5F5"/>
<path d="M355.38 225.154H352.751V227.777H355.38V225.154Z" fill="#F5F5F5"/>
<path d="M355.38 229.554H352.751V232.176H355.38V229.554Z" fill="#F5F5F5"/>
<path d="M355.38 233.944H352.751V236.567H355.38V233.944Z" fill="#F5F5F5"/>
<path d="M355.38 238.344H352.751V240.966H355.38V238.344Z" fill="#F5F5F5"/>
<path d="M355.38 242.734H352.751V245.357H355.38V242.734Z" fill="#F5F5F5"/>
<path d="M355.38 247.134H352.751V249.756H355.38V247.134Z" fill="#F5F5F5"/>
<path d="M355.38 251.524H352.751V254.147H355.38V251.524Z" fill="#F5F5F5"/>
<path d="M355.38 255.924H352.751V258.546H355.38V255.924Z" fill="#F5F5F5"/>
<path d="M355.38 260.314H352.751V262.937H355.38V260.314Z" fill="#F5F5F5"/>
<path d="M355.38 264.714H352.751V267.336H355.38V264.714Z" fill="#F5F5F5"/>
<path d="M355.38 269.104H352.751V271.727H355.38V269.104Z" fill="#F5F5F5"/>
<path d="M359.552 189.995H356.923V192.618H359.552V189.995Z" fill="#F5F5F5"/>
<path d="M359.552 194.395H356.923V197.017H359.552V194.395Z" fill="#F5F5F5"/>
<path d="M359.552 198.785H356.923V201.408H359.552V198.785Z" fill="#F5F5F5"/>
<path d="M359.552 203.185H356.923V205.807H359.552V203.185Z" fill="#F5F5F5"/>
<path d="M359.552 207.575H356.923V210.198H359.552V207.575Z" fill="#F5F5F5"/>
<path d="M359.552 211.974H356.923V214.596H359.552V211.974Z" fill="#F5F5F5"/>
<path d="M359.552 216.365H356.923V218.988H359.552V216.365Z" fill="#F5F5F5"/>
<path d="M359.552 220.764H356.923V223.386H359.552V220.764Z" fill="#F5F5F5"/>
<path d="M359.552 225.154H356.923V227.777H359.552V225.154Z" fill="#F5F5F5"/>
<path d="M359.552 229.554H356.923V232.176H359.552V229.554Z" fill="#F5F5F5"/>
<path d="M359.552 233.944H356.923V236.567H359.552V233.944Z" fill="#F5F5F5"/>
<path d="M359.552 238.344H356.923V240.966H359.552V238.344Z" fill="#F5F5F5"/>
<path d="M359.552 242.734H356.923V245.357H359.552V242.734Z" fill="#F5F5F5"/>
<path d="M359.552 247.134H356.923V249.756H359.552V247.134Z" fill="#F5F5F5"/>
<path d="M359.552 251.524H356.923V254.147H359.552V251.524Z" fill="#F5F5F5"/>
<path d="M359.552 255.924H356.923V258.546H359.552V255.924Z" fill="#F5F5F5"/>
<path d="M359.552 260.314H356.923V262.937H359.552V260.314Z" fill="#F5F5F5"/>
<path d="M359.552 264.714H356.923V267.336H359.552V264.714Z" fill="#F5F5F5"/>
<path d="M359.552 269.104H356.923V271.727H359.552V269.104Z" fill="#F5F5F5"/>
<path d="M363.724 189.995H361.095V192.618H363.724V189.995Z" fill="#F5F5F5"/>
<path d="M363.724 194.395H361.095V197.017H363.724V194.395Z" fill="#F5F5F5"/>
<path d="M363.724 198.785H361.095V201.408H363.724V198.785Z" fill="#F5F5F5"/>
<path d="M363.724 203.185H361.095V205.807H363.724V203.185Z" fill="#F5F5F5"/>
<path d="M363.724 207.575H361.095V210.198H363.724V207.575Z" fill="#F5F5F5"/>
<path d="M363.724 211.974H361.095V214.596H363.724V211.974Z" fill="#F5F5F5"/>
<path d="M363.724 216.365H361.095V218.988H363.724V216.365Z" fill="#F5F5F5"/>
<path d="M363.724 220.764H361.095V223.386H363.724V220.764Z" fill="#F5F5F5"/>
<path d="M363.724 225.154H361.095V227.777H363.724V225.154Z" fill="#F5F5F5"/>
<path d="M363.724 229.554H361.095V232.176H363.724V229.554Z" fill="#F5F5F5"/>
<path d="M363.724 233.944H361.095V236.567H363.724V233.944Z" fill="#F5F5F5"/>
<path d="M363.724 238.344H361.095V240.966H363.724V238.344Z" fill="#F5F5F5"/>
<path d="M363.724 242.734H361.095V245.357H363.724V242.734Z" fill="#F5F5F5"/>
<path d="M363.724 247.134H361.095V249.756H363.724V247.134Z" fill="#F5F5F5"/>
<path d="M363.724 251.524H361.095V254.147H363.724V251.524Z" fill="#F5F5F5"/>
<path d="M367.896 189.995H365.268V192.618H367.896V189.995Z" fill="#F5F5F5"/>
<path d="M367.896 194.395H365.268V197.017H367.896V194.395Z" fill="#F5F5F5"/>
<path d="M367.896 198.785H365.268V201.408H367.896V198.785Z" fill="#F5F5F5"/>
<path d="M367.896 203.185H365.268V205.807H367.896V203.185Z" fill="#F5F5F5"/>
<path d="M367.896 207.575H365.268V210.198H367.896V207.575Z" fill="#F5F5F5"/>
<path d="M367.896 211.974H365.268V214.596H367.896V211.974Z" fill="#F5F5F5"/>
<path d="M367.896 216.365H365.268V218.988H367.896V216.365Z" fill="#F5F5F5"/>
<path d="M367.896 220.764H365.268V223.386H367.896V220.764Z" fill="#F5F5F5"/>
<path d="M367.896 225.154H365.268V227.777H367.896V225.154Z" fill="#F5F5F5"/>
<path d="M367.896 229.554H365.268V232.176H367.896V229.554Z" fill="#F5F5F5"/>
<path d="M367.896 233.944H365.268V236.567H367.896V233.944Z" fill="#F5F5F5"/>
<path d="M367.896 238.344H365.268V240.966H367.896V238.344Z" fill="#F5F5F5"/>
<path d="M367.896 242.734H365.268V245.357H367.896V242.734Z" fill="#F5F5F5"/>
<path d="M372.077 189.995H369.448V192.618H372.077V189.995Z" fill="#F5F5F5"/>
<path d="M372.077 194.395H369.448V197.017H372.077V194.395Z" fill="#F5F5F5"/>
<path d="M372.077 198.785H369.448V201.408H372.077V198.785Z" fill="#F5F5F5"/>
<path d="M372.077 203.185H369.448V205.807H372.077V203.185Z" fill="#F5F5F5"/>
<path d="M372.077 207.575H369.448V210.198H372.077V207.575Z" fill="#F5F5F5"/>
<path d="M372.077 211.974H369.448V214.596H372.077V211.974Z" fill="#F5F5F5"/>
<path d="M372.077 216.365H369.448V218.988H372.077V216.365Z" fill="#F5F5F5"/>
<path d="M372.077 220.764H369.448V223.386H372.077V220.764Z" fill="#F5F5F5"/>
<path d="M372.077 225.154H369.448V227.777H372.077V225.154Z" fill="#F5F5F5"/>
<path d="M372.077 229.554H369.448V232.176H372.077V229.554Z" fill="#F5F5F5"/>
<path d="M372.077 233.944H369.448V236.567H372.077V233.944Z" fill="#F5F5F5"/>
<path d="M372.077 238.344H369.448V240.966H372.077V238.344Z" fill="#F5F5F5"/>
<path d="M65.3893 222.075H62.7605V224.698H65.3893V222.075Z" fill="#F5F5F5"/>
<path d="M65.3893 226.466H62.7605V229.088H65.3893V226.466Z" fill="#F5F5F5"/>
<path d="M65.3893 230.865H62.7605V233.488H65.3893V230.865Z" fill="#F5F5F5"/>
<path d="M65.3893 235.256H62.7605V237.878H65.3893V235.256Z" fill="#F5F5F5"/>
<path d="M65.3893 239.655H62.7605V242.278H65.3893V239.655Z" fill="#F5F5F5"/>
<path d="M65.3893 244.046H62.7605V246.669H65.3893V244.046Z" fill="#F5F5F5"/>
<path d="M65.3893 248.445H62.7605V251.068H65.3893V248.445Z" fill="#F5F5F5"/>
<path d="M65.3893 252.836H62.7605V255.459H65.3893V252.836Z" fill="#F5F5F5"/>
<path d="M65.3893 257.235H62.7605V259.858H65.3893V257.235Z" fill="#F5F5F5"/>
<path d="M65.3893 261.626H62.7605V264.249H65.3893V261.626Z" fill="#F5F5F5"/>
<path d="M65.3893 266.025H62.7605V268.648H65.3893V266.025Z" fill="#F5F5F5"/>
<path d="M65.3893 270.416H62.7605V273.039H65.3893V270.416Z" fill="#F5F5F5"/>
<path d="M65.3893 274.814H62.7605V277.437H65.3893V274.814Z" fill="#F5F5F5"/>
<path d="M65.3893 279.206H62.7605V281.829H65.3893V279.206Z" fill="#F5F5F5"/>
<path d="M65.3893 283.604H62.7605V286.227H65.3893V283.604Z" fill="#F5F5F5"/>
<path d="M65.3893 287.996H62.7605V290.619H65.3893V287.996Z" fill="#F5F5F5"/>
<path d="M65.3893 292.395H62.7605V295.017H65.3893V292.395Z" fill="#F5F5F5"/>
<path d="M65.3893 296.785H62.7605V299.408H65.3893V296.785Z" fill="#F5F5F5"/>
<path d="M65.3893 301.185H62.7605V303.807H65.3893V301.185Z" fill="#F5F5F5"/>
<path d="M65.3893 305.575H62.7605V308.198H65.3893V305.575Z" fill="#F5F5F5"/>
<path d="M69.5614 222.075H66.9326V224.698H69.5614V222.075Z" fill="#F5F5F5"/>
<path d="M69.5614 226.466H66.9326V229.088H69.5614V226.466Z" fill="#F5F5F5"/>
<path d="M69.5614 230.865H66.9326V233.488H69.5614V230.865Z" fill="#F5F5F5"/>
<path d="M69.5614 235.256H66.9326V237.878H69.5614V235.256Z" fill="#F5F5F5"/>
<path d="M69.5614 239.655H66.9326V242.278H69.5614V239.655Z" fill="#F5F5F5"/>
<path d="M69.5614 244.046H66.9326V246.669H69.5614V244.046Z" fill="#F5F5F5"/>
<path d="M69.5614 248.445H66.9326V251.068H69.5614V248.445Z" fill="#F5F5F5"/>
<path d="M69.5614 252.836H66.9326V255.459H69.5614V252.836Z" fill="#F5F5F5"/>
<path d="M69.5614 257.235H66.9326V259.858H69.5614V257.235Z" fill="#F5F5F5"/>
<path d="M69.5614 261.626H66.9326V264.249H69.5614V261.626Z" fill="#F5F5F5"/>
<path d="M69.5614 266.025H66.9326V268.648H69.5614V266.025Z" fill="#F5F5F5"/>
<path d="M69.5614 270.416H66.9326V273.039H69.5614V270.416Z" fill="#F5F5F5"/>
<path d="M69.5614 274.814H66.9326V277.437H69.5614V274.814Z" fill="#F5F5F5"/>
<path d="M69.5614 279.206H66.9326V281.829H69.5614V279.206Z" fill="#F5F5F5"/>
<path d="M69.5614 283.604H66.9326V286.227H69.5614V283.604Z" fill="#F5F5F5"/>
<path d="M69.5614 287.996H66.9326V290.619H69.5614V287.996Z" fill="#F5F5F5"/>
<path d="M69.5614 292.395H66.9326V295.017H69.5614V292.395Z" fill="#F5F5F5"/>
<path d="M69.5614 296.785H66.9326V299.408H69.5614V296.785Z" fill="#F5F5F5"/>
<path d="M73.7421 222.075H71.1133V224.698H73.7421V222.075Z" fill="#F5F5F5"/>
<path d="M73.7421 226.466H71.1133V229.088H73.7421V226.466Z" fill="#F5F5F5"/>
<path d="M73.7421 230.865H71.1133V233.488H73.7421V230.865Z" fill="#F5F5F5"/>
<path d="M73.7421 235.256H71.1133V237.878H73.7421V235.256Z" fill="#F5F5F5"/>
<path d="M73.7421 239.655H71.1133V242.278H73.7421V239.655Z" fill="#F5F5F5"/>
<path d="M73.7421 244.046H71.1133V246.669H73.7421V244.046Z" fill="#F5F5F5"/>
<path d="M73.7421 248.445H71.1133V251.068H73.7421V248.445Z" fill="#F5F5F5"/>
<path d="M73.7421 252.836H71.1133V255.459H73.7421V252.836Z" fill="#F5F5F5"/>
<path d="M73.7421 257.235H71.1133V259.858H73.7421V257.235Z" fill="#F5F5F5"/>
<path d="M73.7421 261.626H71.1133V264.249H73.7421V261.626Z" fill="#F5F5F5"/>
<path d="M73.7421 266.025H71.1133V268.648H73.7421V266.025Z" fill="#F5F5F5"/>
<path d="M73.7421 270.416H71.1133V273.039H73.7421V270.416Z" fill="#F5F5F5"/>
<path d="M73.7421 274.814H71.1133V277.437H73.7421V274.814Z" fill="#F5F5F5"/>
<path d="M73.7421 279.206H71.1133V281.829H73.7421V279.206Z" fill="#F5F5F5"/>
<path d="M73.7421 283.604H71.1133V286.227H73.7421V283.604Z" fill="#F5F5F5"/>
<path d="M73.7421 287.996H71.1133V290.619H73.7421V287.996Z" fill="#F5F5F5"/>
<path d="M73.7421 292.395H71.1133V295.017H73.7421V292.395Z" fill="#F5F5F5"/>
<path d="M73.7421 296.785H71.1133V299.408H73.7421V296.785Z" fill="#F5F5F5"/>
<path d="M49.7775 254.147H47.1487V256.77H49.7775V254.147Z" fill="#F5F5F5"/>
<path d="M49.7775 258.546H47.1487V261.169H49.7775V258.546Z" fill="#F5F5F5"/>
<path d="M49.7775 262.938H47.1487V265.56H49.7775V262.938Z" fill="#F5F5F5"/>
<path d="M49.7775 267.336H47.1487V269.959H49.7775V267.336Z" fill="#F5F5F5"/>
<path d="M49.7775 271.727H47.1487V274.349H49.7775V271.727Z" fill="#F5F5F5"/>
<path d="M49.7775 276.126H47.1487V278.749H49.7775V276.126Z" fill="#F5F5F5"/>
<path d="M49.7775 280.517H47.1487V283.139H49.7775V280.517Z" fill="#F5F5F5"/>
<path d="M49.7775 284.916H47.1487V287.539H49.7775V284.916Z" fill="#F5F5F5"/>
<path d="M49.7775 289.307H47.1487V291.929H49.7775V289.307Z" fill="#F5F5F5"/>
<path d="M49.7775 293.706H47.1487V296.329H49.7775V293.706Z" fill="#F5F5F5"/>
<path d="M49.7775 298.097H47.1487V300.719H49.7775V298.097Z" fill="#F5F5F5"/>
<path d="M49.7775 302.496H47.1487V305.119H49.7775V302.496Z" fill="#F5F5F5"/>
<path d="M49.7775 306.887H47.1487V309.509H49.7775V306.887Z" fill="#F5F5F5"/>
<path d="M53.9498 254.147H51.321V256.77H53.9498V254.147Z" fill="#F5F5F5"/>
<path d="M53.9498 258.546H51.321V261.169H53.9498V258.546Z" fill="#F5F5F5"/>
<path d="M53.9498 262.938H51.321V265.56H53.9498V262.938Z" fill="#F5F5F5"/>
<path d="M53.9498 267.336H51.321V269.959H53.9498V267.336Z" fill="#F5F5F5"/>
<path d="M53.9498 271.727H51.321V274.349H53.9498V271.727Z" fill="#F5F5F5"/>
<path d="M53.9498 276.126H51.321V278.749H53.9498V276.126Z" fill="#F5F5F5"/>
<path d="M53.9498 280.517H51.321V283.139H53.9498V280.517Z" fill="#F5F5F5"/>
<path d="M53.9498 284.916H51.321V287.539H53.9498V284.916Z" fill="#F5F5F5"/>
<path d="M53.9498 289.307H51.321V291.929H53.9498V289.307Z" fill="#F5F5F5"/>
<path d="M53.9498 293.706H51.321V296.329H53.9498V293.706Z" fill="#F5F5F5"/>
<path d="M53.9498 298.097H51.321V300.719H53.9498V298.097Z" fill="#F5F5F5"/>
<path d="M53.9498 302.496H51.321V305.119H53.9498V302.496Z" fill="#F5F5F5"/>
<path d="M53.9498 306.887H51.321V309.509H53.9498V306.887Z" fill="#F5F5F5"/>
<path d="M58.1305 254.147H55.5017V256.77H58.1305V254.147Z" fill="#F5F5F5"/>
<path d="M58.1305 258.546H55.5017V261.169H58.1305V258.546Z" fill="#F5F5F5"/>
<path d="M58.1305 262.938H55.5017V265.56H58.1305V262.938Z" fill="#F5F5F5"/>
<path d="M58.1305 267.336H55.5017V269.959H58.1305V267.336Z" fill="#F5F5F5"/>
<path d="M58.1305 271.727H55.5017V274.349H58.1305V271.727Z" fill="#F5F5F5"/>
<path d="M58.1305 276.126H55.5017V278.749H58.1305V276.126Z" fill="#F5F5F5"/>
<path d="M58.1305 280.517H55.5017V283.139H58.1305V280.517Z" fill="#F5F5F5"/>
<path d="M58.1305 284.916H55.5017V287.539H58.1305V284.916Z" fill="#F5F5F5"/>
<path d="M58.1305 289.307H55.5017V291.929H58.1305V289.307Z" fill="#F5F5F5"/>
<path d="M58.1305 293.706H55.5017V296.329H58.1305V293.706Z" fill="#F5F5F5"/>
<path d="M58.1305 298.097H55.5017V300.719H58.1305V298.097Z" fill="#F5F5F5"/>
<path d="M58.1305 302.496H55.5017V305.119H58.1305V302.496Z" fill="#F5F5F5"/>
<path d="M58.1305 306.887H55.5017V309.509H58.1305V306.887Z" fill="#F5F5F5"/>
<path d="M58.1305 311.286H55.5017V313.909H58.1305V311.286Z" fill="#F5F5F5"/>
<path d="M81.3148 255.458H78.686V258.081H81.3148V255.458Z" fill="#F5F5F5"/>
<path d="M81.3148 259.857H78.686V262.48H81.3148V259.857Z" fill="#F5F5F5"/>
<path d="M81.3148 264.248H78.686V266.871H81.3148V264.248Z" fill="#F5F5F5"/>
<path d="M81.3148 268.647H78.686V271.27H81.3148V268.647Z" fill="#F5F5F5"/>
<path d="M81.3148 273.038H78.686V275.661H81.3148V273.038Z" fill="#F5F5F5"/>
<path d="M81.3148 277.438H78.686V280.06H81.3148V277.438Z" fill="#F5F5F5"/>
<path d="M81.3148 281.828H78.686V284.451H81.3148V281.828Z" fill="#F5F5F5"/>
<path d="M81.3148 286.228H78.686V288.85H81.3148V286.228Z" fill="#F5F5F5"/>
<path d="M81.3148 290.618H78.686V293.241H81.3148V290.618Z" fill="#F5F5F5"/>
<path d="M81.3148 295.018H78.686V297.64H81.3148V295.018Z" fill="#F5F5F5"/>
<path d="M81.3148 308.198H78.686V310.821H81.3148V308.198Z" fill="#F5F5F5"/>
<path d="M85.487 255.458H82.8582V258.081H85.487V255.458Z" fill="#F5F5F5"/>
<path d="M85.487 259.857H82.8582V262.48H85.487V259.857Z" fill="#F5F5F5"/>
<path d="M85.487 264.248H82.8582V266.871H85.487V264.248Z" fill="#F5F5F5"/>
<path d="M85.487 268.647H82.8582V271.27H85.487V268.647Z" fill="#F5F5F5"/>
<path d="M85.487 273.038H82.8582V275.661H85.487V273.038Z" fill="#F5F5F5"/>
<path d="M85.487 277.438H82.8582V280.06H85.487V277.438Z" fill="#F5F5F5"/>
<path d="M85.487 281.828H82.8582V284.451H85.487V281.828Z" fill="#F5F5F5"/>
<path d="M85.487 286.228H82.8582V288.85H85.487V286.228Z" fill="#F5F5F5"/>
<path d="M85.487 290.618H82.8582V293.241H85.487V290.618Z" fill="#F5F5F5"/>
<path d="M85.487 303.808H82.8582V306.43H85.487V303.808Z" fill="#F5F5F5"/>
<path d="M85.487 308.198H82.8582V310.821H85.487V308.198Z" fill="#F5F5F5"/>
<path d="M89.6591 255.458H87.0303V258.081H89.6591V255.458Z" fill="#F5F5F5"/>
<path d="M89.6591 259.857H87.0303V262.48H89.6591V259.857Z" fill="#F5F5F5"/>
<path d="M89.6591 264.248H87.0303V266.871H89.6591V264.248Z" fill="#F5F5F5"/>
<path d="M89.6591 268.647H87.0303V271.27H89.6591V268.647Z" fill="#F5F5F5"/>
<path d="M89.6591 273.038H87.0303V275.661H89.6591V273.038Z" fill="#F5F5F5"/>
<path d="M89.6591 277.438H87.0303V280.06H89.6591V277.438Z" fill="#F5F5F5"/>
<path d="M89.6591 281.828H87.0303V284.451H89.6591V281.828Z" fill="#F5F5F5"/>
<path d="M89.6591 286.228H87.0303V288.85H89.6591V286.228Z" fill="#F5F5F5"/>
<path d="M89.6591 299.408H87.0303V302.031H89.6591V299.408Z" fill="#F5F5F5"/>
<path d="M89.6591 303.808H87.0303V306.43H89.6591V303.808Z" fill="#F5F5F5"/>
<path d="M89.6591 308.198H87.0303V310.821H89.6591V308.198Z" fill="#F5F5F5"/>
<path d="M128.464 188.684H125.835V191.306H128.464V188.684Z" fill="#F5F5F5"/>
<path d="M128.464 193.083H125.835V195.706H128.464V193.083Z" fill="#F5F5F5"/>
<path d="M128.464 197.474H125.835V200.096H128.464V197.474Z" fill="#F5F5F5"/>
<path d="M128.464 201.873H125.835V204.496H128.464V201.873Z" fill="#F5F5F5"/>
<path d="M128.464 206.264H125.835V208.886H128.464V206.264Z" fill="#F5F5F5"/>
<path d="M128.464 210.663H125.835V213.286H128.464V210.663Z" fill="#F5F5F5"/>
<path d="M128.464 215.053H125.835V217.675H128.464V215.053Z" fill="#F5F5F5"/>
<path d="M128.464 219.453H125.835V222.076H128.464V219.453Z" fill="#F5F5F5"/>
<path d="M128.464 223.844H125.835V226.466H128.464V223.844Z" fill="#F5F5F5"/>
<path d="M128.464 228.242H125.835V230.865H128.464V228.242Z" fill="#F5F5F5"/>
<path d="M128.464 232.634H125.835V235.256H128.464V232.634Z" fill="#F5F5F5"/>
<path d="M128.464 237.032H125.835V239.655H128.464V237.032Z" fill="#F5F5F5"/>
<path d="M128.464 241.423H125.835V244.045H128.464V241.423Z" fill="#F5F5F5"/>
<path d="M128.464 245.822H125.835V248.445H128.464V245.822Z" fill="#F5F5F5"/>
<path d="M128.464 250.213H125.835V252.835H128.464V250.213Z" fill="#F5F5F5"/>
<path d="M128.464 254.612H125.835V257.235H128.464V254.612Z" fill="#F5F5F5"/>
<path d="M128.464 259.004H125.835V261.627H128.464V259.004Z" fill="#F5F5F5"/>
<path d="M128.464 267.793H125.835V270.416H128.464V267.793Z" fill="#F5F5F5"/>
<path d="M128.464 272.192H125.835V274.815H128.464V272.192Z" fill="#F5F5F5"/>
<path d="M128.464 276.583H125.835V279.206H128.464V276.583Z" fill="#F5F5F5"/>
<path d="M128.464 280.982H125.835V283.605H128.464V280.982Z" fill="#F5F5F5"/>
<path d="M128.464 285.373H125.835V287.996H128.464V285.373Z" fill="#F5F5F5"/>
<path d="M132.636 188.684H130.007V191.306H132.636V188.684Z" fill="#F5F5F5"/>
<path d="M132.636 193.083H130.007V195.706H132.636V193.083Z" fill="#F5F5F5"/>
<path d="M132.636 197.474H130.007V200.096H132.636V197.474Z" fill="#F5F5F5"/>
<path d="M132.636 201.873H130.007V204.496H132.636V201.873Z" fill="#F5F5F5"/>
<path d="M132.636 206.264H130.007V208.886H132.636V206.264Z" fill="#F5F5F5"/>
<path d="M132.636 210.663H130.007V213.286H132.636V210.663Z" fill="#F5F5F5"/>
<path d="M132.636 215.053H130.007V217.675H132.636V215.053Z" fill="#F5F5F5"/>
<path d="M132.636 219.453H130.007V222.076H132.636V219.453Z" fill="#F5F5F5"/>
<path d="M132.636 223.844H130.007V226.466H132.636V223.844Z" fill="#F5F5F5"/>
<path d="M132.636 228.242H130.007V230.865H132.636V228.242Z" fill="#F5F5F5"/>
<path d="M132.636 232.634H130.007V235.256H132.636V232.634Z" fill="#F5F5F5"/>
<path d="M132.636 237.032H130.007V239.655H132.636V237.032Z" fill="#F5F5F5"/>
<path d="M132.636 241.423H130.007V244.045H132.636V241.423Z" fill="#F5F5F5"/>
<path d="M132.636 245.822H130.007V248.445H132.636V245.822Z" fill="#F5F5F5"/>
<path d="M132.636 250.213H130.007V252.835H132.636V250.213Z" fill="#F5F5F5"/>
<path d="M132.636 254.612H130.007V257.235H132.636V254.612Z" fill="#F5F5F5"/>
<path d="M132.636 280.982H130.007V283.605H132.636V280.982Z" fill="#F5F5F5"/>
<path d="M132.636 285.373H130.007V287.996H132.636V285.373Z" fill="#F5F5F5"/>
<path d="M136.808 188.684H134.179V191.306H136.808V188.684Z" fill="#F5F5F5"/>
<path d="M136.808 193.083H134.179V195.706H136.808V193.083Z" fill="#F5F5F5"/>
<path d="M136.808 197.474H134.179V200.096H136.808V197.474Z" fill="#F5F5F5"/>
<path d="M136.808 201.873H134.179V204.496H136.808V201.873Z" fill="#F5F5F5"/>
<path d="M136.808 206.264H134.179V208.886H136.808V206.264Z" fill="#F5F5F5"/>
<path d="M136.808 210.663H134.179V213.286H136.808V210.663Z" fill="#F5F5F5"/>
<path d="M136.808 215.053H134.179V217.675H136.808V215.053Z" fill="#F5F5F5"/>
<path d="M136.808 219.453H134.179V222.076H136.808V219.453Z" fill="#F5F5F5"/>
<path d="M136.808 223.844H134.179V226.466H136.808V223.844Z" fill="#F5F5F5"/>
<path d="M136.808 228.242H134.179V230.865H136.808V228.242Z" fill="#F5F5F5"/>
<path d="M136.808 232.634H134.179V235.256H136.808V232.634Z" fill="#F5F5F5"/>
<path d="M136.808 237.032H134.179V239.655H136.808V237.032Z" fill="#F5F5F5"/>
<path d="M136.808 241.423H134.179V244.045H136.808V241.423Z" fill="#F5F5F5"/>
<path d="M136.808 245.822H134.179V248.445H136.808V245.822Z" fill="#F5F5F5"/>
<path d="M136.808 250.213H134.179V252.835H136.808V250.213Z" fill="#F5F5F5"/>
<path d="M136.808 254.612H134.179V257.235H136.808V254.612Z" fill="#F5F5F5"/>
<path d="M136.808 263.402H134.179V266.025H136.808V263.402Z" fill="#F5F5F5"/>
<path d="M136.808 267.793H134.179V270.416H136.808V267.793Z" fill="#F5F5F5"/>
<path d="M136.808 272.192H134.179V274.815H136.808V272.192Z" fill="#F5F5F5"/>
<path d="M136.808 276.583H134.179V279.206H136.808V276.583Z" fill="#F5F5F5"/>
<path d="M136.808 285.373H134.179V287.996H136.808V285.373Z" fill="#F5F5F5"/>
<path d="M113.31 244.046H110.681V246.669H113.31V244.046Z" fill="#F5F5F5"/>
<path d="M113.31 248.445H110.681V251.068H113.31V248.445Z" fill="#F5F5F5"/>
<path d="M113.31 252.836H110.681V255.459H113.31V252.836Z" fill="#F5F5F5"/>
<path d="M113.31 257.235H110.681V259.858H113.31V257.235Z" fill="#F5F5F5"/>
<path d="M113.31 261.626H110.681V264.249H113.31V261.626Z" fill="#F5F5F5"/>
<path d="M113.31 266.025H110.681V268.648H113.31V266.025Z" fill="#F5F5F5"/>
<path d="M113.31 270.416H110.681V273.039H113.31V270.416Z" fill="#F5F5F5"/>
<path d="M113.31 279.206H110.681V281.829H113.31V279.206Z" fill="#F5F5F5"/>
<path d="M113.31 283.604H110.681V286.227H113.31V283.604Z" fill="#F5F5F5"/>
<path d="M113.31 287.996H110.681V290.619H113.31V287.996Z" fill="#F5F5F5"/>
<path d="M113.31 292.395H110.681V295.017H113.31V292.395Z" fill="#F5F5F5"/>
<path d="M113.31 296.785H110.681V299.408H113.31V296.785Z" fill="#F5F5F5"/>
<path d="M113.31 301.185H110.681V303.807H113.31V301.185Z" fill="#F5F5F5"/>
<path d="M113.31 305.575H110.681V308.198H113.31V305.575Z" fill="#F5F5F5"/>
<path d="M113.31 309.975H110.681V312.597H113.31V309.975Z" fill="#F5F5F5"/>
<path d="M117.482 244.046H114.853V246.669H117.482V244.046Z" fill="#F5F5F5"/>
<path d="M117.482 248.445H114.853V251.068H117.482V248.445Z" fill="#F5F5F5"/>
<path d="M117.482 252.836H114.853V255.459H117.482V252.836Z" fill="#F5F5F5"/>
<path d="M117.482 257.235H114.853V259.858H117.482V257.235Z" fill="#F5F5F5"/>
<path d="M117.482 261.626H114.853V264.249H117.482V261.626Z" fill="#F5F5F5"/>
<path d="M117.482 266.025H114.853V268.648H117.482V266.025Z" fill="#F5F5F5"/>
<path d="M117.482 279.206H114.853V281.829H117.482V279.206Z" fill="#F5F5F5"/>
<path d="M117.482 283.604H114.853V286.227H117.482V283.604Z" fill="#F5F5F5"/>
<path d="M117.482 287.996H114.853V290.619H117.482V287.996Z" fill="#F5F5F5"/>
<path d="M117.482 292.395H114.853V295.017H117.482V292.395Z" fill="#F5F5F5"/>
<path d="M117.482 296.785H114.853V299.408H117.482V296.785Z" fill="#F5F5F5"/>
<path d="M117.482 301.185H114.853V303.807H117.482V301.185Z" fill="#F5F5F5"/>
<path d="M117.482 305.575H114.853V308.198H117.482V305.575Z" fill="#F5F5F5"/>
<path d="M117.482 309.975H114.853V312.597H117.482V309.975Z" fill="#F5F5F5"/>
<path d="M121.654 244.046H119.025V246.669H121.654V244.046Z" fill="#F5F5F5"/>
<path d="M121.654 248.445H119.025V251.068H121.654V248.445Z" fill="#F5F5F5"/>
<path d="M121.654 252.836H119.025V255.459H121.654V252.836Z" fill="#F5F5F5"/>
<path d="M121.654 257.235H119.025V259.858H121.654V257.235Z" fill="#F5F5F5"/>
<path d="M121.654 261.626H119.025V264.249H121.654V261.626Z" fill="#F5F5F5"/>
<path d="M121.654 266.025H119.025V268.648H121.654V266.025Z" fill="#F5F5F5"/>
<path d="M121.654 274.814H119.025V277.437H121.654V274.814Z" fill="#F5F5F5"/>
<path d="M121.654 279.206H119.025V281.829H121.654V279.206Z" fill="#F5F5F5"/>
<path d="M121.654 283.604H119.025V286.227H121.654V283.604Z" fill="#F5F5F5"/>
<path d="M121.654 287.996H119.025V290.619H121.654V287.996Z" fill="#F5F5F5"/>
<path d="M121.654 292.395H119.025V295.017H121.654V292.395Z" fill="#F5F5F5"/>
<path d="M121.654 296.785H119.025V299.408H121.654V296.785Z" fill="#F5F5F5"/>
<path d="M121.654 301.185H119.025V303.807H121.654V301.185Z" fill="#F5F5F5"/>
<path d="M121.654 305.575H119.025V308.198H121.654V305.575Z" fill="#F5F5F5"/>
<path d="M121.654 309.975H119.025V312.597H121.654V309.975Z" fill="#F5F5F5"/>
<path d="M209.617 219.453H206.988V222.076H209.617V219.453Z" fill="#F5F5F5"/>
<path d="M209.617 223.844H206.988V226.466H209.617V223.844Z" fill="#F5F5F5"/>
<path d="M209.617 228.242H206.988V230.865H209.617V228.242Z" fill="#F5F5F5"/>
<path d="M209.617 232.634H206.988V235.256H209.617V232.634Z" fill="#F5F5F5"/>
<path d="M209.617 237.032H206.988V239.655H209.617V237.032Z" fill="#F5F5F5"/>
<path d="M209.617 241.423H206.988V244.045H209.617V241.423Z" fill="#F5F5F5"/>
<path d="M209.617 245.822H206.988V248.445H209.617V245.822Z" fill="#F5F5F5"/>
<path d="M209.617 250.213H206.988V252.835H209.617V250.213Z" fill="#F5F5F5"/>
<path d="M209.617 254.612H206.988V257.235H209.617V254.612Z" fill="#F5F5F5"/>
<path d="M209.617 259.004H206.988V261.627H209.617V259.004Z" fill="#F5F5F5"/>
<path d="M209.617 263.402H206.988V266.025H209.617V263.402Z" fill="#F5F5F5"/>
<path d="M209.617 267.793H206.988V270.416H209.617V267.793Z" fill="#F5F5F5"/>
<path d="M209.617 272.192H206.988V274.815H209.617V272.192Z" fill="#F5F5F5"/>
<path d="M209.617 280.982H206.988V283.605H209.617V280.982Z" fill="#F5F5F5"/>
<path d="M209.617 285.373H206.988V287.996H209.617V285.373Z" fill="#F5F5F5"/>
<path d="M209.617 289.772H206.988V292.395H209.617V289.772Z" fill="#F5F5F5"/>
<path d="M209.617 294.163H206.988V296.786H209.617V294.163Z" fill="#F5F5F5"/>
<path d="M209.617 302.953H206.988V305.576H209.617V302.953Z" fill="#F5F5F5"/>
<path d="M209.617 307.352H206.988V309.974H209.617V307.352Z" fill="#F5F5F5"/>
<path d="M209.617 311.751H206.988V314.374H209.617V311.751Z" fill="#F5F5F5"/>
<path d="M213.789 219.453H211.16V222.076H213.789V219.453Z" fill="#F5F5F5"/>
<path d="M213.789 223.844H211.16V226.466H213.789V223.844Z" fill="#F5F5F5"/>
<path d="M213.789 228.242H211.16V230.865H213.789V228.242Z" fill="#F5F5F5"/>
<path d="M213.789 232.634H211.16V235.256H213.789V232.634Z" fill="#F5F5F5"/>
<path d="M213.789 237.032H211.16V239.655H213.789V237.032Z" fill="#F5F5F5"/>
<path d="M213.789 241.423H211.16V244.045H213.789V241.423Z" fill="#F5F5F5"/>
<path d="M213.789 245.822H211.16V248.445H213.789V245.822Z" fill="#F5F5F5"/>
<path d="M213.789 250.213H211.16V252.835H213.789V250.213Z" fill="#F5F5F5"/>
<path d="M213.789 254.612H211.16V257.235H213.789V254.612Z" fill="#F5F5F5"/>
<path d="M213.789 259.004H211.16V261.627H213.789V259.004Z" fill="#F5F5F5"/>
<path d="M213.789 263.402H211.16V266.025H213.789V263.402Z" fill="#F5F5F5"/>
<path d="M213.789 267.793H211.16V270.416H213.789V267.793Z" fill="#F5F5F5"/>
<path d="M213.789 272.192H211.16V274.815H213.789V272.192Z" fill="#F5F5F5"/>
<path d="M213.789 285.373H211.16V287.996H213.789V285.373Z" fill="#F5F5F5"/>
<path d="M213.789 289.772H211.16V292.395H213.789V289.772Z" fill="#F5F5F5"/>
<path d="M213.789 298.562H211.16V301.185H213.789V298.562Z" fill="#F5F5F5"/>
<path d="M213.789 302.953H211.16V305.576H213.789V302.953Z" fill="#F5F5F5"/>
<path d="M213.789 307.352H211.16V309.974H213.789V307.352Z" fill="#F5F5F5"/>
<path d="M213.789 311.751H211.16V314.374H213.789V311.751Z" fill="#F5F5F5"/>
<path d="M217.961 219.453H215.333V222.076H217.961V219.453Z" fill="#F5F5F5"/>
<path d="M217.961 223.844H215.333V226.466H217.961V223.844Z" fill="#F5F5F5"/>
<path d="M217.961 228.242H215.333V230.865H217.961V228.242Z" fill="#F5F5F5"/>
<path d="M217.961 232.634H215.333V235.256H217.961V232.634Z" fill="#F5F5F5"/>
<path d="M217.961 237.032H215.333V239.655H217.961V237.032Z" fill="#F5F5F5"/>
<path d="M217.961 241.423H215.333V244.045H217.961V241.423Z" fill="#F5F5F5"/>
<path d="M217.961 245.822H215.333V248.445H217.961V245.822Z" fill="#F5F5F5"/>
<path d="M217.961 250.213H215.333V252.835H217.961V250.213Z" fill="#F5F5F5"/>
<path d="M217.961 254.612H215.333V257.235H217.961V254.612Z" fill="#F5F5F5"/>
<path d="M217.961 259.004H215.333V261.627H217.961V259.004Z" fill="#F5F5F5"/>
<path d="M217.961 263.402H215.333V266.025H217.961V263.402Z" fill="#F5F5F5"/>
<path d="M217.961 267.793H215.333V270.416H217.961V267.793Z" fill="#F5F5F5"/>
<path d="M217.961 272.192H215.333V274.815H217.961V272.192Z" fill="#F5F5F5"/>
<path d="M217.961 276.583H215.333V279.206H217.961V276.583Z" fill="#F5F5F5"/>
<path d="M217.961 285.373H215.333V287.996H217.961V285.373Z" fill="#F5F5F5"/>
<path d="M217.961 294.163H215.333V296.786H217.961V294.163Z" fill="#F5F5F5"/>
<path d="M217.961 298.562H215.333V301.185H217.961V298.562Z" fill="#F5F5F5"/>
<path d="M217.961 302.953H215.333V305.576H217.961V302.953Z" fill="#F5F5F5"/>
<path d="M217.961 307.352H215.333V309.974H217.961V307.352Z" fill="#F5F5F5"/>
<path d="M217.961 311.751H215.333V314.374H217.961V311.751Z" fill="#F5F5F5"/>
<path d="M192.606 244.511H189.978V247.133H192.606V244.511Z" fill="#F5F5F5"/>
<path d="M192.606 248.902H189.978V251.525H192.606V248.902Z" fill="#F5F5F5"/>
<path d="M192.606 253.301H189.978V255.923H192.606V253.301Z" fill="#F5F5F5"/>
<path d="M192.606 257.691H189.978V260.314H192.606V257.691Z" fill="#F5F5F5"/>
<path d="M192.606 262.092H189.978V264.714H192.606V262.092Z" fill="#F5F5F5"/>
<path d="M192.606 266.481H189.978V269.104H192.606V266.481Z" fill="#F5F5F5"/>
<path d="M192.606 279.671H189.978V282.294H192.606V279.671Z" fill="#F5F5F5"/>
<path d="M192.606 284.07H189.978V286.693H192.606V284.07Z" fill="#F5F5F5"/>
<path d="M192.606 288.461H189.978V291.084H192.606V288.461Z" fill="#F5F5F5"/>
<path d="M192.606 292.859H189.978V295.482H192.606V292.859Z" fill="#F5F5F5"/>
<path d="M192.606 297.251H189.978V299.874H192.606V297.251Z" fill="#F5F5F5"/>
<path d="M192.606 301.65H189.978V304.273H192.606V301.65Z" fill="#F5F5F5"/>
<path d="M192.606 306.041H189.978V308.664H192.606V306.041Z" fill="#F5F5F5"/>
<path d="M196.787 244.511H194.158V247.133H196.787V244.511Z" fill="#F5F5F5"/>
<path d="M196.787 248.902H194.158V251.525H196.787V248.902Z" fill="#F5F5F5"/>
<path d="M196.787 253.301H194.158V255.923H196.787V253.301Z" fill="#F5F5F5"/>
<path d="M196.787 257.691H194.158V260.314H196.787V257.691Z" fill="#F5F5F5"/>
<path d="M196.787 262.092H194.158V264.714H196.787V262.092Z" fill="#F5F5F5"/>
<path d="M196.787 266.481H194.158V269.104H196.787V266.481Z" fill="#F5F5F5"/>
<path d="M196.787 279.671H194.158V282.294H196.787V279.671Z" fill="#F5F5F5"/>
<path d="M196.787 284.07H194.158V286.693H196.787V284.07Z" fill="#F5F5F5"/>
<path d="M196.787 288.461H194.158V291.084H196.787V288.461Z" fill="#F5F5F5"/>
<path d="M196.787 292.859H194.158V295.482H196.787V292.859Z" fill="#F5F5F5"/>
<path d="M196.787 297.251H194.158V299.874H196.787V297.251Z" fill="#F5F5F5"/>
<path d="M196.787 301.65H194.158V304.273H196.787V301.65Z" fill="#F5F5F5"/>
<path d="M196.787 310.44H194.158V313.063H196.787V310.44Z" fill="#F5F5F5"/>
<path d="M335.435 225.154H332.806V227.777H335.435V225.154Z" fill="#F5F5F5"/>
<path d="M335.435 229.554H332.806V232.176H335.435V229.554Z" fill="#F5F5F5"/>
<path d="M335.435 233.944H332.806V236.567H335.435V233.944Z" fill="#F5F5F5"/>
<path d="M335.435 238.344H332.806V240.966H335.435V238.344Z" fill="#F5F5F5"/>
<path d="M335.435 242.734H332.806V245.357H335.435V242.734Z" fill="#F5F5F5"/>
<path d="M335.435 247.134H332.806V249.756H335.435V247.134Z" fill="#F5F5F5"/>
<path d="M335.435 251.524H332.806V254.147H335.435V251.524Z" fill="#F5F5F5"/>
<path d="M335.435 255.924H332.806V258.546H335.435V255.924Z" fill="#F5F5F5"/>
<path d="M335.435 260.314H332.806V262.937H335.435V260.314Z" fill="#F5F5F5"/>
<path d="M335.435 264.714H332.806V267.336H335.435V264.714Z" fill="#F5F5F5"/>
<path d="M335.435 269.104H332.806V271.727H335.435V269.104Z" fill="#F5F5F5"/>
<path d="M335.435 277.895H332.806V280.517H335.435V277.895Z" fill="#F5F5F5"/>
<path d="M335.435 282.294H332.806V284.917H335.435V282.294Z" fill="#F5F5F5"/>
<path d="M335.435 286.685H332.806V289.307H335.435V286.685Z" fill="#F5F5F5"/>
<path d="M335.435 291.084H332.806V293.707H335.435V291.084Z" fill="#F5F5F5"/>
<path d="M335.435 295.475H332.806V298.097H335.435V295.475Z" fill="#F5F5F5"/>
<path d="M335.435 299.873H332.806V302.496H335.435V299.873Z" fill="#F5F5F5"/>
<path d="M335.435 304.265H332.806V306.887H335.435V304.265Z" fill="#F5F5F5"/>
<path d="M335.435 308.663H332.806V311.286H335.435V308.663Z" fill="#F5F5F5"/>
<path d="M339.616 225.154H336.987V227.777H339.616V225.154Z" fill="#F5F5F5"/>
<path d="M339.616 229.554H336.987V232.176H339.616V229.554Z" fill="#F5F5F5"/>
<path d="M339.616 233.944H336.987V236.567H339.616V233.944Z" fill="#F5F5F5"/>
<path d="M339.616 238.344H336.987V240.966H339.616V238.344Z" fill="#F5F5F5"/>
<path d="M339.616 242.734H336.987V245.357H339.616V242.734Z" fill="#F5F5F5"/>
<path d="M339.616 247.134H336.987V249.756H339.616V247.134Z" fill="#F5F5F5"/>
<path d="M339.616 251.524H336.987V254.147H339.616V251.524Z" fill="#F5F5F5"/>
<path d="M339.616 255.924H336.987V258.546H339.616V255.924Z" fill="#F5F5F5"/>
<path d="M339.616 260.314H336.987V262.937H339.616V260.314Z" fill="#F5F5F5"/>
<path d="M339.616 264.714H336.987V267.336H339.616V264.714Z" fill="#F5F5F5"/>
<path d="M339.616 269.104H336.987V271.727H339.616V269.104Z" fill="#F5F5F5"/>
<path d="M339.616 273.504H336.987V276.127H339.616V273.504Z" fill="#F5F5F5"/>
<path d="M339.616 277.895H336.987V280.517H339.616V277.895Z" fill="#F5F5F5"/>
<path d="M339.616 282.294H336.987V284.917H339.616V282.294Z" fill="#F5F5F5"/>
<path d="M339.616 286.685H336.987V289.307H339.616V286.685Z" fill="#F5F5F5"/>
<path d="M339.616 291.084H336.987V293.707H339.616V291.084Z" fill="#F5F5F5"/>
<path d="M339.616 295.475H336.987V298.097H339.616V295.475Z" fill="#F5F5F5"/>
<path d="M339.616 299.873H336.987V302.496H339.616V299.873Z" fill="#F5F5F5"/>
<path d="M339.616 304.265H336.987V306.887H339.616V304.265Z" fill="#F5F5F5"/>
<path d="M339.616 308.663H336.987V311.286H339.616V308.663Z" fill="#F5F5F5"/>
<path d="M314.879 242.277H312.25V244.9H314.879V242.277Z" fill="#F5F5F5"/>
<path d="M314.879 246.669H312.25V249.292H314.879V246.669Z" fill="#F5F5F5"/>
<path d="M314.879 251.067H312.25V253.69H314.879V251.067Z" fill="#F5F5F5"/>
<path d="M314.879 255.458H312.25V258.081H314.879V255.458Z" fill="#F5F5F5"/>
<path d="M314.879 259.857H312.25V262.48H314.879V259.857Z" fill="#F5F5F5"/>
<path d="M314.879 264.248H312.25V266.871H314.879V264.248Z" fill="#F5F5F5"/>
<path d="M314.879 268.647H312.25V271.27H314.879V268.647Z" fill="#F5F5F5"/>
<path d="M314.879 273.038H312.25V275.661H314.879V273.038Z" fill="#F5F5F5"/>
<path d="M314.879 277.438H312.25V280.06H314.879V277.438Z" fill="#F5F5F5"/>
<path d="M314.879 281.828H312.25V284.451H314.879V281.828Z" fill="#F5F5F5"/>
<path d="M319.052 242.277H316.423V244.9H319.052V242.277Z" fill="#F5F5F5"/>
<path d="M319.052 246.669H316.423V249.292H319.052V246.669Z" fill="#F5F5F5"/>
<path d="M319.052 251.067H316.423V253.69H319.052V251.067Z" fill="#F5F5F5"/>
<path d="M319.052 255.458H316.423V258.081H319.052V255.458Z" fill="#F5F5F5"/>
<path d="M319.052 259.857H316.423V262.48H319.052V259.857Z" fill="#F5F5F5"/>
<path d="M319.052 264.248H316.423V266.871H319.052V264.248Z" fill="#F5F5F5"/>
<path d="M319.052 268.647H316.423V271.27H319.052V268.647Z" fill="#F5F5F5"/>
<path d="M319.052 273.038H316.423V275.661H319.052V273.038Z" fill="#F5F5F5"/>
<path d="M319.052 277.438H316.423V280.06H319.052V277.438Z" fill="#F5F5F5"/>
<path d="M212 361.716C302.806 361.716 376.419 357.428 376.419 352.139C376.419 346.85 302.806 342.562 212 342.562C121.194 342.562 47.5813 346.85 47.5813 352.139C47.5813 357.428 121.194 361.716 212 361.716Z" fill="#F5F5F5"/>
<path d="M357.992 345.954L346.255 287.64H342.041L330.016 345.954L321.392 351.225V352.782H366.336V351.225L357.992 345.954Z" fill="#1769E9"/>
<path opacity="0.2" d="M366.616 351.225H321.672V353.187H366.616V351.225Z" fill="black"/>
<path opacity="0.2" d="M346.255 287.986H342.041L330.16 346.123H358.136L346.255 287.986Z" fill="black"/>
<path opacity="0.6" d="M355.558 333.324H332.815L336.911 313.02H351.42L355.482 332.934L355.558 333.324Z" fill="white"/>
<path d="M240.128 146.104L232.632 148.896C232.072 148.473 234.896 123.093 234.896 123.093L230.351 122.425C230.351 122.425 222.668 148.786 225.263 154.116C228.655 161.019 243.63 154.116 243.63 154.116L240.128 146.104Z" fill="#B97964"/>
<path d="M377.349 161.517L380.838 146.38L180.643 100.454L177.154 115.591L377.349 161.517Z" fill="#1769E9"/>
<path opacity="0.6" d="M377.349 161.517L380.838 146.38L180.643 100.454L177.154 115.591L377.349 161.517Z" fill="white"/>
<path opacity="0.2" d="M378.814 155.169L379.371 152.753L179.176 106.827L178.619 109.243L378.814 155.169Z" fill="black"/>
<path d="M185.712 109.607C186.085 107.996 186.024 106.316 185.536 104.737C185.047 103.157 184.149 101.735 182.931 100.614L182.591 100.301L180.895 99.9034C180.736 99.868 180.569 99.8971 180.43 99.9842C180.292 100.071 180.194 100.21 180.158 100.369L176.681 115.487C176.662 115.565 176.659 115.646 176.672 115.726C176.685 115.805 176.713 115.882 176.756 115.95C176.798 116.019 176.854 116.078 176.92 116.125C176.986 116.171 177.06 116.205 177.139 116.223L178.835 116.62L179.284 116.485C180.868 116.005 182.297 115.116 183.425 113.908C184.554 112.701 185.343 111.217 185.712 109.607Z" fill="#1769E9"/>
<path opacity="0.2" d="M185.712 109.607C186.085 107.996 186.024 106.316 185.536 104.737C185.047 103.157 184.149 101.735 182.931 100.614L182.591 100.301L180.895 99.9034C180.736 99.868 180.569 99.8971 180.43 99.9842C180.292 100.071 180.194 100.21 180.158 100.369L176.681 115.487C176.662 115.565 176.659 115.646 176.672 115.726C176.685 115.805 176.713 115.882 176.756 115.95C176.798 116.019 176.854 116.078 176.92 116.125C176.986 116.171 177.06 116.205 177.139 116.223L178.835 116.62L179.284 116.485C180.868 116.005 182.297 115.116 183.425 113.908C184.554 112.701 185.343 111.217 185.712 109.607Z" fill="black"/>
<path d="M221.159 122.103L231.114 78.8812L227.451 78.0352L216.944 123.626C216.92 123.728 216.917 123.834 216.934 123.938C216.952 124.041 216.99 124.14 217.046 124.229C217.101 124.318 217.175 124.395 217.26 124.456C217.346 124.516 217.443 124.559 217.546 124.582C217.656 124.608 217.771 124.61 217.882 124.588C217.993 124.566 218.098 124.521 218.191 124.455L220.836 122.569C220.994 122.455 221.108 122.291 221.159 122.103Z" fill="#1769E9"/>
<path d="M260.506 131.13L270.512 87.9075L266.84 87.0615L256.342 132.652C256.294 132.858 256.329 133.074 256.44 133.253C256.552 133.432 256.73 133.56 256.936 133.608C257.046 133.635 257.16 133.637 257.272 133.615C257.383 133.593 257.488 133.548 257.58 133.482L260.234 131.595C260.373 131.473 260.468 131.31 260.506 131.13Z" fill="#1769E9"/>
<path d="M299.861 140.156L309.817 96.9339L306.154 96.0879L295.647 141.679C295.623 141.781 295.62 141.887 295.637 141.99C295.655 142.094 295.692 142.193 295.748 142.282C295.804 142.371 295.877 142.448 295.963 142.508C296.049 142.569 296.146 142.612 296.249 142.635C296.359 142.657 296.473 142.658 296.584 142.636C296.695 142.614 296.8 142.571 296.893 142.508L299.548 140.613C299.701 140.5 299.811 140.339 299.861 140.156Z" fill="#1769E9"/>
<path d="M339.2 149.175L349.156 105.961L345.492 105.115L334.986 150.706C334.948 150.913 334.989 151.126 335.1 151.304C335.211 151.482 335.385 151.613 335.588 151.671C335.698 151.695 335.813 151.696 335.924 151.672C336.036 151.649 336.141 151.602 336.232 151.535L338.878 149.649C339.037 149.533 339.151 149.365 339.2 149.175Z" fill="#1769E9"/>
<path d="M384.908 128.684L388.397 113.547L188.202 67.6208L184.713 82.7583L384.908 128.684Z" fill="#1769E9"/>
<path opacity="0.7" d="M384.908 128.684L388.397 113.547L188.202 67.6208L184.713 82.7583L384.908 128.684Z" fill="white"/>
<path opacity="0.2" d="M386.382 122.328L386.939 119.912L186.744 73.986L186.187 76.4018L386.382 122.328Z" fill="black"/>
<path d="M181.803 113.076L192.064 68.5257L188.4 67.6797L177.588 114.599C177.551 114.805 177.592 115.019 177.703 115.197C177.814 115.375 177.988 115.506 178.19 115.563C178.301 115.588 178.416 115.588 178.527 115.565C178.638 115.542 178.743 115.495 178.835 115.428L181.489 113.541C181.644 113.426 181.754 113.262 181.803 113.076Z" fill="#1769E9"/>
<path d="M193.276 76.7742C193.647 75.1628 193.584 73.4825 193.094 71.9033C192.604 70.3241 191.704 68.9021 190.486 67.7812L190.147 67.4682L188.451 67.0705C188.373 67.0517 188.291 67.0487 188.211 67.0615C188.132 67.0743 188.055 67.1028 187.987 67.1453C187.918 67.1878 187.859 67.2434 187.812 67.309C187.765 67.3746 187.731 67.4488 187.713 67.5274L184.203 82.6538C184.184 82.7322 184.181 82.8135 184.194 82.893C184.206 82.9726 184.235 83.0488 184.278 83.1172C184.32 83.1857 184.376 83.245 184.442 83.2918C184.507 83.3386 184.582 83.372 184.661 83.3899L186.357 83.779L186.798 83.6521C188.389 83.1774 189.827 82.2912 190.965 81.0833C192.103 79.8753 192.9 78.3887 193.276 76.7742Z" fill="#1769E9"/>
<path opacity="0.1" d="M193.276 76.7742C193.647 75.1628 193.584 73.4825 193.094 71.9033C192.604 70.3241 191.704 68.9021 190.486 67.7812L190.147 67.4682L188.451 67.0705C188.373 67.0517 188.291 67.0487 188.211 67.0615C188.132 67.0743 188.055 67.1028 187.987 67.1453C187.918 67.1878 187.859 67.2434 187.812 67.309C187.765 67.3746 187.731 67.4488 187.713 67.5274L184.203 82.6538C184.184 82.7322 184.181 82.8135 184.194 82.893C184.206 82.9726 184.235 83.0488 184.278 83.1172C184.32 83.1857 184.376 83.245 184.442 83.2918C184.507 83.3386 184.582 83.372 184.661 83.3899L186.357 83.779L186.798 83.6521C188.389 83.1774 189.827 82.2912 190.965 81.0833C192.103 79.8753 192.9 78.3887 193.276 76.7742Z" fill="white"/>
<path d="M264.788 152.279C264.34 152.235 263.888 152.235 263.44 152.279C260.169 152.648 256.924 153.213 253.722 153.971C246.446 155.502 238.458 157.558 238.458 157.558L234.896 147.203C234.896 147.203 258.36 133.667 262.168 134.775C262.168 134.775 268.536 152.846 264.788 152.279Z" fill="#263238"/>
<path d="M318.636 162.812C318.636 162.812 324.928 170.046 324.216 179.352C323.504 188.658 299.819 203.04 299.819 203.04L296.8 198.387C296.8 198.387 315.668 182.524 316.092 179.352C316.516 176.179 312.174 169.2 312.174 169.2L318.636 162.812Z" fill="#B97964"/>
<path d="M297.648 196.762C297.648 196.762 301.507 201.923 301.32 202.582C301.133 203.242 298.013 205.18 298.013 205.18C298.013 205.18 298.539 208.259 298.539 208.817C298.539 210.196 296.071 211.922 295.435 211.499C293.154 209.976 292.323 205.856 291.899 203.97C291.475 202.083 296.537 196.195 297.648 196.762Z" fill="#1769E9"/>
<path opacity="0.7" d="M297.648 196.762C297.648 196.762 301.507 201.923 301.32 202.582C301.133 203.242 298.013 205.18 298.013 205.18C298.013 205.18 298.539 208.259 298.539 208.817C298.539 210.196 296.071 211.922 295.435 211.499C293.154 209.976 292.323 205.856 291.899 203.97C291.475 202.083 296.537 196.195 297.648 196.762Z" fill="white"/>
<path d="M263.287 346.885L256.41 347.604L255.121 332.808L261.998 332.08L263.287 346.885Z" fill="#B97964"/>
<path d="M297.614 346.386H290.949L290.398 330.98H297.071L297.614 346.386Z" fill="#B97964"/>
<path d="M290.016 345.616H298.115C298.248 345.615 298.377 345.66 298.48 345.743C298.584 345.826 298.655 345.943 298.683 346.072L299.997 351.994C300.024 352.138 300.02 352.286 299.984 352.428C299.947 352.569 299.88 352.701 299.787 352.814C299.694 352.927 299.577 353.018 299.445 353.081C299.313 353.144 299.168 353.178 299.022 353.179C296.402 353.137 294.494 352.976 291.203 352.976C289.177 352.976 283.063 353.187 280.264 353.187C277.466 353.187 277.101 350.429 278.246 350.176C283.385 349.059 287.252 347.511 288.897 346.039C289.201 345.759 289.602 345.607 290.016 345.616Z" fill="#263238"/>
<path d="M287.82 346.783C287.367 346.817 286.916 346.698 286.539 346.444C286.418 346.342 286.324 346.211 286.266 346.064C286.208 345.916 286.188 345.756 286.209 345.598C286.205 345.507 286.229 345.416 286.278 345.337C286.326 345.259 286.396 345.197 286.48 345.158C287.218 344.778 289.372 346.098 289.609 346.25C289.637 346.263 289.66 346.285 289.674 346.313C289.688 346.34 289.692 346.372 289.685 346.402C289.681 346.434 289.668 346.464 289.647 346.488C289.626 346.512 289.598 346.529 289.567 346.537C288.995 346.683 288.409 346.765 287.82 346.783ZM286.828 345.404C286.757 345.396 286.686 345.411 286.624 345.446C286.582 345.446 286.531 345.505 286.522 345.632C286.509 345.737 286.522 345.843 286.558 345.942C286.595 346.04 286.656 346.129 286.734 346.199C287.482 346.537 288.331 346.58 289.109 346.318C288.415 345.868 287.64 345.558 286.828 345.404Z" fill="#1769E9"/>
<path d="M289.524 346.547H289.448C288.761 346.174 287.43 344.711 287.565 344.009C287.589 343.891 287.652 343.786 287.745 343.71C287.838 343.635 287.954 343.594 288.074 343.594C288.194 343.578 288.316 343.588 288.431 343.623C288.547 343.658 288.653 343.718 288.744 343.797C289.516 344.423 289.677 346.335 289.685 346.428C289.686 346.457 289.679 346.485 289.666 346.51C289.652 346.535 289.633 346.556 289.609 346.572C289.579 346.573 289.549 346.564 289.524 346.547ZM288.184 343.848H288.108C287.905 343.848 287.888 343.966 287.879 344.009C287.794 344.44 288.642 345.548 289.329 346.064C289.286 345.306 289.011 344.58 288.541 343.983C288.443 343.895 288.316 343.846 288.184 343.848Z" fill="#1769E9"/>
<path d="M255.681 345.405H263.779C263.912 345.404 264.041 345.449 264.145 345.532C264.248 345.615 264.32 345.732 264.347 345.861L265.662 351.783C265.689 351.927 265.684 352.075 265.648 352.217C265.612 352.358 265.545 352.49 265.452 352.603C265.359 352.716 265.242 352.807 265.11 352.87C264.977 352.933 264.833 352.967 264.686 352.968C262.066 352.926 260.158 352.765 256.868 352.765C254.841 352.765 248.727 352.976 245.929 352.976C243.13 352.976 242.766 350.218 243.91 349.965C249.049 348.848 252.916 347.3 254.561 345.828C254.866 345.548 255.267 345.396 255.681 345.405Z" fill="#263238"/>
<path d="M253.476 346.572C253.023 346.606 252.572 346.487 252.195 346.233C252.074 346.131 251.98 346 251.922 345.853C251.864 345.705 251.844 345.545 251.865 345.387C251.861 345.296 251.885 345.205 251.934 345.127C251.982 345.048 252.052 344.986 252.136 344.948C252.874 344.567 255.028 345.887 255.265 346.039C255.293 346.052 255.316 346.074 255.33 346.102C255.344 346.129 255.348 346.161 255.341 346.191C255.337 346.223 255.324 346.253 255.303 346.277C255.282 346.301 255.254 346.318 255.223 346.327C254.651 346.472 254.065 346.554 253.476 346.572ZM252.484 345.168C252.413 345.16 252.342 345.175 252.28 345.21C252.238 345.21 252.187 345.269 252.178 345.396C252.165 345.5 252.178 345.607 252.214 345.705C252.251 345.804 252.312 345.892 252.39 345.963C253.138 346.301 253.987 346.343 254.765 346.081C254.071 345.632 253.296 345.321 252.484 345.168Z" fill="#1769E9"/>
<path d="M255.18 346.335H255.104C254.417 345.963 253.086 344.499 253.221 343.797C253.245 343.68 253.308 343.574 253.401 343.499C253.494 343.423 253.61 343.382 253.73 343.382C253.85 343.367 253.972 343.376 254.087 343.412C254.203 343.447 254.309 343.506 254.4 343.585C255.172 344.211 255.333 346.123 255.341 346.216C255.342 346.245 255.335 346.273 255.322 346.298C255.308 346.323 255.289 346.344 255.265 346.36C255.235 346.361 255.205 346.352 255.18 346.335ZM253.84 343.636H253.764C253.561 343.636 253.544 343.754 253.535 343.797C253.45 344.228 254.298 345.336 254.985 345.853C254.942 345.095 254.667 344.368 254.197 343.771C254.099 343.683 253.972 343.634 253.84 343.636Z" fill="#1769E9"/>
<path opacity="0.2" d="M261.998 332.08L255.121 332.808L255.791 340.439L262.668 339.719L261.998 332.08Z" fill="black"/>
<path opacity="0.2" d="M297.071 330.988H290.398L290.686 338.932H297.36L297.071 330.988Z" fill="black"/>
<path d="M294.316 195.849H258.937C255.545 214.173 245.047 279.027 252.602 336.818L264.576 335.337C264.576 335.337 263.465 258.622 274.04 230.264C275.261 245.441 276.703 261.566 277.958 270.178C281.036 291.328 287.625 337.554 287.625 337.554H299.819C299.819 337.554 297.326 293.308 296.173 272.522C294.909 249.959 294.366 200.502 294.316 195.849Z" fill="#1769E9"/>
<path opacity="0.2" d="M274.04 230.264C272.299 235.236 270.977 240.344 270.088 245.535C269.096 231.999 273.056 217.701 273.056 217.701L274.04 230.264Z" fill="black"/>
<path d="M251.229 339.601L266.052 337.401L265.602 333.307L250.177 335.32L251.229 339.601Z" fill="#1769E9"/>
<path opacity="0.6" d="M251.229 339.601L266.052 337.401L265.602 333.307L250.177 335.32L251.229 339.601Z" fill="white"/>
<path d="M286.158 337.655H300.54V333.366L285.615 333.087L286.158 337.655Z" fill="#1769E9"/>
<path opacity="0.6" d="M286.158 337.655H300.54V333.366L285.615 333.087L286.158 337.655Z" fill="white"/>
<path d="M258.64 196.271H294.256V200.501L258.182 200.062L258.64 196.271Z" fill="#263238"/>
<path d="M282.808 194.368H281.536V201.881H282.808V194.368Z" fill="#1769E9"/>
<path d="M264.788 194.368H263.516V201.881H264.788V194.368Z" fill="#1769E9"/>
<path opacity="0.2" d="M263.44 152.279C260.169 152.648 256.924 153.213 253.722 153.971C255.036 148.303 262.032 143.667 262.032 143.667L263.44 152.279Z" fill="black"/>
<path d="M274.879 195.535H268.29V200.273H274.879V195.535Z" fill="white"/>
<path d="M301.439 137.94C301.439 137.94 300.362 143.338 299.047 151.18C298.454 154.742 297.809 158.794 297.19 163.1C295.596 174.2 294.188 186.83 294.315 196.272H258.64C258.64 196.272 256.325 156.603 262.168 134.776C262.168 134.776 284.674 133.719 301.439 137.94Z" fill="#263238"/>
<path d="M288.642 135.571C285.394 138.515 277.44 137.424 277.44 137.424C277.44 137.424 272.471 136.07 273.514 134.522C276.44 134.04 277.856 132.678 278.441 130.935C278.761 129.855 278.862 128.721 278.738 127.602C278.689 126.977 278.607 126.356 278.492 125.74L288.32 118.439C287.04 123.27 285.462 132.094 288.642 135.571Z" fill="#B97964"/>
<path opacity="0.2" d="M286.056 123.093C285.666 129.015 280.815 130.605 278.424 130.935C278.744 129.855 278.845 128.722 278.721 127.602L286.056 123.093Z" fill="black"/>
<path d="M287.192 131.832L277.788 136.062L277.237 132.678L273.785 133.888C273.181 134.097 272.665 134.504 272.323 135.044C271.981 135.583 271.833 136.223 271.903 136.857L272.284 140.58L277.059 137.974L279.433 141.358L290.728 135.935L287.192 131.832Z" fill="#263238"/>
<path opacity="0.2" d="M287.192 131.832L277.788 136.062L277.237 132.678L273.785 133.888C273.181 134.097 272.665 134.504 272.323 135.044C271.981 135.583 271.833 136.223 271.903 136.857L272.284 140.58L277.059 137.974L279.433 141.358L290.728 135.935L287.192 131.832Z" fill="white"/>
<path d="M297.784 137.119C297.784 137.119 289.465 165.037 296.809 170.046C296.809 170.046 295.791 193.006 294.324 196.272C282.438 196.915 270.526 196.915 258.64 196.272C257.678 187.565 257.302 178.803 257.512 170.046C257.512 170.046 260.192 166.662 260.192 164.124C260.192 161.586 261.744 141.282 266.832 134.514H269.664C269.664 134.514 265.568 142.83 266.128 150.165C266.128 150.165 278.568 152.28 287.616 151.011C287.616 151.011 290.296 141.138 293.264 136.206L297.784 137.119Z" fill="#1769E9"/>
<path opacity="0.2" d="M264.788 171.737H285.776C285.776 171.737 287.048 188.936 272.615 187.811C261.583 186.965 264.788 171.737 264.788 171.737Z" fill="black"/>
<path d="M271.767 102.958C271.767 102.958 268.96 111.799 273.226 116.037C277.491 120.276 280.154 103.423 280.154 103.423L271.767 102.958Z" fill="#263238"/>
<path d="M287.37 123.803C286.999 124.388 286.567 124.933 286.081 125.428C284.836 126.759 283.186 127.646 281.386 127.952C279.586 128.258 277.735 127.965 276.117 127.12C274.008 126.064 272.377 124.25 271.555 122.044C271.438 121.736 271.339 121.423 271.258 121.104C271.058 120.325 270.908 119.534 270.809 118.736C270.037 112.873 271.326 105.064 276.965 102.662C278.055 102.192 279.227 101.942 280.415 101.925C281.602 101.908 282.781 102.125 283.884 102.564C284.986 103.002 285.992 103.653 286.842 104.48C287.692 105.307 288.37 106.293 288.837 107.382C289.405 108.684 289.652 110.103 289.558 111.519C289.295 117.128 289.346 120.758 287.37 123.803Z" fill="#B97964"/>
<path opacity="0.1" d="M287.37 123.803C286.999 124.389 286.567 124.933 286.081 125.428C284.835 126.76 283.186 127.646 281.386 127.952C279.586 128.258 277.735 127.965 276.117 127.12C274.008 126.064 272.377 124.251 271.555 122.044C271.438 121.737 271.339 121.423 271.258 121.105C271.058 120.325 270.908 119.534 270.809 118.736C271.791 119.315 272.888 119.675 274.023 119.793C274.799 119.715 275.575 119.943 276.185 120.428C278.322 119.15 281.765 119.083 283.351 118.685C284.937 118.287 285.352 112.171 285.352 112.171L287.37 114.379C288.244 118.381 288.15 121.485 287.37 123.803Z" fill="black"/>
<path d="M279.552 113.533C279.552 114.057 279.28 114.506 278.924 114.506C278.568 114.506 278.28 114.074 278.271 113.541C278.263 113.008 278.551 112.568 278.899 112.568C279.246 112.568 279.535 112.983 279.552 113.533Z" fill="#263238"/>
<path d="M273.472 113.609C273.514 114.142 273.192 114.582 272.844 114.582C272.496 114.582 272.208 114.15 272.191 113.617C272.174 113.084 272.471 112.645 272.819 112.645C273.166 112.645 273.463 113.101 273.472 113.609Z" fill="#263238"/>
<path d="M275.405 113.846C274.775 115.495 273.919 117.05 272.861 118.465C273.234 118.725 273.66 118.901 274.108 118.978C274.557 119.056 275.017 119.033 275.456 118.913L275.405 113.846Z" fill="#A24E3F"/>
<path d="M281.409 111.544C281.352 111.552 281.294 111.545 281.241 111.524C281.188 111.504 281.14 111.47 281.104 111.426C280.868 111.108 280.562 110.848 280.209 110.669C279.855 110.49 279.465 110.396 279.068 110.394C279.027 110.398 278.985 110.395 278.945 110.382C278.905 110.37 278.868 110.35 278.836 110.323C278.805 110.296 278.779 110.263 278.76 110.226C278.742 110.188 278.731 110.148 278.729 110.106C278.722 110.024 278.747 109.943 278.8 109.88C278.852 109.817 278.927 109.776 279.009 109.768C279.503 109.764 279.992 109.877 280.434 110.097C280.876 110.318 281.26 110.64 281.553 111.037C281.606 111.101 281.631 111.183 281.623 111.265C281.615 111.348 281.575 111.424 281.511 111.477C281.48 111.504 281.446 111.527 281.409 111.544Z" fill="#263238"/>
<path d="M276.397 121.679C277.173 121.794 277.965 121.717 278.704 121.456C279.443 121.195 280.106 120.757 280.637 120.182C280.666 120.149 280.682 120.107 280.679 120.063C280.677 120.019 280.657 119.978 280.624 119.949C280.592 119.92 280.549 119.905 280.505 119.907C280.462 119.91 280.421 119.929 280.391 119.962C279.89 120.479 279.275 120.872 278.595 121.11C277.915 121.348 277.188 121.424 276.474 121.333C276.431 121.329 276.389 121.341 276.355 121.366C276.321 121.391 276.297 121.427 276.287 121.468C276.283 121.489 276.284 121.511 276.289 121.532C276.294 121.552 276.303 121.572 276.315 121.589C276.328 121.607 276.344 121.621 276.363 121.633C276.381 121.644 276.401 121.651 276.423 121.654L276.397 121.679Z" fill="#263238"/>
<path d="M270.834 111.554C270.773 111.57 270.709 111.57 270.648 111.554C270.572 111.519 270.514 111.456 270.484 111.379C270.454 111.301 270.455 111.216 270.487 111.139C270.688 110.681 270.998 110.277 271.389 109.964C271.78 109.65 272.242 109.435 272.734 109.337C272.817 109.327 272.9 109.35 272.967 109.401C273.033 109.451 273.077 109.525 273.09 109.608C273.098 109.69 273.074 109.772 273.024 109.838C272.973 109.904 272.9 109.949 272.819 109.963C272.433 110.052 272.074 110.229 271.77 110.48C271.465 110.731 271.223 111.049 271.063 111.41C271.037 111.448 271.003 111.481 270.964 111.506C270.924 111.53 270.88 111.547 270.834 111.554Z" fill="#263238"/>
<path d="M284.597 103.406L284.139 106.291C284.623 106.543 284.994 106.968 285.178 107.481C285.361 107.993 285.345 108.556 285.132 109.058C284.105 111.46 285.369 115.301 287.192 116.875C287.192 116.875 287.285 115.817 288.167 116.096C289.049 116.375 288.617 121.874 286.785 124.446C286.785 124.446 289.507 122.162 291.195 116.426C292.755 111.13 293.086 106.68 292.043 104.582L284.597 103.406Z" fill="#263238"/>
<path d="M291.924 105.411C291.924 105.411 294.867 100.877 286.946 98.4909C279.026 96.1051 273.514 99.4976 273.514 99.4976C273.514 99.4976 268.358 105.64 275.21 106.646C281.935 107.619 291.924 105.411 291.924 105.411Z" fill="#263238"/>
<path d="M293.094 117.018C292.381 118.518 291.1 119.674 289.533 120.233C287.455 120.96 286.277 119.133 286.734 117.103C287.15 115.292 288.727 112.687 290.881 112.873C293.035 113.059 293.951 115.165 293.094 117.018Z" fill="#B97964"/>
<path d="M288.685 106.046C288.685 106.046 286.378 127.949 275.227 126.502L276.567 127.407C276.567 127.407 286.59 128.837 290.135 106.257L288.685 106.046Z" fill="#263238"/>
<path opacity="0.2" d="M288.685 106.046C288.685 106.046 286.378 127.949 275.227 126.502L276.567 127.407C276.567 127.407 286.59 128.837 290.135 106.257L288.685 106.046Z" fill="black"/>
<path d="M294.053 107.89C290.762 107.044 280.052 108.829 275.015 108.609C269.978 108.389 268.341 107.568 267.519 106.858C266.696 106.147 269.715 105.166 269.715 105.166C269.715 105.166 270.114 97.5518 276.372 94.0663C278.278 93.0444 280.392 92.4659 282.554 92.3743C284.194 92.2302 285.847 92.4172 287.413 92.9242C294.977 95.4622 294.4 105.614 294.4 105.614C294.4 105.614 297.351 108.694 294.053 107.89Z" fill="#1769E9"/>
<path opacity="0.2" d="M294.053 107.89C290.762 107.044 280.052 108.829 275.015 108.609C269.978 108.389 268.341 107.568 267.519 106.858C266.696 106.147 269.715 105.166 269.715 105.166C269.715 105.166 272.861 107.314 276.084 106.705C279.306 106.096 288.592 103.567 294.409 105.614C294.409 105.656 297.351 108.693 294.053 107.89Z" fill="black"/>
<path opacity="0.2" d="M287.421 92.9326C284.207 93.4487 281.485 96.3928 280.264 99.1592C278.619 102.822 272.878 106.917 273.616 98.8208C273.701 97.8818 273.992 96.9729 274.468 96.1586C274.944 95.3443 275.594 94.6444 276.372 94.1086C278.278 93.0867 280.392 92.5082 282.554 92.4166C284.195 92.2605 285.85 92.436 287.421 92.9326Z" fill="black"/>
<path d="M241.146 158.405L235.566 145.461L233.141 147.229L237.635 159.082L241.146 158.405Z" fill="#263238"/>
<path opacity="0.2" d="M241.146 158.405L235.566 145.461L233.141 147.229L237.635 159.082L241.146 158.405Z" fill="white"/>
<path d="M231.114 112.052C231.114 112.052 230.8 114.429 231.784 114.675C233.543 115.17 235.333 115.546 237.143 115.8C237.991 115.8 238.568 112.416 238.568 112.052C238.568 111.688 231.852 109.607 231.114 112.052Z" fill="#1769E9"/>
<path opacity="0.7" d="M231.114 112.052C231.114 112.052 230.8 114.429 231.784 114.675C233.543 115.17 235.333 115.546 237.143 115.8C237.991 115.8 238.568 112.416 238.568 112.052C238.568 111.688 231.852 109.607 231.114 112.052Z" fill="white"/>
<path opacity="0.2" d="M299.047 151.18C298.454 154.741 297.809 158.794 297.19 163.1C294.392 157.965 296.622 149.42 296.622 149.42L299.047 151.18Z" fill="black"/>
<path d="M301.439 137.94C301.439 137.94 306.45 139.59 324.216 168.633L313.972 174.911C313.972 174.911 301.15 157.356 297.784 156.51C297.784 156.51 293.569 142.027 301.439 137.94Z" fill="#263238"/>
<path d="M323.724 166.806L312.174 174.91L314.396 176.924L325.106 170.088L323.724 166.806Z" fill="#263238"/>
<path opacity="0.2" d="M323.724 166.806L312.174 174.91L314.396 176.924L325.106 170.088L323.724 166.806Z" fill="white"/>
<path d="M46.4873 353.188H52.6183L66.7545 225.577H60.6235L46.4873 353.188Z" fill="#263238"/>
<path opacity="0.1" d="M62.8622 260.627L57.9523 304.814L52.6183 352.782H46.4873L51.8212 304.78L57.1975 256.338H57.206L62.8622 260.627Z" fill="white"/>
<path d="M147.561 353.188H153.683L167.819 225.577H161.697L147.561 353.188Z" fill="#263238"/>
<path opacity="0.1" d="M156.219 330.135L153.683 352.782H147.561L150.562 325.812L156.219 330.135Z" fill="white"/>
<path d="M51.8213 305.051H159.059L173.73 172.635H66.4917L51.8213 305.051Z" fill="#263238"/>
<path opacity="0.1" d="M122.324 305.406H51.8213L57.2061 256.643L62.8622 260.957L122.324 305.406Z" fill="white"/>
<path d="M194.082 353.188H187.951L173.814 225.577H179.937L194.082 353.188Z" fill="#263238"/>
<path opacity="0.2" d="M194.082 353.188H187.951L173.814 225.577H179.937L194.082 353.188Z" fill="white"/>
<path d="M93.0085 353.188H86.8859L72.7498 225.577H78.8723L93.0085 353.188Z" fill="#263238"/>
<path opacity="0.2" d="M93.0085 353.188H86.8859L72.7498 225.577H78.8723L93.0085 353.188Z" fill="white"/>
<path d="M188.748 305.051H81.5098L66.8394 172.635H174.077L188.748 305.051Z" fill="#1769E9"/>
<path opacity="0.6" d="M188.748 305.051H81.5098L66.8394 172.635H174.077L188.748 305.051Z" fill="white"/>
<path d="M174.044 172.584L175.358 184.428H68.1623L66.8479 172.584H174.044Z" fill="#1769E9"/>
<path opacity="0.2" d="M174.044 172.584L175.358 184.428H68.1623L66.8479 172.584H174.044Z" fill="white"/>
<path d="M76.6761 172.584L74.3781 184.369L74.3696 184.428H70.791L70.7995 184.369L73.0976 172.584H76.6761Z" fill="#263238"/>
<path d="M87.9122 172.584L85.6056 184.369L85.5971 184.428H82.0186L82.027 184.369L84.3336 172.584H87.9122Z" fill="#263238"/>
<path d="M99.1395 172.584L96.8414 184.369L96.833 184.428H93.2544L93.2629 184.369L95.561 172.584H99.1395Z" fill="#263238"/>
<path d="M110.376 172.584L108.069 184.369L108.061 184.428H104.49L104.507 184.369L106.806 172.584H110.376Z" fill="#263238"/>
<path d="M121.612 172.584L119.314 184.369L119.305 184.428H115.727L115.735 184.369L118.033 172.584H121.612Z" fill="#263238"/>
<path d="M132.848 172.584L130.541 184.369L130.532 184.428H126.962L126.971 184.369L129.269 172.584H132.848Z" fill="#263238"/>
<path d="M144.075 172.584L141.777 184.369L141.769 184.428H138.198L138.207 184.369L140.505 172.584H144.075Z" fill="#263238"/>
<path d="M155.32 172.584L153.013 184.369L153.005 184.428H149.435L149.443 184.369L151.741 172.584H155.32Z" fill="#263238"/>
<path d="M166.547 172.584L164.249 184.369L164.241 184.428H160.662L160.671 184.369L162.977 172.584H166.547Z" fill="#263238"/>
<path d="M174.196 173.946L175.358 184.428H171.924L174.196 173.946Z" fill="#263238"/>
<path d="M81.569 305.406L80.2546 293.562H187.45L188.756 305.406H81.569Z" fill="#1769E9"/>
<path opacity="0.2" d="M81.569 305.406L80.2546 293.562H187.45L188.756 305.406H81.569Z" fill="white"/>
<path d="M178.937 305.406L181.235 293.621L181.243 293.562H184.822L184.813 293.621L182.507 305.406H178.937Z" fill="#263238"/>
<path d="M167.7 305.406L170.007 293.621L170.015 293.562H173.586L173.577 293.621L171.279 305.406H167.7Z" fill="#263238"/>
<path d="M156.473 305.406L158.771 293.621L158.779 293.562H162.358L162.35 293.621L160.043 305.406H156.473Z" fill="#263238"/>
<path d="M145.237 305.406L147.543 293.621L147.552 293.562H151.113L151.105 293.621L148.807 305.406H145.237Z" fill="#263238"/>
<path d="M134.001 305.406L136.299 293.621L136.308 293.562H139.886L139.878 293.621L137.571 305.406H134.001Z" fill="#263238"/>
<path d="M122.765 305.406L125.071 293.621L125.08 293.562H128.65L128.642 293.621L126.343 305.406H122.765Z" fill="#263238"/>
<path d="M111.537 305.406L113.835 293.621L113.844 293.562H117.414L117.406 293.621L115.099 305.406H111.537Z" fill="#263238"/>
<path d="M100.293 305.406L102.591 293.621L102.608 293.562H106.178L106.17 293.621L103.872 305.406H100.293Z" fill="#263238"/>
<path d="M89.0654 305.406L91.3635 293.621L91.372 293.562H94.9506L94.9336 293.621L92.6355 305.406H89.0654Z" fill="#263238"/>
<path d="M81.4164 304.043L80.2546 293.562H83.689L81.4164 304.043Z" fill="#263238"/>
<path d="M108.23 220.096L99.4534 240.738L101.641 265.331L89.7354 283.41H92.2878L105.449 267.226L107.297 251.372L118.338 267.336L117.185 283.41H119.856L122.663 263.834L112.75 243.191L120.229 229.241L108.23 220.096Z" fill="#1769E9"/>
<path d="M113.064 225.882C113.064 225.882 114.811 216.872 118.347 216.017C119.602 215.713 124.028 219.977 124.003 222.98C123.977 225.983 114.48 227.709 114.48 227.709L113.064 225.882Z" fill="#1769E9"/>
<path d="M108.23 220.096C108.23 220.096 97.4689 219.25 95.968 219.681C94.467 220.113 95.5949 231.119 95.5949 231.119L97.3757 231.601C97.3757 231.601 97.2654 222.541 97.8081 222.549C98.3509 222.558 107.62 225.214 107.62 225.214L108.23 220.096Z" fill="#1769E9"/>
<path d="M120.238 229.215C121.451 230.112 117.694 245.382 117.694 245.382L121.383 253.385L120.535 253.918C120.535 253.918 115.218 247.15 114.599 245.67C113.344 242.742 115.65 232.751 115.65 232.751L120.238 229.215Z" fill="#1769E9"/>
<path d="M136.842 268.436L137.741 267.184L84.5202 218.937L83.6213 220.18L136.842 268.436Z" fill="#1769E9"/>
<path d="M137.529 264.003L134.374 267.954C134.374 267.954 138.818 272.742 142.506 272.463C142.506 272.463 142.464 268.935 137.529 264.003Z" fill="#1769E9"/>
<path d="M120.602 252.684C120.602 252.684 123.689 253.589 123.554 254.418C123.418 255.247 122.951 256.533 122.426 256.601C121.9 256.668 120.501 253.919 120.501 253.919L120.602 252.684Z" fill="#1769E9"/>
<path d="M95.7391 230.112C95.7391 230.112 95.2472 231.55 96.833 233.166C98.4188 234.782 99.1056 233.166 99.1056 233.166L95.7391 230.112Z" fill="#1769E9"/>
<path d="M85.2578 283.41H176.384L171.398 281.041C171.398 281.041 166.539 272.657 163.901 270.754C161.264 268.85 155.956 264.316 154.243 263.986C152.53 263.656 151.902 260.306 150.249 260.306C148.595 260.306 140.352 272.437 140.352 272.437C139.517 273.701 138.403 274.757 137.096 275.525C135.307 276.371 132.305 280.999 132.305 280.999C132.305 280.999 105.262 281.718 85.2578 283.41Z" fill="#1769E9"/>
<g opacity="0.2">
<path d="M108.23 220.095L99.4534 240.737L101.641 265.33L89.7354 283.409H92.2878L105.449 267.225L107.297 251.371L118.338 267.335L117.185 283.409H119.856L122.663 263.833L112.75 243.191L120.229 229.24L108.23 220.095Z" fill="black"/>
<path d="M113.064 225.882C113.064 225.882 114.811 216.872 118.347 216.017C119.602 215.713 124.029 219.977 124.003 222.98C123.978 225.983 114.48 227.709 114.48 227.709L113.064 225.882Z" fill="black"/>
<path d="M108.23 220.095C108.23 220.095 97.4692 219.249 95.9682 219.68C94.4673 220.112 95.5951 231.118 95.5951 231.118L97.3759 231.6C97.3759 231.6 97.2657 222.54 97.8084 222.548C98.3511 222.557 107.62 225.213 107.62 225.213L108.23 220.095Z" fill="black"/>
<path d="M120.238 229.215C121.451 230.112 117.694 245.382 117.694 245.382L121.383 253.385L120.535 253.918C120.535 253.918 115.218 247.15 114.599 245.67C113.344 242.742 115.65 232.751 115.65 232.751L120.238 229.215Z" fill="black"/>
<path d="M136.842 268.436L137.741 267.184L84.5202 218.937L83.6213 220.18L136.842 268.436Z" fill="black"/>
<path d="M137.529 264.003L134.374 267.954C134.374 267.954 138.818 272.742 142.506 272.463C142.506 272.463 142.464 268.935 137.529 264.003Z" fill="black"/>
<path d="M120.603 252.683C120.603 252.683 123.689 253.588 123.554 254.417C123.418 255.246 122.952 256.532 122.426 256.6C121.9 256.667 120.501 253.918 120.501 253.918L120.603 252.683Z" fill="black"/>
<path d="M95.7393 230.111C95.7393 230.111 95.2475 231.55 96.8332 233.165C98.419 234.781 99.1059 233.165 99.1059 233.165L95.7393 230.111Z" fill="black"/>
<path d="M85.2581 283.41H176.384L171.398 281.041C171.398 281.041 166.539 272.657 163.902 270.754C161.264 268.85 155.956 264.316 154.243 263.986C152.53 263.656 151.902 260.306 150.249 260.306C148.595 260.306 140.353 272.437 140.353 272.437C139.517 273.701 138.403 274.757 137.096 275.525C135.307 276.371 132.305 280.999 132.305 280.999C132.305 280.999 105.262 281.718 85.2581 283.41Z" fill="black"/>
</g>
<path d="M220.802 328.248L212.424 338.984L209.422 338.527L218.258 328.248H220.802Z" fill="#1769E9"/>
<path opacity="0.3" d="M220.802 328.248L212.424 338.984L209.422 338.527L218.258 328.248H220.802Z" fill="black"/>
<path d="M218.258 318.096L209.88 328.831L206.878 328.375L215.714 318.096H218.258Z" fill="#1769E9"/>
<path opacity="0.3" d="M218.258 318.096L209.88 328.831L206.878 328.375L215.714 318.096H218.258Z" fill="black"/>
<path d="M194.167 312.597H157.982L166.471 334.956H202.655L194.167 312.597Z" fill="#1769E9"/>
<path opacity="0.3" d="M194.167 312.597H157.982L166.471 334.956H202.655L194.167 312.597Z" fill="black"/>
<path d="M222.261 326.496H164.775V329.381H222.261V326.496Z" fill="#1769E9"/>
<path opacity="0.2" d="M186.84 326.496H164.775V329.381H186.84V326.496Z" fill="black"/>
<path d="M218.869 318.028H161.383V320.913H218.869V318.028Z" fill="#1769E9"/>
<path opacity="0.2" d="M183.448 318.028H161.383V320.913H183.448V318.028Z" fill="black"/>
<path d="M158.042 312.749L156.032 315.076L163.664 335.016H166.649L158.042 312.749Z" fill="#1769E9"/>
<path d="M236.753 324.441L240.637 325.405C240.489 324.356 240.043 323.371 239.352 322.566C238.66 321.761 237.753 321.17 236.736 320.862C235.524 320.584 234.251 320.749 233.151 321.329C232.05 321.908 231.195 322.862 230.741 324.018C230.407 324.82 230.316 325.702 230.478 326.556L207.065 340.616C204.317 338.315 201.069 340.05 199.73 341.919L203.596 342.858C203.819 342.907 204.03 343 204.216 343.131C204.402 343.263 204.56 343.431 204.679 343.625C204.799 343.819 204.878 344.035 204.912 344.26C204.946 344.485 204.934 344.714 204.877 344.935C204.82 345.155 204.719 345.362 204.58 345.542C204.441 345.723 204.267 345.873 204.068 345.985C203.869 346.097 203.65 346.168 203.423 346.193C203.197 346.218 202.967 346.198 202.748 346.132L198.882 345.168C199.032 346.217 199.479 347.201 200.17 348.006C200.86 348.81 201.767 349.402 202.782 349.711C203.992 350.016 205.272 349.877 206.388 349.319C207.504 348.762 208.382 347.823 208.863 346.674C209.218 345.929 209.339 345.094 209.21 344.28L232.624 330.219C234.93 331.793 238.56 330.651 239.874 328.781L235.965 327.766C235.744 327.714 235.537 327.619 235.354 327.487C235.171 327.354 235.016 327.186 234.899 326.993C234.783 326.8 234.705 326.585 234.673 326.362C234.64 326.139 234.653 325.911 234.71 325.693C234.814 325.257 235.088 324.88 235.472 324.645C235.855 324.41 236.316 324.337 236.753 324.441Z" fill="#1769E9"/>
<path opacity="0.6" d="M236.753 324.441L240.637 325.405C240.489 324.356 240.043 323.371 239.352 322.566C238.66 321.761 237.753 321.17 236.736 320.862C235.524 320.584 234.251 320.749 233.151 321.329C232.05 321.908 231.195 322.862 230.741 324.018C230.407 324.82 230.316 325.702 230.478 326.556L207.065 340.616C204.317 338.315 201.069 340.05 199.73 341.919L203.596 342.858C203.819 342.907 204.03 343 204.216 343.131C204.402 343.263 204.56 343.431 204.679 343.625C204.799 343.819 204.878 344.035 204.912 344.26C204.946 344.485 204.934 344.714 204.877 344.935C204.82 345.155 204.719 345.362 204.58 345.542C204.441 345.723 204.267 345.873 204.068 345.985C203.869 346.097 203.65 346.168 203.423 346.193C203.197 346.218 202.967 346.198 202.748 346.132L198.882 345.168C199.032 346.217 199.479 347.201 200.17 348.006C200.86 348.81 201.767 349.402 202.782 349.711C203.992 350.016 205.272 349.877 206.388 349.319C207.504 348.762 208.382 347.823 208.863 346.674C209.218 345.929 209.339 345.094 209.21 344.28L232.624 330.219C234.93 331.793 238.56 330.651 239.874 328.781L235.965 327.766C235.744 327.714 235.537 327.619 235.354 327.487C235.171 327.354 235.016 327.186 234.899 326.993C234.783 326.8 234.705 326.585 234.673 326.362C234.64 326.139 234.653 325.911 234.71 325.693C234.814 325.257 235.088 324.88 235.472 324.645C235.855 324.41 236.316 324.337 236.753 324.441Z" fill="white"/>
<path d="M229.053 334.956H166.471V353.187H229.053V334.956Z" fill="#1769E9"/>
<path opacity="0.2" d="M191.08 334.956H166.471V353.187H191.08V334.956Z" fill="black"/>
<path d="M144.491 348.552L141.667 345.726C141.247 346.704 141.116 347.781 141.29 348.831C141.464 349.88 141.937 350.858 142.651 351.648C143.548 352.513 144.726 353.028 145.972 353.098C147.217 353.167 148.446 352.788 149.435 352.029C150.133 351.512 150.666 350.803 150.97 349.99L178.292 350.032C179.454 353.416 183.134 353.611 185.254 352.697L182.422 349.897C182.109 349.58 181.933 349.153 181.933 348.708C181.933 348.264 182.109 347.837 182.422 347.52C182.74 347.205 183.169 347.028 183.618 347.028C184.066 347.028 184.495 347.205 184.813 347.52L187.646 350.345C188.065 349.367 188.194 348.289 188.018 347.24C187.843 346.19 187.369 345.213 186.653 344.423C185.776 343.536 184.607 342.994 183.361 342.896C182.115 342.798 180.876 343.151 179.869 343.891C179.178 344.346 178.643 345.001 178.335 345.769L151.003 345.726C149.842 343.188 146.17 342.342 144.05 343.188L146.874 346.073C147.034 346.231 147.161 346.418 147.248 346.625C147.335 346.832 147.38 347.054 147.38 347.279C147.38 347.503 147.335 347.725 147.248 347.932C147.161 348.139 147.034 348.327 146.874 348.484C146.565 348.806 146.142 348.994 145.696 349.006C145.25 349.019 144.817 348.856 144.491 348.552Z" fill="#1769E9"/>
<path opacity="0.6" d="M144.491 348.552L141.667 345.726C141.247 346.704 141.116 347.781 141.29 348.831C141.464 349.88 141.937 350.858 142.651 351.648C143.548 352.513 144.726 353.028 145.972 353.098C147.217 353.167 148.446 352.788 149.435 352.029C150.133 351.512 150.666 350.803 150.97 349.99L178.292 350.032C179.454 353.416 183.134 353.611 185.254 352.697L182.422 349.897C182.109 349.58 181.933 349.153 181.933 348.708C181.933 348.264 182.109 347.837 182.422 347.52C182.74 347.205 183.169 347.028 183.618 347.028C184.066 347.028 184.495 347.205 184.813 347.52L187.646 350.345C188.065 349.367 188.194 348.289 188.018 347.24C187.843 346.19 187.369 345.213 186.653 344.423C185.776 343.536 184.607 342.994 183.361 342.896C182.115 342.798 180.876 343.151 179.869 343.891C179.178 344.346 178.643 345.001 178.335 345.769L151.003 345.726C149.842 343.188 146.17 342.342 144.05 343.188L146.874 346.073C147.034 346.231 147.161 346.418 147.248 346.625C147.335 346.832 147.38 347.054 147.38 347.279C147.38 347.503 147.335 347.725 147.248 347.932C147.161 348.139 147.034 348.327 146.874 348.484C146.565 348.806 146.142 348.994 145.696 349.006C145.25 349.019 144.817 348.856 144.491 348.552Z" fill="white"/>
</svg>
