<svg width="38" height="34" viewBox="0 0 38 34" fill="none" xmlns="http://www.w3.org/2000/svg">
<g clip-path="url(#clip0_0_3826)">
<path fill-rule="evenodd" clip-rule="evenodd" d="M11.5111 11.3791C12.4454 9.88604 16.8863 10.6374 21.4279 13.0557C25.9715 15.4741 28.8958 18.6438 27.9615 20.1368C27.4415 20.9642 26.9227 21.7922 26.4051 22.6208C25.4708 24.1139 21.0299 23.3625 16.4884 20.9442C11.9468 18.5259 9.02254 15.3563 9.95683 13.8631C10.4742 13.0364 10.9937 12.2077 11.5111 11.3791Z" fill="#FE9923"/>
<path fill-rule="evenodd" clip-rule="evenodd" d="M21.4279 13.0557C25.9715 15.474 28.8958 18.6437 27.9615 20.1368C27.0251 21.6299 22.5863 20.8804 18.0427 18.4622C13.5012 16.0438 10.5769 12.8722 11.5112 11.3791C12.4454 9.88606 16.8864 10.6374 21.4279 13.0557Z" fill="#FECD3D"/>
<path fill-rule="evenodd" clip-rule="evenodd" d="M20.6381 14.319C24.2516 16.2428 26.7759 18.4467 26.2794 19.2425C25.7808 20.0364 22.448 19.1209 18.8345 17.1989C15.221 15.2751 12.6947 13.0693 13.1933 12.2754C13.6897 11.4796 17.0246 12.3951 20.6381 14.319Z" fill="#FEA832"/>
<path d="M23.8516 21.9621L23.0241 23.2852C23.3342 23.3316 23.6274 23.3625 23.9061 23.376L24.5576 22.3368L23.8516 21.9621ZM20.8833 22.7889C20.6222 22.7099 20.3631 22.6256 20.1061 22.5359L20.8938 21.2765L21.5955 21.6512L20.8833 22.7889ZM18.1433 21.7555C17.8998 21.6463 17.6582 21.5336 17.4185 21.4175L18.1705 20.2141L18.8722 20.5908L18.1433 21.7555ZM15.5793 20.4382C15.3488 20.303 15.1205 20.1678 14.8985 20.0287L15.6296 18.862L16.3334 19.2368L15.5793 20.4382ZM13.1849 18.8523C12.9722 18.6918 12.7633 18.527 12.5586 18.3579L13.2708 17.2183L13.9726 17.593L13.1849 18.8523ZM11.0231 16.8957C10.8262 16.6716 10.6481 16.4514 10.4952 16.239L11.1467 15.1979L11.8505 15.5726L11.0231 16.8957Z" fill="#C85929"/>
<path fill-rule="evenodd" clip-rule="evenodd" d="M5.39856 21.4773H10.912C13.1325 23.0554 15.353 24.6354 17.5734 26.2154C18.4679 26.8509 18.713 27.9886 18.206 28.8829L24.8004 25.9353C25.9421 25.4253 27.3268 25.8677 27.8798 26.9204C28.4328 27.9711 27.951 29.2498 26.8115 29.7597C15.0115 35.0349 17.2928 35.2338 5.39856 29.5126V21.4773Z" fill="#FFCEBF"/>
<path d="M11.5028 25.9875L11.0544 25.6688L10.3652 26.4936L15.1602 29.9047C15.7845 30.349 16.5491 30.517 17.278 30.432C18.007 30.3451 18.7025 30.0032 19.1843 29.4257C19.2659 29.3272 19.3414 29.2248 19.4063 29.1186C19.4754 29.0065 19.5341 28.8964 19.5802 28.7883L19.8651 28.1412L18.206 28.8829C17.9279 29.1677 17.5479 29.3508 17.1355 29.3986C16.6935 29.4507 16.2284 29.3503 15.8493 29.0799L11.5028 25.9875Z" fill="#FFB09E"/>
<path fill-rule="evenodd" clip-rule="evenodd" d="M0.557495 20.0189H5.39855V30.9708H0.557495V20.0189Z" fill="#435469"/>
<path fill-rule="evenodd" clip-rule="evenodd" d="M32.5197 12.5226H27.0041C24.7835 10.9443 22.5637 9.3649 20.3448 7.78449C19.4482 7.14898 19.2031 6.01131 19.7122 5.11702L13.1157 8.06459C11.9761 8.57452 10.5893 8.13219 10.0363 7.07952C9.48329 6.02877 9.9651 4.75005 11.1046 4.24012C22.9046 -1.03493 20.6254 -1.23388 32.5196 4.48735L32.5197 12.5226Z" fill="#FFCEBF"/>
<path d="M26.4135 8.01244L26.8618 8.33112L27.551 7.50636L22.7581 4.09527C22.1318 3.65101 21.3671 3.48293 20.6403 3.56793C19.9092 3.65486 19.2158 3.99672 18.7319 4.57425C18.651 4.67222 18.5768 4.7748 18.5099 4.88138C18.4443 4.98794 18.3863 5.09827 18.3361 5.21169L18.0511 5.85875L19.7123 5.11706C19.9893 4.83192 20.3687 4.64876 20.7806 4.60135C21.2248 4.54922 21.6877 4.64963 22.0668 4.92003L26.4135 8.01244Z" fill="#FFB09E"/>
<path fill-rule="evenodd" clip-rule="evenodd" d="M32.5198 3.02905H37.3587V13.981H32.5198V3.02905Z" fill="#435469"/>
<path d="M6.34329 11.6997V13.0344H7.79078V13.9886H6.34329V15.3253H5.30847V13.9886H3.85889V13.0344H5.30847V11.6997H6.34329ZM32.3375 16.2466V17.5832H33.7851V18.5374H32.3375V19.8741H31.3027V18.5374H29.8531V17.5832H31.3027V16.2466H32.3375Z" fill="#FEA832"/>
</g>
<defs>
<clipPath id="clip0_0_3826">
<rect width="36.8732" height="34" fill="white" transform="translate(0.521484)"/>
</clipPath>
</defs>
</svg>
